<?xml version="1.0" encoding="UTF-8" standalone="no"?>
<!-- Created with Inkscape (http://www.inkscape.org/) -->

<svg
   xmlns:dc="http://purl.org/dc/elements/1.1/"
   xmlns:cc="http://creativecommons.org/ns#"
   xmlns:rdf="http://www.w3.org/1999/02/22-rdf-syntax-ns#"
   xmlns:svg="http://www.w3.org/2000/svg"
   xmlns="http://www.w3.org/2000/svg"
   xmlns:sodipodi="http://sodipodi.sourceforge.net/DTD/sodipodi-0.dtd"
   xmlns:inkscape="http://www.inkscape.org/namespaces/inkscape"
   width="123.98983mm"
   height="101.25652mm"
   viewBox="0 0 123.98983 101.25652"
   version="1.1"
   id="svg8"
   inkscape:version="0.92.2 (unknown)"
   sodipodi:docname="logo-destra.svg">
  <defs
     id="defs2">
    <clipPath
       id="clipPath37"
       clipPathUnits="userSpaceOnUse">
      <path
         inkscape:connector-curvature="0"
         id="path35"
         d="M 0,841.89 H 595.28 V 0 H 0 Z" />
    </clipPath>
    <clipPath
       id="clipPath49"
       clipPathUnits="userSpaceOnUse">
      <path
         inkscape:connector-curvature="0"
         id="path47"
         d="M 0,841.89 H 595.28 V 0 H 0 Z" />
    </clipPath>
    <clipPath
       id="clipPath117"
       clipPathUnits="userSpaceOnUse">
      <path
         inkscape:connector-curvature="0"
         id="path115"
         d="M 0,841.89 H 595.28 V 0 H 0 Z" />
    </clipPath>
    <clipPath
       id="clipPath149"
       clipPathUnits="userSpaceOnUse">
      <path
         inkscape:connector-curvature="0"
         id="path147"
         d="M 0,841.89 H 595.28 V 0 H 0 Z" />
    </clipPath>
    <clipPath
       id="clipPath165"
       clipPathUnits="userSpaceOnUse">
      <path
         inkscape:connector-curvature="0"
         id="path163"
         d="M 0,841.89 H 595.28 V 0 H 0 Z" />
    </clipPath>
    <clipPath
       id="clipPath181"
       clipPathUnits="userSpaceOnUse">
      <path
         inkscape:connector-curvature="0"
         id="path179"
         d="M 0,841.89 H 595.28 V 0 H 0 Z" />
    </clipPath>
  </defs>
  <sodipodi:namedview
     id="base"
     pagecolor="#ffffff"
     bordercolor="#666666"
     borderopacity="1.0"
     inkscape:pageopacity="0.0"
     inkscape:pageshadow="2"
     inkscape:zoom="1.4"
     inkscape:cx="236.72609"
     inkscape:cy="160.62092"
     inkscape:document-units="mm"
     inkscape:current-layer="layer1"
     showgrid="false"
     inkscape:window-width="1920"
     inkscape:window-height="956"
     inkscape:window-x="0"
     inkscape:window-y="30"
     inkscape:window-maximized="1" />
  <metadata
     id="metadata5">
    <rdf:RDF>
      <cc:Work
         rdf:about="">
        <dc:format>image/svg+xml</dc:format>
        <dc:type
           rdf:resource="http://purl.org/dc/dcmitype/StillImage" />
        <dc:title />
      </cc:Work>
    </rdf:RDF>
  </metadata>
  <g
     inkscape:label="Livello 1"
     inkscape:groupmode="layer"
     id="layer1"
     transform="translate(-44.043359,-128.78753)">
    <g
       inkscape:groupmode="layer"
       id="layer2"
       inkscape:label="Sfondo" />
    <g
       transform="matrix(0.38099161,0,0,-0.38099161,-10.156039,350.91791)"
       inkscape:label="PATCH logo+scritte BIANCO"
       id="g29"
       style="fill:#c52927;fill-opacity:1;stroke:#212121;stroke-width:0.52494591;stroke-linecap:round;stroke-linejoin:round;stroke-miterlimit:4;stroke-dasharray:none;stroke-opacity:1">
      <g
         id="g31"
         style="fill:#c52927;fill-opacity:1;stroke:#212121;stroke-width:0.52494591;stroke-linecap:round;stroke-linejoin:round;stroke-miterlimit:4;stroke-dasharray:none;stroke-opacity:1" />
      <g
         id="g43"
         style="fill:#c52927;fill-opacity:1;stroke:#212121;stroke-width:0.52494591;stroke-linecap:round;stroke-linejoin:round;stroke-miterlimit:4;stroke-dasharray:none;stroke-opacity:1" />
      <g
         transform="translate(297.6399,574.7553)"
         id="g127"
         style="fill:#c52927;fill-opacity:1;stroke:#212121;stroke-width:0.52494591;stroke-linecap:round;stroke-linejoin:round;stroke-miterlimit:4;stroke-dasharray:none;stroke-opacity:1">
        <path
           inkscape:connector-curvature="0"
           id="path129"
           style="fill:#c52927;fill-opacity:1;fill-rule:nonzero;stroke:#212121;stroke-width:0.52494591;stroke-linecap:round;stroke-linejoin:round;stroke-miterlimit:4;stroke-dasharray:none;stroke-opacity:1"
           d="M 0,0 H 0.001 Z" />
      </g>
      <g
         transform="translate(297.6406,574.7554)"
         id="g131"
         style="fill:#c52927;fill-opacity:1;stroke:#212121;stroke-width:0.52494591;stroke-linecap:round;stroke-linejoin:round;stroke-miterlimit:4;stroke-dasharray:none;stroke-opacity:1">
        <path
           inkscape:connector-curvature="0"
           id="path133"
           style="fill:#c52927;fill-opacity:1;stroke:#212121;stroke-width:0.52494591;stroke-linecap:round;stroke-linejoin:round;stroke-miterlimit:4;stroke-dasharray:none;stroke-opacity:1"
           d="M 0,0 H -0.001 Z" />
      </g>
      <g
         transform="translate(297.6399,574.7553)"
         id="g135"
         style="fill:#c52927;fill-opacity:1;stroke:#212121;stroke-width:0.52494591;stroke-linecap:round;stroke-linejoin:round;stroke-miterlimit:4;stroke-dasharray:none;stroke-opacity:1">
        <path
           inkscape:connector-curvature="0"
           id="path137"
           style="fill:#c52927;fill-opacity:1;fill-rule:nonzero;stroke:#212121;stroke-width:0.52494591;stroke-linecap:round;stroke-linejoin:round;stroke-miterlimit:4;stroke-dasharray:none;stroke-opacity:1"
           d="M 0,0 H 0.001 Z" />
      </g>
      <g
         id="g143"
         style="fill:#c52927;fill-opacity:1;stroke:#212121;stroke-width:0.52494591;stroke-linecap:round;stroke-linejoin:round;stroke-miterlimit:4;stroke-dasharray:none;stroke-opacity:1">
        <g
           clip-path="url(#clipPath149)"
           id="g145"
           style="fill:#c52927;fill-opacity:1;stroke:#212121;stroke-width:0.52494591;stroke-linecap:round;stroke-linejoin:round;stroke-miterlimit:4;stroke-dasharray:none;stroke-opacity:1">
          <g
             transform="translate(297.6401,574.7554)"
             id="g151"
             style="fill:#c52927;fill-opacity:1;stroke:#212121;stroke-width:0.52494591;stroke-linecap:round;stroke-linejoin:round;stroke-miterlimit:4;stroke-dasharray:none;stroke-opacity:1">
            <path
               inkscape:connector-curvature="0"
               id="path153"
               style="fill:#c52927;fill-opacity:1;fill-rule:nonzero;stroke:#212121;stroke-width:0.52494591;stroke-linecap:round;stroke-linejoin:round;stroke-miterlimit:4;stroke-dasharray:none;stroke-opacity:1"
               d="M 0,0 V 0" />
          </g>
        </g>
      </g>
      <g
         transform="translate(297.6401,574.7554)"
         id="g155"
         style="fill:#c52927;fill-opacity:1;stroke:#212121;stroke-width:0.52494591;stroke-linecap:round;stroke-linejoin:round;stroke-miterlimit:4;stroke-dasharray:none;stroke-opacity:1">
        <path
           inkscape:connector-curvature="0"
           id="path157"
           style="fill:#c52927;fill-opacity:1;stroke:#212121;stroke-width:0.52494591;stroke-linecap:round;stroke-linejoin:round;stroke-miterlimit:4;stroke-dasharray:none;stroke-opacity:1"
           d="M 0,0 V 0" />
      </g>
      <g
         id="g159"
         style="fill:#c52927;fill-opacity:1;stroke:#212121;stroke-width:0.52494591;stroke-linecap:round;stroke-linejoin:round;stroke-miterlimit:4;stroke-dasharray:none;stroke-opacity:1">
        <g
           clip-path="url(#clipPath165)"
           id="g161"
           style="fill:#c52927;fill-opacity:1;stroke:#212121;stroke-width:0.52494591;stroke-linecap:round;stroke-linejoin:round;stroke-miterlimit:4;stroke-dasharray:none;stroke-opacity:1">
          <g
             transform="translate(297.6401,574.7554)"
             id="g167"
             style="fill:#c52927;fill-opacity:1;stroke:#212121;stroke-width:0.52494591;stroke-linecap:round;stroke-linejoin:round;stroke-miterlimit:4;stroke-dasharray:none;stroke-opacity:1">
            <path
               inkscape:connector-curvature="0"
               id="path169"
               style="fill:#c52927;fill-opacity:1;fill-rule:nonzero;stroke:#212121;stroke-width:0.52494591;stroke-linecap:round;stroke-linejoin:round;stroke-miterlimit:4;stroke-dasharray:none;stroke-opacity:1"
               d="M 0,0 V 0" />
          </g>
        </g>
      </g>
      <g
         transform="translate(297.6401,574.7554)"
         id="g171"
         style="fill:#c52927;fill-opacity:1;stroke:#212121;stroke-width:0.52494591;stroke-linecap:round;stroke-linejoin:round;stroke-miterlimit:4;stroke-dasharray:none;stroke-opacity:1">
        <path
           inkscape:connector-curvature="0"
           id="path173"
           style="fill:#c52927;fill-opacity:1;stroke:#212121;stroke-width:0.52494591;stroke-linecap:round;stroke-linejoin:round;stroke-miterlimit:4;stroke-dasharray:none;stroke-opacity:1"
           d="M 0,0 V 0" />
      </g>
      <g
         id="g175"
         transform="translate(7.3384742,56.726462)"
         style="fill:#c52927;fill-opacity:1;fill-rule:nonzero;stroke:#212121;stroke-width:0.52494591;stroke-linecap:round;stroke-linejoin:round;stroke-miterlimit:4;stroke-dasharray:none;stroke-opacity:1">
        <g
           clip-path="url(#clipPath181)"
           id="g177"
           style="fill:#c52927;fill-opacity:1;fill-rule:nonzero;stroke:#212121;stroke-width:0.52494591;stroke-linecap:round;stroke-linejoin:round;stroke-miterlimit:4;stroke-dasharray:none;stroke-opacity:1">
          <g
             transform="translate(203.6587,522.1245)"
             id="g183"
             style="fill:#c52927;fill-opacity:1;fill-rule:nonzero;stroke:#212121;stroke-width:0.52494591;stroke-linecap:round;stroke-linejoin:round;stroke-miterlimit:4;stroke-dasharray:none;stroke-opacity:1" />
          <g
             transform="translate(231.7378,459.0044)"
             id="g231"
             style="fill:#c52927;fill-opacity:1;fill-rule:nonzero;stroke:#212121;stroke-width:0.52494591;stroke-linecap:round;stroke-linejoin:round;stroke-miterlimit:4;stroke-dasharray:none;stroke-opacity:1" />
          <g
             transform="translate(234.6187,437.8843)"
             id="g247"
             style="fill:#c52927;fill-opacity:1;fill-rule:nonzero;stroke:#212121;stroke-width:0.52494591;stroke-linecap:round;stroke-linejoin:round;stroke-miterlimit:4;stroke-dasharray:none;stroke-opacity:1" />
          <g
             transform="translate(365.1777,294.6035)"
             id="g271"
             style="fill:#c52927;fill-opacity:1;fill-rule:nonzero;stroke:#212121;stroke-width:0.52494591;stroke-linecap:round;stroke-linejoin:round;stroke-miterlimit:4;stroke-dasharray:none;stroke-opacity:1" />
          <g
             transform="translate(171.2583,335.4043)"
             id="g279"
             style="fill:#c52927;fill-opacity:1;fill-rule:nonzero;stroke:#212121;stroke-width:0.52494591;stroke-linecap:round;stroke-linejoin:round;stroke-miterlimit:4;stroke-dasharray:none;stroke-opacity:1" />
          <g
             transform="translate(233.1782,339.2441)"
             id="g287"
             style="fill:#c52927;fill-opacity:1;fill-rule:nonzero;stroke:#212121;stroke-width:0.52494591;stroke-linecap:round;stroke-linejoin:round;stroke-miterlimit:4;stroke-dasharray:none;stroke-opacity:1" />
          <g
             transform="translate(229.1782,474.6045)"
             id="g291"
             style="fill:#c52927;fill-opacity:1;fill-rule:nonzero;stroke:#212121;stroke-width:0.52494591;stroke-linecap:round;stroke-linejoin:round;stroke-miterlimit:4;stroke-dasharray:none;stroke-opacity:1">
            <path
               inkscape:connector-curvature="0"
               id="path293"
               style="fill:#c52927;fill-opacity:1;fill-rule:nonzero;stroke:#212121;stroke-width:0.52494591;stroke-linecap:round;stroke-linejoin:round;stroke-miterlimit:4;stroke-dasharray:none;stroke-opacity:1"
               d="m 0,0 c 3.396,3.226 9.544,5.235 12.72,8.64 6.453,6.917 -8.343,12.963 -10.8,16.8 -6.742,4.763 -16.151,0.697 -20.399,-4.32 C -7.866,20.553 0.962,11.414 0,0" />
          </g>
          <g
             transform="translate(366.2178,472.9243)"
             id="g295"
             style="fill:#c52927;fill-opacity:1;fill-rule:nonzero;stroke:#212121;stroke-width:0.52494591;stroke-linecap:round;stroke-linejoin:round;stroke-miterlimit:4;stroke-dasharray:none;stroke-opacity:1">
            <path
               inkscape:connector-curvature="0"
               id="path297"
               style="fill:#c52927;fill-opacity:1;fill-rule:nonzero;stroke:#212121;stroke-width:0.52494591;stroke-linecap:round;stroke-linejoin:round;stroke-miterlimit:4;stroke-dasharray:none;stroke-opacity:1"
               d="M 0,0 C -0.758,11.345 7.059,20.44 18.479,21.12 15.451,24.118 11.062,27.586 6,27.84 -0.587,28.17 -11.391,18.537 -13.44,15.6 -14.186,14.532 -14.256,13.196 -14.641,12.24 -11.694,6.226 -4.849,4.112 0,0" />
          </g>
          <g
             transform="translate(198.6987,485.1646)"
             id="g299"
             style="fill:#c52927;fill-opacity:1;fill-rule:nonzero;stroke:#212121;stroke-width:0.52494591;stroke-linecap:round;stroke-linejoin:round;stroke-miterlimit:4;stroke-dasharray:none;stroke-opacity:1">
            <path
               inkscape:connector-curvature="0"
               id="path301"
               style="fill:#c52927;fill-opacity:1;fill-rule:nonzero;stroke:#212121;stroke-width:0.52494591;stroke-linecap:round;stroke-linejoin:round;stroke-miterlimit:4;stroke-dasharray:none;stroke-opacity:1"
               d="m 0,0 c -1.043,-8.379 8.299,-15.188 15.119,-15.36 5.318,-0.135 10.942,3.471 11.28,9.12 C 26.86,1.435 16.486,9.376 8.639,7.68 3.875,6.649 0.43,3.458 0,0" />
          </g>
          <g
             transform="translate(370.2979,477.2441)"
             id="g303"
             style="fill:#c52927;fill-opacity:1;fill-rule:nonzero;stroke:#212121;stroke-width:0.52494591;stroke-linecap:round;stroke-linejoin:round;stroke-miterlimit:4;stroke-dasharray:none;stroke-opacity:1">
            <path
               inkscape:connector-curvature="0"
               id="path305"
               style="fill:#c52927;fill-opacity:1;fill-rule:nonzero;stroke:#212121;stroke-width:0.52494591;stroke-linecap:round;stroke-linejoin:round;stroke-miterlimit:4;stroke-dasharray:none;stroke-opacity:1"
               d="m 0,0 c 0.705,-10.339 15.189,-10.932 21.84,-4.56 7.242,6.938 4.973,19.239 -7.2,18.72 C 8.153,13.884 -0.485,7.121 0,0" />
          </g>
          <g
             transform="translate(194.6187,483.4844)"
             id="g307"
             style="fill:#c52927;fill-opacity:1;fill-rule:nonzero;stroke:#212121;stroke-width:0.52494591;stroke-linecap:round;stroke-linejoin:round;stroke-miterlimit:4;stroke-dasharray:none;stroke-opacity:1">
            <path
               inkscape:connector-curvature="0"
               id="path309"
               style="fill:#c52927;fill-opacity:1;fill-rule:nonzero;stroke:#212121;stroke-width:0.52494591;stroke-linecap:round;stroke-linejoin:round;stroke-miterlimit:4;stroke-dasharray:none;stroke-opacity:1"
               d="m 0,0 c -0.002,0.03 -0.566,0.294 -0.721,0.24 -5.93,-4.309 -10.323,-10.157 -14.16,-16.56 4.453,-5.024 11.219,-11.116 18,-13.68 11.447,-4.329 19.211,7.404 23.76,14.64 C 13.551,-21.126 0.677,-11.983 0,0" />
          </g>
          <g
             transform="translate(373.8975,466.4443)"
             id="g311"
             style="fill:#c52927;fill-opacity:1;fill-rule:nonzero;stroke:#212121;stroke-width:0.52494591;stroke-linecap:round;stroke-linejoin:round;stroke-miterlimit:4;stroke-dasharray:none;stroke-opacity:1">
            <path
               inkscape:connector-curvature="0"
               id="path313"
               style="fill:#c52927;fill-opacity:1;fill-rule:nonzero;stroke:#212121;stroke-width:0.52494591;stroke-linecap:round;stroke-linejoin:round;stroke-miterlimit:4;stroke-dasharray:none;stroke-opacity:1"
               d="m 0,0 c 4.548,-7.316 9.792,-15.136 20.4,-15.6 8.643,3.357 15.97,8.03 21.36,14.64 C 37.699,5.379 33.754,11.833 27.12,15.6 26.704,3.252 12.805,-5.335 0,0" />
          </g>
          <g
             transform="translate(208.2983,422.0444)"
             id="g315"
             style="fill:#c52927;fill-opacity:1;fill-rule:nonzero;stroke:#212121;stroke-width:0.52494591;stroke-linecap:round;stroke-linejoin:round;stroke-miterlimit:4;stroke-dasharray:none;stroke-opacity:1">
            <path
               inkscape:connector-curvature="0"
               id="path317"
               style="fill:#c52927;fill-opacity:1;fill-rule:nonzero;stroke:#212121;stroke-width:0.52494591;stroke-linecap:round;stroke-linejoin:round;stroke-miterlimit:4;stroke-dasharray:none;stroke-opacity:1"
               d="m 0,0 c -12.202,10.198 -24.131,20.67 -36.961,30.24 -3.111,-5.208 -7.004,-14.271 -5.76,-19.2 12.063,-10.657 24.93,-20.51 38.16,-30 C -5.484,-11.16 0.388,-7.263 0,0" />
          </g>
          <g
             transform="translate(387.0977,420.3652)"
             id="g319"
             style="fill:#c52927;fill-opacity:1;fill-rule:nonzero;stroke:#212121;stroke-width:0.52494591;stroke-linecap:round;stroke-linejoin:round;stroke-miterlimit:4;stroke-dasharray:none;stroke-opacity:1">
            <path
               inkscape:connector-curvature="0"
               id="path321"
               style="fill:#c52927;fill-opacity:1;fill-rule:nonzero;stroke:#212121;stroke-width:0.52494591;stroke-linecap:round;stroke-linejoin:round;stroke-miterlimit:4;stroke-dasharray:none;stroke-opacity:1"
               d="m 0,0 c -0.256,-7.129 5.178,-11.459 4.8,-18.721 8.413,6.086 19.736,14.547 28.8,22.08 2.291,1.904 8.473,5.822 9.12,8.16 1.787,6.458 -4.425,15.099 -5.76,18.72 C 24.036,20.763 12.1,10.299 0,0" />
          </g>
          <g
             transform="translate(362.1377,340.9238)"
             id="g323"
             style="fill:#c52927;fill-opacity:1;fill-rule:nonzero;stroke:#212121;stroke-width:0.52494591;stroke-linecap:round;stroke-linejoin:round;stroke-miterlimit:4;stroke-dasharray:none;stroke-opacity:1">
            <path
               inkscape:connector-curvature="0"
               id="path325"
               style="fill:#c52927;fill-opacity:1;fill-rule:nonzero;stroke:#212121;stroke-width:0.52494591;stroke-linecap:round;stroke-linejoin:round;stroke-miterlimit:4;stroke-dasharray:none;stroke-opacity:1"
               d="M 0,0 C 14.061,3.057 28.604,-3.533 37.439,-12 43.69,-17.988 50.018,-26.197 48.72,-37.199 24.743,-48.215 -4.346,-26.688 0,0 m 43.92,-42 c 9.577,1.904 21.338,11.471 21.84,22.561 C 66.422,-4.822 55.88,5.342 47.52,10.801 41.205,14.924 30.673,18.146 21.6,17.76 6.506,17.117 -6.049,5.436 -3.12,-10.559 0.256,-28.998 21.939,-46.367 43.92,-42" />
          </g>
          <g
             transform="translate(203.4976,299.1641)"
             id="g327"
             style="fill:#c52927;fill-opacity:1;fill-rule:nonzero;stroke:#212121;stroke-width:0.52494591;stroke-linecap:round;stroke-linejoin:round;stroke-miterlimit:4;stroke-dasharray:none;stroke-opacity:1">
            <path
               inkscape:connector-curvature="0"
               id="path329"
               style="fill:#c52927;fill-opacity:1;fill-rule:nonzero;stroke:#212121;stroke-width:0.52494591;stroke-linecap:round;stroke-linejoin:round;stroke-miterlimit:4;stroke-dasharray:none;stroke-opacity:1"
               d="m 0,0 c -7.222,-1.449 -14.099,0.551 -18.959,2.881 -1.604,10.203 4.928,19.312 11.039,25.199 9.011,8.68 22.578,14.881 37.681,12 C 32.688,19.951 17.579,3.527 0,0 m 32.881,29.76 c 1.843,10.068 -4.033,19.992 -9.36,23.519 -3.922,2.598 -11.539,5.116 -18,4.561 C -12.729,56.277 -25.754,47.932 -32.16,36.24 -44.852,13.074 -20.811,-8.818 4.08,-0.959 16.408,2.932 30.154,14.869 32.881,29.76" />
          </g>
          <g
             transform="translate(454.0576,448.2041)"
             id="g331"
             style="fill:#c52927;fill-opacity:1;fill-rule:nonzero;stroke:#212121;stroke-width:0.52494591;stroke-linecap:round;stroke-linejoin:round;stroke-miterlimit:4;stroke-dasharray:none;stroke-opacity:1">
            <path
               inkscape:connector-curvature="0"
               id="path333"
               style="fill:#c52927;fill-opacity:1;fill-rule:nonzero;stroke:#212121;stroke-width:0.52494591;stroke-linecap:round;stroke-linejoin:round;stroke-miterlimit:4;stroke-dasharray:none;stroke-opacity:1"
               d="M 0,0 C -0.616,9.224 -4.341,15.339 -7.2,22.32 -18.983,45.497 -36.259,63.181 -62.4,72 c 6.163,3.765 15.984,-1.343 21.36,-4.8 C -23.135,55.687 -1.756,35.598 2.4,11.04 2.943,7.828 2.702,4.375 2.88,2.16 1.919,1.441 1.655,0.024 0,0 m -5.28,-4.56 c -3.042,18.364 -14.425,33.872 -24.48,45.6 -10.319,12.038 -23.979,20.216 -39.12,26.16 -0.099,1.421 2.409,2.199 3.6,3.12 27.261,-6.454 44.785,-27.888 56.88,-50.16 2.68,-4.934 5.629,-10.847 6.24,-16.32 0.488,-4.369 -0.258,-7.915 -3.12,-8.4 m -6.48,-5.52 c -0.983,16.627 -10.825,26.448 -17.761,37.92 -12.301,14.658 -26.816,27.103 -45.839,35.04 0.546,1.774 2.674,1.966 3.839,3.12 25.032,-7.843 41.148,-26 54.481,-46.56 4.772,-7.358 9.664,-16.567 9.36,-26.4 -1.264,-1.136 -2.562,-2.238 -4.08,-3.12 m -5.04,-4.08 c -8.608,37.072 -32.252,59.11 -64.32,72.72 0.542,1.778 2.662,1.978 3.84,3.12 22.059,-9.1 39.089,-24.282 51.6,-43.44 5.026,-7.696 10.692,-16.814 11.52,-26.4 0.222,-2.569 0.18,-5.223 -2.64,-6 m -9.6,-8.639 c -9.871,-8.095 -18.976,-15.55 -29.28,-23.52 -3.884,-3.006 -8.144,-7.942 -12,-8.881 -6.907,-1.682 -15.708,2.312 -20.16,4.32 -5.418,2.443 -11.001,5.893 -13.44,11.041 2.346,1.012 5.134,-2.422 7.44,-4.08 2.592,-1.865 5.09,-3.617 7.68,-5.041 3.636,-1.58 18.685,-7.967 18.96,0.961 0.181,5.895 -7.813,10.504 -8.16,15.84 -0.353,5.42 4.12,10.527 4.08,16.559 -0.07,10.602 -10.986,20.676 -18.241,26.64 -4.111,3.381 -8.278,6.587 -12.239,10.08 -4.708,4.151 -10.983,7.547 -18.72,7.2 2.945,2.896 6.463,5.217 9.84,7.68 0.659,-0.518 -0.239,-1.102 0.24,-1.68 4.689,-8.179 15.139,-10.588 21.84,-17.28 5.413,-5.405 8.622,-11.059 14.4,-16.32 16.508,-11.265 32.266,5.796 42.24,13.2 3.956,-7.367 9.929,-15.86 11.04,-25.68 0.734,-6.482 -1.136,-7.445 -5.52,-11.039 m -114,-42.481 c -8.889,-7.114 -19.829,-15.701 -29.039,-24.481 -9.316,-8.877 -18.807,-18.115 -21.601,-31.679 -0.78,-3.788 -0.364,-7.77 -1.44,-10.799 -1.228,-3.463 -4.953,-5.678 -6.24,-8.641 -1.209,-2.783 -0.768,-4.791 -2.639,-6.959 -2.084,-2.416 -5.369,-3.93 -8.641,-7.201 -2.681,-2.682 -4.687,-6.342 -7.919,-7.68 -1.732,-0.717 -3.751,-0.652 -5.52,-1.199 -8.228,-2.551 -14.029,-10.398 -20.641,-14.16 -1.82,-1.037 -5.777,-2.897 -8.16,0.24 7.3,5.047 13.516,11.045 21.6,16.078 2.677,1.668 6.023,2.957 6.48,6 0.202,1.342 -0.504,2.846 -0.24,4.08 0.617,2.895 4.883,5.145 6.721,6.481 2.756,2.002 5.32,3.527 8.16,4.801 0.908,-0.452 -0.027,-2.748 1.199,-2.881 4.924,4.851 4.974,14.084 6.721,21.121 1.791,7.217 4.055,14.431 7.68,19.92 6.096,9.232 16.566,16.875 25.439,24.24 9.443,7.838 18.328,13.83 27.84,21.6 13.489,11.015 27.88,21.127 42.24,32.159 4.687,3.602 10.976,8.468 16.08,10.08 5.028,-4.823 -0.411,-7.363 -5.04,-10.799 -17.678,-13.128 -35.887,-26.593 -53.04,-40.321 m 36.48,-12.481 c 1.548,-5.008 -2.529,-7.049 -6.72,-6.238 -9.355,1.807 -19.653,12.924 -27.12,16.318 2.136,2.346 4.897,4.065 7.44,6 8.351,-5.808 16.221,-12.097 26.4,-16.08 m 6,-2.398 c 2.482,-7.205 -4.195,-11.289 -10.8,-10.801 -6.519,0.482 -12.019,5.523 -17.52,9.121 -6.065,3.965 -11.248,8.018 -15.6,10.799 0.515,1.164 1.644,1.717 2.64,2.4 3.867,-2.316 8.527,-5.816 13.44,-9.121 6.432,-4.324 12.173,-10.062 21.84,-7.439 0.856,1.763 2.402,3.918 1.68,6.48 1.741,-0.179 2.868,-0.972 4.32,-1.439 m 22.8,-4.08 c 18.714,1.826 36.985,-9.983 45.84,-20.16 5.059,-5.817 9.968,-15.922 8.64,-25.92 -2.415,-18.172 -20.633,-27.137 -42.24,-27.362 3.39,-3.408 10.248,-3.351 13.92,-6.478 -4.96,-12.996 -18.765,3.441 -24,6.959 1.134,0.547 3.378,-0.018 4.56,0.48 -1.473,3.076 -4.775,3.352 -7.68,5.039 -10.209,5.938 -22.276,17.438 -24.96,29.762 -4.333,19.9 7.474,35.879 25.92,37.68 m -1.68,-85.92 c -3.319,2.58 -7.672,6.258 -11.76,7.68 -3.719,1.292 -6.602,0.88 -9.12,3.119 -4.662,4.144 -7.883,10.603 -13.44,12.72 -1.857,1.803 -1.839,4.424 -2.64,6.721 -1.462,4.188 -5.552,5.934 -6.72,9.84 -1.001,3.348 -0.552,6.627 -1.2,9.84 -3.877,19.226 -19.346,29.506 -31.2,41.039 2.189,1.572 4.331,3.189 6.24,5.041 0.204,0.043 0.226,-0.094 0.24,-0.24 9.102,-8.868 20.276,-15.164 27.6,-25.92 5.413,-7.952 8.211,-20.362 10.08,-31.68 0.566,-3.426 0.95,-7.904 4.32,-9.602 1.252,0.11 0.347,2.373 1.2,2.881 5.205,-4.281 15.609,-5.767 14.4,-14.881 2.401,-5.72 10.397,-8.951 15.36,-12.718 4.638,-3.522 8.747,-6.785 12.96,-9.84 -5.725,-4.684 -11.856,2.527 -16.32,6 m -186.959,4.08 c 3.246,3.633 10.427,3.33 13.92,6.719 -4.596,1.443 -8.092,0.588 -12.961,1.201 -16.637,2.09 -31.274,14.91 -29.52,33.119 0.68,7.057 4.787,14.109 8.641,18.721 9.4,11.252 31.849,25.324 52.559,19.439 11.483,-3.262 21.47,-14.998 20.161,-30.721 -1.719,-20.638 -19.773,-31.904 -33.361,-40.318 0.788,-0.973 2.867,-0.654 4.561,-0.721 -5.585,-4.011 -18.186,-19.588 -24,-7.439 m 48.96,84.24 c 1.268,0.57 2.421,1.258 4.079,1.44 -0.293,-2.774 0.998,-3.963 1.44,-6 9.532,-3.799 16.491,3.179 23.28,7.92 24.15,16.857 47.129,33.949 69.6,52.079 4.488,3.621 9.312,7.015 13.68,10.8 4.735,4.102 9.48,8.031 13.92,11.76 0.809,-0.071 0.696,-1.064 1.44,-1.2 -7.05,-9.146 -16.922,-16.482 -26.88,-23.52 -9.394,-6.64 -18.596,-14.439 -28.08,-22.08 -13.65,-10.998 -28.006,-21.97 -43.199,-32.16 -5.127,-3.437 -11.369,-8.791 -17.761,-9.599 -6.202,-0.786 -10.348,1.976 -12,5.519 0.075,1.766 0.185,3.496 0.481,5.041 m 5.759,1.92 c 41.856,23.582 74.533,57.629 112.8,83.999 1.519,-1.98 5.605,-3.356 5.76,-6 0.183,-3.117 -9.334,-9.242 -12.24,-11.76 -12.874,-11.155 -26.639,-21.78 -40.08,-31.68 -14.042,-10.342 -26.716,-20.944 -41.52,-30.241 -4.881,-3.064 -9.709,-6.845 -14.639,-9.119 -2.169,-1 -5.89,-1.275 -8.4,-0.48 -1.03,1.291 -2.106,2.535 -1.681,5.281 m -17.52,57.359 c -3.676,2.764 -8.669,5.956 -3.84,9.84 20.947,-10.973 37.107,-26.734 55.92,-39.84 -1.931,-1.668 -3.888,-3.312 -6.24,-4.56 -14.155,10.812 -30.642,23.135 -45.84,34.56 m 6,-24.72 c -4.596,-2.907 -17.232,-8.172 -24.48,-6.241 -4.309,1.151 -8.642,6.083 -12.24,8.881 -10.044,7.813 -18.954,15.08 -29.04,23.52 -3.796,3.177 -6.389,3.924 -5.519,10.8 1.236,9.777 6.824,18.445 11.039,25.92 9.37,-5.599 15.029,-15.427 27.361,-17.04 14.4,-1.883 19.719,9.491 26.64,17.52 8.37,9.712 19.409,10.382 24.479,20.64 v 0.72 c 3.626,-2.06 7.711,-4.922 9.84,-7.68 -10.352,1.077 -17.002,-5.939 -23.52,-11.52 -9.419,-8.065 -19.812,-14.313 -24.24,-26.16 -3.41,-9.125 4.56,-16.603 2.641,-23.999 -1.364,-5.258 -7.563,-8.135 -7.92,-13.92 -0.31,-4.986 4.818,-5.896 9.6,-4.801 6.802,1.559 15.836,6.504 21.12,11.52 0.081,0.078 1.622,1.879 2.639,1.439 3.053,-1.312 -6.972,-8.697 -8.4,-9.599 m -76.319,48.96 c 2.583,8.024 8.039,16.548 13.44,23.52 8.897,11.487 18.507,21.327 30.719,29.28 5.041,3.283 10.86,6.984 16.08,8.64 1.947,0.618 4.221,-1.785 5.041,-2.88 -31.987,-13.692 -55.732,-35.63 -64.32,-72.72 -4.468,1.377 -2.211,10.274 -0.96,14.16 m -8.161,-6.96 c 0.972,17.394 13.386,33.941 22.8,45.36 9.114,11.054 23.713,21.701 37.92,26.88 1.111,0.405 2.028,0.176 2.881,0.72 1.375,-1.025 3.259,-1.54 4.08,-3.12 -17.857,-8.22 -35.785,-20.313 -46.32,-36.72 -6.751,-10.512 -16.931,-20.424 -17.28,-36.24 -1.692,0.709 -2.879,1.921 -4.081,3.12 m -5.52,10.56 c 1.069,10.433 8.653,22.52 14.4,30.96 11.45,16.814 28.877,30.334 47.281,35.52 2.313,0.653 3.558,-1.6 5.28,-2.4 -14.678,-6.788 -28.877,-14.235 -39.36,-26.4 -10.344,-12.002 -21.068,-27.197 -24.48,-45.84 -3.07,0.742 -3.621,3.27 -3.121,8.16 m -5.039,-1.44 c 0.432,18.154 7.74,30.226 17.279,41.52 8.045,9.524 16.744,17.009 26.401,23.28 5.577,3.622 14.162,8.33 21.599,5.28 -25.463,-9.503 -43.407,-25.941 -55.199,-49.68 -3.406,-6.854 -6.327,-14.524 -7.44,-22.8 -1.13,0.551 -2.038,1.323 -2.64,2.4 m 92.64,50.16 c 2.35,-1.772 3.292,-2.76 5.759,-4.56 5.841,-4.26 15.818,-9.431 8.401,-16.56 -4.472,-4.297 -10.829,-7.449 -16.08,-12 -7.39,-6.403 -15.158,-21.436 -29.521,-19.2 -11.146,1.736 -17.109,8.845 -25.199,15.12 8.654,13.931 20.006,24.649 34.319,33.84 2.754,1.769 11.79,6.97 15.601,7.2 2.473,0.15 4.957,-2.511 6.72,-3.84 m 39.12,-32.16 c 0.589,-2.657 -0.905,-5.54 -0.96,-7.68 -0.097,-3.675 3.094,-7.22 3.12,-11.52 0.036,-6.244 -2.071,-11.285 -6,-14.88 -1.037,2.578 1.258,4.73 2.16,6.96 0.945,2.342 2.007,5.486 1.92,8.4 -0.112,3.733 -2.488,6.719 -3.121,10.32 -0.592,3.377 2.205,9.406 -2.4,10.32 -3.836,0.762 -9.492,-3.058 -12.96,-5.04 -4.252,-2.429 -8.247,-4.482 -11.279,-7.2 -8.207,-7.353 -18.807,-18.527 -21.6,-29.76 -0.698,-2.802 -0.183,-6.928 -0.72,-9.12 -9.184,16.816 3.056,28.893 13.439,38.16 8.205,7.323 16.514,17.943 30,17.04 3.208,-0.215 7.715,-2.916 8.401,-6 m 16.319,-68.88 c -0.382,-1.297 -1.869,-1.49 -2.64,-2.4 -15.145,12.64 -33.254,25.65 -49.199,39.12 -2.156,1.82 -8.106,5.907 -4.801,8.16 18.485,-15.355 37.039,-30.642 56.64,-44.88 m 9.36,6.721 c -3.004,-1.875 -5.361,-4.399 -8.401,-6.241 -13.945,11.411 -29.14,21.53 -42.719,33.6 -4.489,3.991 -9.614,7.444 -12.96,12.48 0.782,2.273 3.649,4.501 5.76,6.24 20.143,-14.658 39.479,-30.122 58.32,-46.079 m 27.12,40.559 c -0.124,4.203 2.599,7.525 2.88,11.04 0.254,3.17 -1.444,5.933 -0.72,9.12 1.417,6.236 12.827,6.973 19.2,3.84 7.692,-3.781 13.257,-9.895 20.88,-16.8 6.428,-5.822 14.717,-13.762 15.36,-22.08 0.428,-5.543 -2.818,-8.893 -3.36,-14.4 -0.872,16.851 -12.057,29.913 -22.8,39.36 -3.734,3.284 -13.098,8.638 -18.24,10.56 -2.801,1.047 -6.946,2.178 -8.4,-0.72 -1.069,-2.129 0.422,-5.611 0,-8.16 -0.665,-4.024 -3.318,-7.7 -2.64,-12.72 0.362,-2.685 1.18,-5.056 2.16,-7.2 0.839,-1.834 3.05,-4.188 1.44,-6 -3.454,3.562 -5.587,8.308 -5.76,14.16 m 34.8,47.04 c 4.637,3.449 8.136,6.271 11.76,9.12 22.999,-6.845 38.884,-22.872 51.36,-41.04 -9.113,-6.067 -14.554,-16.203 -29.04,-15.6 -11.72,0.489 -18.252,13.06 -25.44,19.44 -5.357,4.756 -11.775,7.539 -16.32,12 -7.365,7.228 2.418,12.168 7.68,16.08 M 2.64,21.12 c -6.971,20.437 -23.593,36.504 -41.04,47.52 -5.126,3.237 -14.555,8.382 -22.08,7.44 -3.09,-0.387 -6.68,-4.223 -9.36,-6.24 -18.49,-13.918 -35.473,-26.415 -53.28,-40.8 -2.415,-1.951 -7.109,-5.139 -7.92,-7.92 -0.953,-3.27 0.702,-7.252 0,-11.04 -0.539,-2.908 -2.384,-5.333 -2.64,-7.68 -0.828,-7.589 3.651,-13.186 5.76,-18.48 -8.93,-7.55 -18.401,-15.839 -27.84,-22.079 -9.222,7.496 -19.929,15.59 -29.28,23.759 2.438,5.266 6.74,10.44 6,18.24 -0.206,2.171 -2.588,5.449 -2.879,9.12 -0.276,3.482 0.918,6.801 0.48,9.36 -0.461,2.689 -5.769,6.26 -8.16,8.16 -18.289,14.537 -35.217,27.218 -53.28,41.04 -2.781,2.127 -6.904,5.965 -9.601,6.24 -7.58,0.773 -16.557,-4.34 -21.84,-7.68 -17.773,-11.238 -34.24,-27.194 -41.039,-47.52 -1.527,-4.562 -4.912,-14.489 -2.881,-20.16 0.746,-2.081 6.121,-5.628 8.641,-7.68 15.951,-12.991 29.604,-24.504 45.359,-36.959 4.68,-3.699 13.889,-13.526 20.641,-13.92 14.994,-0.879 27.406,8.424 35.039,15.599 8.848,-5.873 17.191,-12.25 25.201,-18.961 -10.517,-6.779 -20.116,-18.033 -36.24,-19.439 -8.274,-0.721 -14.977,1.395 -21.121,0.24 -4.465,-0.838 -7.928,-3.785 -12.48,-5.279 -3.229,-1.061 -8.057,-0.252 -11.28,-1.201 -4.379,-1.291 -8.465,-4.873 -11.76,-7.44 -3.652,-2.845 -8.169,-5.058 -10.56,-8.64 -1.305,-1.955 -2.118,-5.283 -3.6,-7.44 -2.387,-3.476 -7.517,-6.318 -11.279,-9.119 -2.41,-1.795 -9.927,-6.316 -10.321,-10.08 -0.332,-3.184 2.473,-6.303 4.321,-8.4 1.965,-2.233 4.035,-5.235 6,-6.721 2.908,-2.201 7.215,-3.166 8.639,-6.481 0.535,-1.24 0.453,-2.617 0.96,-4.08 2.554,-7.355 9.526,-12.89 15.84,-18.718 4.978,-4.594 11.405,-13.784 17.281,-14.881 7.075,-1.322 14.237,4.051 18.479,7.201 4.871,3.615 9.416,9.27 14.4,11.279 4.449,1.795 10.031,1.92 13.201,4.321 2.715,2.054 4.613,5.98 7.92,9.119 2.491,2.365 7.549,5.597 8.879,8.4 0.922,1.943 0.709,4.535 1.44,6.24 1.007,2.348 3.605,3.459 4.801,5.52 2.228,3.846 1.861,9.334 2.639,13.92 3.39,19.98 19.526,28.142 31.92,39.599 11.558,-10.156 23.457,-18.158 28.56,-33.359 1.797,-5.352 0.659,-11.002 3.36,-17.279 1.005,-2.336 4.118,-4.233 5.28,-7.201 0.679,-1.733 0.507,-3.772 1.2,-5.52 1.249,-3.146 6.142,-5.66 9.12,-8.641 3.387,-3.386 5.225,-7.517 8.4,-9.599 3.349,-2.196 8.641,-2.063 13.2,-4.08 4.227,-1.871 7.995,-6.358 12,-9.36 4.313,-3.234 8.359,-6.547 13.44,-8.16 7.798,-2.476 11.699,1.86 16.08,6.24 7.896,7.895 18.398,15.459 23.04,24.721 1.114,2.221 0.928,4.279 1.92,6.238 1.463,2.891 5.694,4.01 8.4,6 2.001,1.473 4.256,4.493 6.24,6.721 1.726,1.94 4.684,5.397 4.32,8.641 -0.416,3.703 -7.704,7.724 -10.32,9.599 -3.695,2.649 -8.257,5.934 -10.8,9.119 -1.825,2.288 -2.749,5.983 -4.32,8.161 -1.869,2.591 -6.044,5.007 -9.12,7.441 -3.296,2.606 -6.482,5.377 -9.6,6.959 -4.226,2.145 -8.923,1.018 -13.92,2.16 -5.538,1.266 -8.95,5.494 -14.88,6 -6.299,0.537 -12.067,-1.107 -17.76,-0.721 -16.049,1.094 -25.822,10.895 -35.76,18.241 7.545,5.976 15.037,12.004 23.28,17.281 1.571,-1.959 3.356,-4.027 5.28,-5.522 5.923,-4.593 19.516,-11.99 30.72,-10.08 3.077,0.526 7.307,4.147 10.08,6.241 19.394,14.638 36.186,29.223 54.72,44.4 2.563,2.099 7.962,5.8 8.64,7.92 1.77,5.535 -1.465,16.013 -2.88,20.16" />
          </g>
        </g>
        <path
           style="opacity:0;fill:#c52927;fill-opacity:1;fill-rule:nonzero;stroke:#212121;stroke-width:0.69992793;stroke-linecap:round;stroke-linejoin:round;stroke-miterlimit:4;stroke-dasharray:none;stroke-opacity:1"
           d="m 170.81601,499.66335 c -4.16232,-0.49517 -8.70784,-1.76353 -12.8329,-3.58082 l -1.46868,-0.64703 -0.15937,-1.65819 c -0.74911,-7.79428 2.0387,-16.10349 8.11584,-24.18973 5.86103,-7.79867 13.68904,-14.32665 22.4236,-18.69962 10.26301,-5.13818 21.82313,-6.98304 32.85077,-5.24259 0.65976,0.10413 1.29112,0.2175 1.40304,0.25194 0.30016,0.0924 0.50686,2.06876 0.58444,5.58813 0.0732,3.32202 -0.0733,5.54623 -0.55483,8.42131 -1.31226,7.8352 -4.77696,15.33393 -10.04063,21.73122 -1.45236,1.76515 -5.44442,5.70515 -7.23879,7.14439 -6.50958,5.22124 -14.10664,8.81702 -22.09708,10.45882 -3.09109,0.63512 -7.70494,0.81243 -10.98541,0.42217 z"
           id="path1019"
           inkscape:connector-curvature="0"
           transform="matrix(0.75000002,0,0,-0.75000002,67.167954,673.65403)" />
        <path
           style="opacity:0;fill:#c52927;fill-opacity:1;fill-rule:nonzero;stroke:#212121;stroke-width:0.69992793;stroke-linecap:round;stroke-linejoin:round;stroke-miterlimit:4;stroke-dasharray:none;stroke-opacity:1"
           d="m 170.81601,499.66335 c -4.16232,-0.49517 -8.70784,-1.76353 -12.8329,-3.58082 l -1.46868,-0.64703 -0.15937,-1.65819 c -0.74911,-7.79428 2.0387,-16.10349 8.11584,-24.18973 5.86103,-7.79867 13.68904,-14.32665 22.4236,-18.69962 10.26301,-5.13818 21.82313,-6.98304 32.85077,-5.24259 0.65976,0.10413 1.29112,0.2175 1.40304,0.25194 0.30016,0.0924 0.50686,2.06876 0.58444,5.58813 0.0732,3.32202 -0.0733,5.54623 -0.55483,8.42131 -1.31226,7.8352 -4.77696,15.33393 -10.04063,21.73122 -1.45236,1.76515 -5.44442,5.70515 -7.23879,7.14439 -6.50958,5.22124 -14.10664,8.81702 -22.09708,10.45882 -3.09109,0.63512 -7.70494,0.81243 -10.98541,0.42217 z"
           id="path1021"
           inkscape:connector-curvature="0"
           transform="matrix(0.75000002,0,0,-0.75000002,67.167954,673.65403)" />
        <path
           style="opacity:0;fill:#c52927;fill-opacity:1;fill-rule:nonzero;stroke:#212121;stroke-width:0.69992793;stroke-linecap:round;stroke-linejoin:round;stroke-miterlimit:4;stroke-dasharray:none;stroke-opacity:1"
           d="m 170.84963,499.65261 c -4.06834,-0.45884 -10.53328,-2.33562 -13.71733,-3.98215 -0.7112,-0.36778 -0.84243,-1.11617 -0.81708,-4.65976 0.0695,-9.72251 5.04726,-19.34959 15.01518,-29.03986 9.27442,-9.01608 20.8842,-14.78147 33.28469,-16.52909 3.3955,-0.47853 10.83287,-0.43454 14.16125,0.0838 1.36415,0.21243 2.50179,0.4085 2.52809,0.43572 0.0263,0.0272 0.14619,1.00724 0.26641,2.17782 0.30365,2.95659 0.13293,8.65656 -0.34304,11.45285 -2.06288,12.11938 -8.6183,22.65083 -18.90286,30.36793 -6.68053,5.01278 -15.24647,8.61761 -22.86838,9.62377 -2.15337,0.28426 -6.39675,0.31829 -8.60693,0.069 z"
           id="path1023"
           inkscape:connector-curvature="0"
           transform="matrix(0.75000002,0,0,-0.75000002,67.167954,673.65403)" />
      </g>
    </g>
  </g>
</svg>
