<?xml version="1.0" encoding="UTF-8" standalone="no"?>
<svg
   xmlns:dc="http://purl.org/dc/elements/1.1/"
   xmlns:cc="http://creativecommons.org/ns#"
   xmlns:rdf="http://www.w3.org/1999/02/22-rdf-syntax-ns#"
   xmlns:svg="http://www.w3.org/2000/svg"
   xmlns="http://www.w3.org/2000/svg"
   xmlns:sodipodi="http://sodipodi.sourceforge.net/DTD/sodipodi-0.dtd"
   xmlns:inkscape="http://www.inkscape.org/namespaces/inkscape"
   id="Layer_1"
   data-name="Layer 1"
   viewBox="0 0 83.5 110.33731"
   version="1.1"
   sodipodi:docname="victor23-logo.svg"
   width="83.5"
   height="110.33731"
   inkscape:version="0.92.2 (unknown)">
  <metadata
     id="metadata29">
    <rdf:RDF>
      <cc:Work
         rdf:about="">
        <dc:format>image/svg+xml</dc:format>
        <dc:type
           rdf:resource="http://purl.org/dc/dcmitype/StillImage" />
      </cc:Work>
    </rdf:RDF>
  </metadata>
  <defs
     id="defs27" />
  <sodipodi:namedview
     pagecolor="#ffffff"
     bordercolor="#666666"
     borderopacity="1"
     objecttolerance="10"
     gridtolerance="10"
     guidetolerance="10"
     inkscape:pageopacity="0"
     inkscape:pageshadow="2"
     inkscape:window-width="1920"
     inkscape:window-height="1080"
     id="namedview25"
     showgrid="false"
     inkscape:zoom="5.3701431"
     inkscape:cx="64.074496"
     inkscape:cy="35.856237"
     inkscape:window-x="0"
     inkscape:window-y="0"
     inkscape:window-maximized="0"
     inkscape:current-layer="Layer_1" />
  <title
     id="title2">logo-victor23</title>
  <g
     transform="translate(-163.3,-382.16269)"
     id="g839"
     style="fill:#000000;fill-opacity:1">
    <path
       style="fill:#000000;fill-opacity:1"
       inkscape:connector-curvature="0"
       id="path10"
       d="m 179.1,430.5 a 22.4,22.4 0 0 0 7.6,-17.6 c -2.5,0.3 -5,0.5 -7.5,0.6 -2.5,0.1 -4.8,-0.4 -7.2,-0.3 a 7.9,7.9 0 0 0 -4.3,1.3 c -3.3,2.4 -3.7,7.7 -3.9,11.4 -0.2,3.7 -0.3,9.1 -0.5,9.5 5.4,1 11.6,-1.3 15.8,-4.9 z m 2.3,3.7 c -1.6,1.4 -4.3,2.2 -5.6,3.8 a 16.1,16.1 0 0 1 1.9,1.8 31.5,31.5 0 0 1 3.5,5.8 20.9,20.9 0 0 1 2.7,10.5 c 2.1,-5.4 6.7,-8.4 10.4,-12.6 a 46.5,46.5 0 0 1 -8.2,-14.1 c 0.3,0.6 -4.2,4.3 -4.7,4.8 z m 37.1,17.4 a 2,2 0 0 0 -0.1,-0.9 13.5,13.5 0 0 0 -1.2,-1.7 l -3.1,-2.6 a 1.8,1.8 0 0 0 -1.5,-0.6 1.8,1.8 0 0 0 -0.8,0.6 30.5,30.5 0 0 0 -2.8,4.1 c -1,1.8 -1.3,4.6 -3.2,4.2 -1.9,-0.4 -7.4,-8.6 -8.6,-8.7 -1.2,-0.1 -6.2,5.8 -7.6,7.1 2.9,7.7 9.4,12.2 15.1,20.5 7.2,-10 13.7,-18.3 13.8,-22 z m 18.2,-6.2 c -0.3,0.8 -2.9,6.6 -4.1,8.1 a 0.4,0.4 0 0 0 0.2,0.6 c 1.8,0.8 2.3,1.6 3.9,3.1 a 11.8,11.8 0 0 1 3.7,6.4 c 0.4,-6.6 4.8,-12.9 2.2,-19.7 -0.1,-0.3 -2.1,-5.1 -5.9,1.5 z M 225.8,460 a 42.7,42.7 0 0 0 4.3,-8.4 l 4.9,-11.4 a 1.9,1.9 0 0 0 0.2,-1.6 1.4,1.4 0 0 0 -0.7,-0.5 l -4.6,-2 A 7.2,7.2 0 0 1 228,435 l -1.8,-1.4 c -2.4,-2.2 -2.4,-1.3 -3.3,0.3 -0.9,1.6 -2.1,4.2 -4.5,6.2 a 7.9,7.9 0 0 0 -2.6,2.8 31.2,31.2 0 0 1 10,17.1 z" />
    <path
       style="fill:#000000;fill-opacity:1"
       inkscape:connector-curvature="0"
       id="path12"
       d="m 230.5,456.8 a 40.4,40.4 0 0 1 -5.4,8.3 c -1,-1.3 -1.2,-3.2 -1.7,-4.9 -0.5,-1.7 -1.8,-4.2 -3.6,-3.1 -1.8,1.1 -5.6,10.2 -6.3,11.3 -0.7,1.1 4.5,2.1 6.4,4.4 a 16.3,16.3 0 0 1 3.8,8 102.9,102.9 0 0 0 10.5,-18.8 2.1,2.1 0 0 0 0.2,-0.9 1.8,1.8 0 0 0 -0.4,-0.9 11.7,11.7 0 0 0 -3.5,-3.4 z M 212.4,471 c -3,3.1 -5.4,4.4 -8.1,7.9 1,-1.3 -6.4,-9.1 -7.5,-9.5 -1.1,-0.4 -6,4.3 -4.1,7.9 a 18.9,18.9 0 0 0 3.2,4 121.3,121.3 0 0 1 9.4,11.2 7.2,7.2 0 0 1 2.5,-5.1 55.5,55.5 0 0 0 4.1,-3.7 63.6,63.6 0 0 0 4.6,-7 1.4,1.4 0 0 0 0.2,-0.7 1.3,1.3 0 0 0 -0.3,-0.6 c -1.1,-1.7 -2.9,-2.7 -4,-4.4 z m -17.9,-3.9 a 1.3,1.3 0 0 0 -0.2,-0.8 c -1.7,-2.7 -7,-9.7 -7,-9.7 0,0 -2.4,2.6 -3.1,3.6 -0.7,1 -0.9,1.1 -1.4,0.8 a 1.3,1.3 0 0 1 -0.4,-0.6 c -0.7,-1.8 -0.6,-5.7 -2.8,-5 a 3.8,3.8 0 0 0 -2.7,4.9 69.8,69.8 0 0 0 4.9,10.6 c 1.4,2.4 2.9,4.8 3,7.7 1.3,-4.7 5.1,-7.8 8.8,-10.2 a 1.7,1.7 0 0 0 0.9,-1.3 z m -17.8,-57.9 a 31.3,31.3 0 0 0 8.9,0.2 12.4,12.4 0 0 0 8,-4.6 c 5.7,4.4 9.3,12 12.7,19.3 0.4,-3.9 3.6,-6.2 5.7,-9.2 2.1,-3 3,-6.8 4,-10.5 0.4,-1.5 1.4,-3.3 2.6,-2.7 a 2.7,2.7 0 0 1 0.8,0.9 c 5.9,8.5 16.5,11.2 24.8,6.3 -3.1,1.1 -6.3,0.2 -9.4,-0.8 a 20.6,20.6 0 0 1 -6.8,-3.2 10.5,10.5 0 0 1 -4,-7.2 7,7 0 0 0 -0.3,-2 3.2,3.2 0 0 0 -1.4,-1.5 c -4.4,-2.6 -9.5,-1.5 -14.4,-1.2 a 1.4,1.4 0 0 1 -1.3,-0.4 2.4,2.4 0 0 1 -0.3,-1.3 c -0.3,-5.3 -0.1,-3.8 0.8,-9 a 19.4,19.4 0 0 0 -6.4,0.3 c 2.7,5.3 2.3,5.2 1.6,11.4 -2.3,-3.4 -6.9,-2.2 -9.8,0.5 -2.9,2.7 -5.1,6.6 -8.2,8.7 a 10.8,10.8 0 0 1 -6,1.8 c -2.1,0 -4.3,-1.5 -6.2,-1.3 -1.9,0.2 -2.4,0.5 -1.4,2.7 1,2.2 4.4,2.6 6,2.8 z" />
    <path
       style="fill:#000000;fill-opacity:1"
       inkscape:connector-curvature="0"
       id="path14"
       d="m 205.8,450.4 a 14.9,14.9 0 0 1 5.2,-9.8 c 1.7,-1.3 3.6,-2.2 5.2,-3.6 1.6,-1.4 4.5,-7.5 4.6,-12 0.1,-4.5 -0.9,-8.9 -1.9,-13.2 -2.6,7.8 -9.5,12.6 -12.9,19.9 -1.6,-3.2 -9.8,-23.2 -13.4,-21 a 5,5 0 0 0 -1.6,2.1 22.5,22.5 0 0 0 0.1,19.3 c 3.7,7.2 11,11.1 14.7,18.3 z m 36.2,-34.3 -1.1,-0.3 h -0.3 l -0.9,-0.3 c -9,0 -15.7,-4.1 -15.7,-3.6 -0.2,2.7 0.6,7.8 0.3,10.8 a 8.3,8.3 0 0 0 0,3.4 5.3,5.3 0 0 0 1.6,2.1 46,46 0 0 0 20.9,11.6 c -1,-0.2 -1.2,-2.3 -1.1,-3 0.2,-5.5 2,-13.4 -1,-18.4 a 4.9,4.9 0 0 0 -2.7,-2.3 z m -63.1,34.4 c 0.4,-0.9 -0.4,-2.5 -0.8,-3.3 a 12.4,12.4 0 0 0 -3.4,-4.6 13.4,13.4 0 0 0 -3.5,-2.6 4.7,4.7 0 0 0 -3.1,-0.6 4.5,4.5 0 0 0 -2.8,2.7 c -3.2,6 0.5,12.4 1.1,13.5 0.6,1.1 5.4,6.9 5.4,6.9 0,0 0.9,-7.2 4,-8.9 a 8.9,8.9 0 0 0 3.1,-3.1 z" />
  </g>
</svg>
