<?xml version="1.0" encoding="UTF-8" standalone="no"?>
<!-- Created with Inkscape (http://www.inkscape.org/) -->

<svg
   xmlns:dc="http://purl.org/dc/elements/1.1/"
   xmlns:cc="http://creativecommons.org/ns#"
   xmlns:rdf="http://www.w3.org/1999/02/22-rdf-syntax-ns#"
   xmlns:svg="http://www.w3.org/2000/svg"
   xmlns="http://www.w3.org/2000/svg"
   xmlns:sodipodi="http://sodipodi.sourceforge.net/DTD/sodipodi-0.dtd"
   xmlns:inkscape="http://www.inkscape.org/namespaces/inkscape"
   width="5.6000023cm"
   height="7.164557cm"
   viewBox="0 0 56.00002 71.645569"
   version="1.1"
   id="svg8"
   inkscape:version="0.92.2 (unknown)"
   sodipodi:docname="sloth-beer.svg"
   inkscape:export-filename="/home/fabio/Documents/Graphics/seven-sins-labels/sloth-beer.png"
   inkscape:export-xdpi="300"
   inkscape:export-ydpi="300">
  <defs
     id="defs2">
    <clipPath
       clipPathUnits="userSpaceOnUse"
       id="clipPath37">
      <path
         d="m 0,841.89 595.28,0 L 595.28,0 0,0 Z"
         id="path35"
         inkscape:connector-curvature="0" />
    </clipPath>
    <clipPath
       clipPathUnits="userSpaceOnUse"
       id="clipPath49">
      <path
         d="m 0,841.89 595.28,0 L 595.28,0 0,0 Z"
         id="path47-7"
         inkscape:connector-curvature="0" />
    </clipPath>
    <clipPath
       clipPathUnits="userSpaceOnUse"
       id="clipPath117">
      <path
         d="m 0,841.89 595.28,0 L 595.28,0 0,0 Z"
         id="path115"
         inkscape:connector-curvature="0" />
    </clipPath>
    <clipPath
       clipPathUnits="userSpaceOnUse"
       id="clipPath149">
      <path
         d="m 0,841.89 595.28,0 L 595.28,0 0,0 Z"
         id="path147"
         inkscape:connector-curvature="0" />
    </clipPath>
    <clipPath
       clipPathUnits="userSpaceOnUse"
       id="clipPath165">
      <path
         d="m 0,841.89 595.28,0 L 595.28,0 0,0 Z"
         id="path163"
         inkscape:connector-curvature="0" />
    </clipPath>
    <clipPath
       clipPathUnits="userSpaceOnUse"
       id="clipPath181">
      <path
         d="m 0,841.89 595.28,0 L 595.28,0 0,0 Z"
         id="path179"
         inkscape:connector-curvature="0" />
    </clipPath>
  </defs>
  <sodipodi:namedview
     id="base"
     pagecolor="#f8ecc2"
     bordercolor="#666666"
     borderopacity="1.0"
     inkscape:pageopacity="1"
     inkscape:pageshadow="2"
     inkscape:zoom="3.1311762"
     inkscape:cx="122.43792"
     inkscape:cy="139.75865"
     inkscape:document-units="mm"
     inkscape:current-layer="layer1"
     showgrid="false"
     inkscape:window-width="1920"
     inkscape:window-height="1080"
     inkscape:window-x="0"
     inkscape:window-y="0"
     inkscape:window-maximized="1"
     fit-margin-top="0.3"
     fit-margin-left="0.3"
     fit-margin-right="0.3"
     fit-margin-bottom="0.3"
     inkscape:pagecheckerboard="true"
     showborder="true"
     units="cm" />
  <metadata
     id="metadata5">
    <rdf:RDF>
      <cc:Work
         rdf:about="">
        <dc:format>image/svg+xml</dc:format>
        <dc:type
           rdf:resource="http://purl.org/dc/dcmitype/StillImage" />
        <dc:title />
      </cc:Work>
    </rdf:RDF>
  </metadata>
  <g
     inkscape:label="Layer 1"
     inkscape:groupmode="layer"
     id="layer1"
     transform="translate(-78.299574,-105.60129)">
    <path
       style="fill:#000000;fill-opacity:1;stroke-width:0.26458335"
       d="m 89.254053,174.22588 c -0.555941,-0.0997 -0.711613,-0.33026 -0.647255,-0.95841 0.04116,-0.40175 0.03572,-0.42306 -0.157406,-0.61618 -0.269199,-0.2692 -0.577993,-0.26739 -1.061216,0.006 -0.198045,0.11214 -0.494918,0.27125 -0.65972,0.35358 -0.646395,0.39028 -1.303377,0.88962 -2.076849,1.06909 -0.445373,0.0941 -1.077463,0.0891 -1.456333,-0.0114 -0.384047,-0.10192 -1.190625,-0.65383 -1.402637,-0.95976 -0.09074,-0.13094 -0.24078,-0.42824 -0.33342,-0.66067 -0.150124,-0.37666 -0.165782,-0.49377 -0.144022,-1.07729 0.02041,-0.54749 0.05233,-0.70873 0.194918,-0.98467 0.214573,-0.41525 0.681051,-0.84997 1.010106,-0.94134 0.554031,-0.15384 0.813938,-0.0776 1.274039,0.37363 0.372607,0.36544 0.710031,0.35877 0.889497,-0.0176 0.167308,-0.35085 0.07971,-0.50575 -0.591103,-1.0453 -0.439976,-0.35388 -0.662752,-0.58639 -0.801093,-0.83609 l -0.191627,-0.34588 0,-26.15504 0,-26.15502 0.196408,-0.35529 c 0.145115,-0.2625 0.354391,-0.48112 0.80135,-0.83712 0.63057,-0.50224 0.74232,-0.67737 0.603396,-0.94561 -0.24685,-0.47663 -0.423851,-0.48717 -0.942193,-0.0561 -0.622778,0.51794 -1.062846,0.52487 -1.697528,0.0267 -0.553085,-0.4341 -0.76172,-0.89874 -0.761791,-1.69655 -7.2e-5,-0.82195 0.239856,-1.41889 0.772716,-1.92252 1.016024,-0.96029 2.34429,-0.99052 3.908293,-0.0889 0.108026,0.0623 0.500405,0.29752 0.871953,0.52278 0.88702,0.53777 1.325801,0.60722 1.652565,0.26157 0.122737,-0.12982 0.133785,-0.19574 0.09701,-0.57874 -0.04154,-0.4326 0.03967,-0.77895 0.182645,-0.77895 0.03639,0 0.121245,-0.0498 0.188554,-0.11076 0.101079,-0.0915 0.249213,-0.10906 0.850951,-0.10101 1.088164,0.0146 2.121168,0.2049 3.816244,0.70316 0.288064,0.0847 0.818367,0.21856 1.178449,0.29751 0.36008,0.0789 0.831459,0.18823 1.047509,0.24285 0.515064,0.13022 1.291229,0.2607 2.062285,0.34671 0.534621,0.0596 0.677121,0.0535 1.014777,-0.0436 0.216048,-0.0621 0.481198,-0.17748 0.589225,-0.25635 0.116792,-0.0789 0.383227,-0.20419 0.54012,-0.31746 0.30423,-0.21275 0.58454,-0.37434 0.85733,-0.53644 0.33578,-0.20057 0.87338,-0.27401 1.20492,-0.16459 0.27823,0.0918 0.54443,0.45149 0.60969,0.82378 0.0735,0.41935 0.13421,0.49102 0.41578,0.49102 0.28666,-0.0252 0.5566,-0.21244 0.75769,-0.37645 0.73184,-0.61923 1.10959,-0.83425 1.59296,-0.90674 0.33959,-0.0509 0.57489,0.0409 0.67652,0.26393 l 0.0734,0.16111 0.14261,-0.20925 c 0.13308,-0.19527 0.16701,-0.20877 0.50784,-0.20212 0.41159,0.008 0.86,0.19237 1.24399,0.51135 0.13353,0.11093 0.33932,0.2827 0.45731,0.38172 0.23475,0.16602 0.55766,0.36958 0.80732,0.37645 0.25541,0 0.28655,-0.0182 0.35207,-0.20617 0.0395,-0.1134 0.0719,-0.29959 0.0719,-0.41376 0,-0.24231 0.26964,-0.5804 0.547,-0.68585 0.29487,-0.11211 0.70688,-0.0785 1.057,0.0862 0.3338,0.15703 1.21665,0.68167 1.57126,0.93372 0.10803,0.0768 0.37318,0.18864 0.58923,0.24857 0.33288,0.0923 0.48772,0.0985 1.01477,0.0402 0.76772,-0.0848 1.54473,-0.21521 2.06229,-0.34606 0.21605,-0.0546 0.68743,-0.16432 1.04751,-0.24379 0.36008,-0.0795 0.89038,-0.21477 1.17845,-0.30068 1.66549,-0.4967 2.66748,-0.68192 3.76865,-0.69663 0.86791,-0.0177 1.27815,0.14345 1.27249,0.96093 0,0.57243 0.002,0.58076 0.19641,0.70343 0.34561,0.21845 0.75322,0.12855 1.47635,-0.32561 1.61923,-1.01694 2.43661,-1.30775 3.33565,-1.18676 0.62232,0.0837 1.04875,0.28135 1.51254,0.70089 0.3002,0.27156 0.40381,0.42458 0.57049,0.84255 0.26986,0.67674 0.31822,1.12005 0.18073,1.65671 -0.14512,0.56645 -0.27103,0.76279 -0.7225,1.12657 -0.63594,0.51243 -1.10789,0.5073 -1.72237,-0.0187 -0.3991,-0.34163 -0.58579,-0.39312 -0.75349,-0.2078 -0.47142,0.59395 -0.002,0.87045 0.40415,1.19296 0.62239,0.49096 0.90309,0.8372 0.9931,1.22499 0.0767,0.33044 0.0767,51.95546 0,52.2859 -0.0888,0.38254 -0.35092,0.70717 -0.96216,1.19156 -0.62052,0.49176 -0.72084,0.65566 -0.60892,0.99481 0.14378,0.43565 0.53218,0.44788 0.9525,0.03 0.31835,-0.31651 0.48244,-0.40395 0.75721,-0.40349 0.39933,7.4e-4 0.72039,0.13685 1.05395,0.44702 0.38323,0.35637 0.53833,0.66792 0.64388,1.29338 0.0967,0.57327 0.0152,0.99667 -0.32074,1.66481 -0.22028,0.43815 -0.29326,0.51895 -0.76719,0.84947 -0.29354,0.20472 -0.66086,0.4002 -0.83567,0.44475 -0.38867,0.099 -0.98429,0.10198 -1.42685,0.007 -0.41773,-0.0896 -1.20888,-0.44504 -1.47036,-0.66062 -0.1074,-0.0886 -0.35732,-0.25031 -0.55536,-0.35947 -0.19805,-0.10916 -0.52212,-0.29046 -0.72017,-0.4029 -0.42412,-0.24079 -0.71624,-0.26037 -1.02625,-0.0688 -0.32205,0.13719 -0.20588,0.35891 -0.18119,0.67106 0.0417,0.52794 0.0403,0.53477 -0.15003,0.71497 -0.41847,0.39616 -1.67762,0.3561 -3.58546,-0.11407 -1.20602,-0.29721 -1.76118,-0.43908 -2.45511,-0.62736 -1.46947,-0.39871 -2.10642,-0.51785 -3.10082,-0.57998 -0.89974,-0.0562 -1.09822,-0.0199 -1.71775,0.31491 -0.0396,0.0214 -0.19899,0.12731 -0.35416,0.23533 -0.46283,0.32223 -0.61607,0.4218 -0.71951,0.46752 -0.054,0.0239 -0.1424,0.0784 -0.19641,0.12111 -0.18495,0.14633 -0.85356,0.31194 -1.09875,0.27215 -0.3796,-0.0616 -0.67836,-0.40872 -0.73949,-0.85919 -0.0567,-0.41822 -0.1445,-0.55808 -0.35015,-0.55808 -0.1549,0 -0.81511,0.30632 -0.92141,0.42751 -0.14665,0.16721 -0.67454,0.55249 -0.97542,0.71193 -0.22713,0.12035 -0.4182,0.16934 -0.65469,0.16787 -0.34446,-0.002 -0.48943,-0.0704 -0.60917,-0.28683 -0.0676,-0.12224 -0.0703,-0.12208 -0.11108,0.006 -0.13539,0.42659 -1.13557,0.33792 -1.68116,-0.14903 -0.0569,-0.0507 -0.11943,-0.0923 -0.13908,-0.0923 -0.0196,0 -0.14981,-0.10451 -0.28927,-0.23225 -0.31353,-0.28718 -0.88024,-0.57111 -1.0823,-0.54223 -0.1526,0.0218 -0.16325,0.043 -0.31731,0.63286 -0.0408,0.15616 -0.17313,0.39185 -0.29408,0.52376 -0.20571,0.22432 -0.24463,0.23969 -0.6022,0.23779 -0.48934,-0.003 -0.69546,-0.088 -1.48387,-0.61456 -0.826392,-0.55194 -0.72857,-0.49734 -1.220695,-0.68137 -0.401819,-0.15026 -0.469819,-0.1562 -1.219327,-0.10649 -1.003494,0.0666 -1.65504,0.18933 -3.101653,0.58444 -0.414094,0.1131 -0.929664,0.24573 -1.145712,0.29473 -0.21605,0.049 -0.731621,0.17632 -1.145715,0.28293 -0.414094,0.10661 -0.914936,0.21577 -1.11298,0.24259 -0.198044,0.0268 -0.419003,0.0707 -0.491019,0.0976 -0.200701,0.0749 -1.342014,0.12564 -1.636736,0.0728 z m 12.602857,-0.85806 c 0.17763,-0.17763 0.16727,-0.22991 -0.0982,-0.49538 -0.1907,-0.1907 -0.22914,-0.27629 -0.22914,-0.51017 0,-0.29285 0.11762,-0.45796 0.44762,-0.62836 0.44609,-0.23034 1.52737,0.2276 2.59621,1.09953 0.4377,0.35707 1.08074,0.49776 1.08074,0.23647 0,-0.25777 0.46617,-0.1176 0.55661,0.16736 0.0396,0.12488 0.0534,0.11899 0.18726,-0.0801 0.18476,-0.27485 0.38037,-0.30739 0.52461,-0.0873 0.0602,0.0918 0.16028,0.16522 0.22246,0.1631 0.17262,-0.006 0.59477,-0.24688 1.25481,-0.7163 0.85509,-0.60814 1.13834,-0.75039 1.61417,-0.81066 0.72197,-0.0915 1.24968,0.41204 0.97948,0.93455 -0.0579,0.1119 -0.13316,0.20345 -0.16732,0.20345 -0.0342,0 -0.10569,0.0843 -0.15897,0.18731 -0.089,0.1721 -0.0863,0.19869 0.0336,0.32735 0.18805,0.20185 0.40917,0.17355 0.82412,-0.10547 0.20081,-0.13503 0.45297,-0.29489 0.56034,-0.35525 0.10738,-0.0603 0.25837,-0.16889 0.33554,-0.24119 0.62815,-0.51258 1.43679,-0.63203 2.13712,-0.62512 0.95034,0.006 2.35581,0.1162 2.84792,0.22331 0.96653,0.21035 3.77103,0.30478 4.37008,0.14714 0.17104,-0.045 0.45092,-0.11588 0.62196,-0.1575 0.17104,-0.0416 0.39167,-0.11585 0.49029,-0.16497 0.0986,-0.0491 0.41546,-0.1211 0.70409,-0.15995 0.60395,-0.0813 0.83125,-0.045 1.93179,0.30821 0.96549,0.30988 1.98782,0.45475 2.837,0.40203 0.47095,-0.0292 0.62862,-0.0692 0.92748,-0.23529 0.97235,-0.54023 1.29631,-1.79451 0.5768,-2.23318 -0.38019,-0.2318 -0.51703,-0.18482 -0.97875,0.33598 -0.41704,0.4704 -0.78642,0.70698 -1.10384,0.70698 -0.23665,0 -0.69353,-0.2236 -0.89084,-0.43597 -0.33386,-0.35933 -0.43898,-0.65809 -0.39548,-1.12391 0.0669,-0.71583 0.3545,-1.02303 1.43554,-1.53309 0.69101,-0.32603 0.95143,-0.50107 1.07601,-0.72325 0.062,-0.11055 0.08,-5.82706 0.0817,-25.93674 0.002,-24.42945 -0.004,-25.80707 -0.11225,-26.02402 -0.11268,-0.22549 -0.34962,-0.37196 -1.31785,-0.81464 -0.72177,-0.33001 -1.09768,-0.77826 -1.16104,-1.3845 -0.0355,-0.33949 -0.0186,-0.43682 0.12443,-0.71723 0.22385,-0.43884 0.47253,-0.65263 0.87604,-0.75315 0.54358,-0.1354 0.83358,0.0101 1.55247,0.77902 0.20884,0.22337 0.29612,0.27127 0.49101,0.26948 0.27382,-0.003 0.4679,-0.14291 0.62947,-0.45536 0.36204,-0.7001 -0.3991,-1.90603 -1.32525,-2.09972 -0.42191,-0.0882 -1.71041,-0.0438 -2.14424,0.074 -0.64285,0.12166 -1.33589,0.30197 -1.80041,0.47903 -0.59948,0.22954 -1.79572,0.14196 -2.52057,-0.18454 -0.40063,-0.18046 -1.08065,-0.29909 -1.71295,-0.29883 -0.71409,3e-4 -2.64003,0.1609 -3.09905,0.25843 -0.44773,0.0951 -1.5521,0.19282 -2.71698,0.24035 -1.22554,0.0692 -2.00223,-0.20557 -2.88381,-0.93597 -0.38388,-0.32124 -0.91332,-0.56755 -1.11247,-0.51757 -0.39123,0.18903 -0.13464,0.56071 -0.0259,0.70605 0.2962,0.39394 0.30168,0.61367 0.0225,0.90137 -0.4855,0.33633 -1.20047,0.12129 -1.62143,-0.0941 -0.25717,-0.13242 -0.73829,-0.4406 -1.06915,-0.68483 -0.85513,-0.63122 -1.15894,-0.72819 -1.24543,-0.39747 -0.0523,0.2001 -0.31598,0.16622 -0.48494,-0.0623 l -0.14263,-0.19292 -0.18021,0.19292 c -0.21496,0.23012 -0.39994,0.24753 -0.4886,0.046 -0.0355,-0.0808 -0.11018,-0.15546 -0.16586,-0.1659 -0.15595,-0.0292 -0.78314,0.27667 -0.93242,0.45479 -0.29058,0.34673 -1.37921,0.94572 -1.88567,1.03756 -0.49185,0.0892 -0.81121,0.03 -0.97725,-0.18108 -0.20407,-0.25944 -0.16903,-0.57171 0.0994,-0.88525 0.12603,-0.14724 0.22914,-0.30659 0.22914,-0.35412 0,-0.11646 -0.23843,-0.3483 -0.35821,-0.3483 -0.20132,0 -0.82223,0.32641 -1.09378,0.575 -0.17462,0.13077 -0.11445,0.0767 -0.42162,0.30197 -0.289382,0.21028 -0.620598,0.35033 -0.936436,0.47407 -0.423645,0.16977 -0.448355,0.17189 -1.510933,0.12994 -1.179298,-0.0466 -2.223482,-0.13993 -2.684246,-0.24002 -0.436003,-0.0947 -2.426662,-0.25821 -3.148491,-0.25859 -0.369557,-2e-4 -0.760161,0.0398 -0.949307,0.0972 -0.805307,0.15217 -1.634224,0.49794 -2.350937,0.51922 -0.38393,0.003 -0.619883,-0.0333 -0.883835,-0.13515 -0.466235,-0.17983 -0.805824,-0.27771 -1.211183,-0.3491 -0.180042,-0.0317 -0.445193,-0.0898 -0.589225,-0.12904 -0.144034,-0.0393 -0.630473,-0.0897 -1.080981,-0.11207 -0.650192,-0.0323 -0.893564,-0.019 -1.180205,0.0643 -0.885318,0.25737 -1.509449,1.31331 -1.206462,2.04116 0.166373,0.39966 0.275699,0.49102 0.587616,0.49102 0.288667,0 0.256282,0.0239 0.89378,-0.66007 0.120218,-0.12898 0.360975,-0.28859 0.535015,-0.35469 0.280103,-0.10638 0.355274,-0.11052 0.654693,-0.036 0.598241,0.1488 1.049709,0.72723 1.050107,1.34542 2.47e-4,0.398 -0.138672,0.67901 -0.513833,1.03934 -0.27831,0.2673 -0.451542,0.36822 -1.278261,0.74466 -0.234054,0.10658 -0.499204,0.25438 -0.589224,0.32845 l -0.163674,0.13468 0,26.06635 0,26.06634 0.163674,0.13248 c 0.09002,0.0729 0.499064,0.29507 0.908986,0.4938 0.909106,0.44073 1.264188,0.76851 1.422522,1.31316 0.123647,0.42533 0.07735,0.65751 -0.226686,1.13689 -0.136883,0.21583 -0.289837,0.35055 -0.538874,0.47466 -0.408806,0.20371 -0.58799,0.21316 -0.947347,0.0499 -0.260694,-0.11841 -0.374149,-0.22182 -0.852383,-0.77685 -0.177155,-0.20561 -0.28822,-0.27825 -0.425449,-0.27825 -0.313258,0 -0.495867,0.12887 -0.650531,0.45909 -0.193283,0.41266 -0.143463,0.75532 0.188245,1.2947 0.20423,0.3321 0.319214,0.44235 0.636293,0.61012 0.340492,0.18016 0.465728,0.20829 1.041714,0.23398 0.637355,0.0284 1.598289,-0.077 2.144122,-0.23527 0.135032,-0.0392 0.355989,-0.10231 0.491021,-0.14035 0.13503,-0.038 0.333893,-0.0952 0.441916,-0.12701 0.810637,-0.23879 1.087739,-0.27394 1.607694,-0.20397 0.286841,0.0386 0.602218,0.10973 0.700836,0.15806 0.202671,0.0993 0.522811,0.19252 1.09588,0.31903 2.582517,0.3655 5.170532,-0.47803 7.716632,-0.39331 0.51684,0.0271 1.156543,0.28238 1.612167,0.64324 0.13672,0.10828 0.26241,0.19687 0.27932,0.19687 0.0169,0 0.24836,0.14662 0.51433,0.32581 0.52838,0.35599 0.76792,0.40464 0.97461,0.19795 z"
       id="path3746"
       inkscape:connector-curvature="0"
       sodipodi:nodetypes="cccccccccccccccccccsccsscscsccscscscscccccsccscccsccccsccccscsscccsscccssccccccccccscccccccccsssccccccsccccccscccccccccccccccccsccsccccsscscccccccccccccccssccccccsccsccssccscscccccccccccccssccsscccsccccsccsccscsccccccccccsccccscccccccccssccscc" />
    <flowRoot
       xml:space="preserve"
       id="flowRoot24"
       style="font-style:normal;font-variant:normal;font-weight:normal;font-stretch:normal;line-height:0.01%;font-family:'Carnivalee Freakshow';-inkscape-font-specification:'Carnivalee Freakshow';letter-spacing:0px;word-spacing:0px;fill:#000000;fill-opacity:1;stroke:none"
       transform="translate(77.332794,-106.90122)"><flowRegion
         id="flowRegion26"
         style="font-style:normal;font-variant:normal;font-weight:normal;font-stretch:normal;font-family:'Carnivalee Freakshow';-inkscape-font-specification:'Carnivalee Freakshow'"><rect
           id="rect28"
           width="56.911968"
           height="19.795467"
           x="37.627293"
           y="267.74664"
           style="font-style:normal;font-variant:normal;font-weight:normal;font-stretch:normal;font-family:'Carnivalee Freakshow';-inkscape-font-specification:'Carnivalee Freakshow'" /></flowRegion><flowPara
         id="flowPara30"
         style="font-size:9.89773369px;line-height:1.25"> </flowPara></flowRoot>    <flowRoot
       xml:space="preserve"
       id="flowRoot52"
       style="font-style:normal;font-variant:normal;font-weight:normal;font-stretch:normal;line-height:0.01%;font-family:RickGriffin;-inkscape-font-specification:RickGriffin;letter-spacing:0px;word-spacing:0px;fill:#000000;fill-opacity:1;stroke:none"
       transform="translate(77.332794,-106.90122)"><flowRegion
         id="flowRegion54"><rect
           id="rect56"
           width="62.92131"
           height="23.330372"
           x="36.920311"
           y="365.66351" /></flowRegion><flowPara
         id="flowPara58"
         style="font-size:9.89773369px;line-height:1.25"> </flowPara></flowRoot>    <g
       id="g119"
       transform="matrix(0.24744334,0,0,0.24744334,80.318022,106.59625)">
      <g
         id="g4658">
        <g
           id="g4436">
          <g
             id="g977"
             transform="translate(-3.8716191e-6,2.8976469)">
            <g
               aria-label="SINS"
               style="font-style:normal;font-variant:normal;font-weight:normal;font-stretch:normal;font-size:10.58333302px;line-height:1.25;font-family:RickGriffin;-inkscape-font-specification:RickGriffin;letter-spacing:0px;word-spacing:0px;fill:#e32927;fill-opacity:1;stroke:#000000;stroke-width:0.12429447;stroke-linecap:round;stroke-linejoin:round;stroke-miterlimit:4;stroke-dasharray:none;stroke-opacity:1"
               id="text30"
               transform="matrix(4.8771227,0,0,4.8771227,-245.68783,-466.90828)">
              <path
                 d="m 66.223996,118.74915 q 0.07408,-0.0318 0.105833,-0.0318 0.05292,0 -0.05292,0.27517 -0.15875,0.39158 -0.15875,0.70908 0,0.32808 0.09525,0.42333 0.05292,0.11642 -0.137584,0.11642 -0.105833,0 -0.1905,-0.11642 -0.08467,-0.127 -0.08467,-0.29633 0,-0.11642 0.09525,-0.27517 0.09525,-0.16933 0.09525,-0.23283 0,-0.11642 -0.179917,-0.21167 -0.05292,-0.0212 -0.137583,-0.0212 -0.116417,0 -0.41275,0.0635 -0.28575,0.0635 -0.41275,0.0635 -0.232834,0 -0.232834,-0.20109 0,-0.20108 0.201084,-0.47625 0.211666,-0.27516 0.211666,-0.381 0,-0.0423 -0.02117,-0.0847 -0.0635,-0.15875 -0.3175,-0.15875 -0.264584,0 -0.709084,0.15875 -0.529166,0.1905 -0.6985,0.46566 -0.116416,0.20109 -0.116416,0.67734 0,0.48683 0.254,0.73025 0.08467,0.0847 0.34925,0.10583 0.1905,0.0212 0.1905,0.16933 0,0.0952 -0.05292,0.1905 -0.05292,0.0952 -0.05292,0.127 0,0.0741 0.105834,0.16934 0.0635,0.0635 0.338666,0.27516 0.359834,0.26459 0.73025,0.52917 0.423334,0.27517 0.98425,0.51858 0.232834,0.10584 0.232834,0.34925 0,0.0741 -0.04233,0.32809 -0.03175,0.24341 -0.03175,0.41275 0,0.24341 0.179917,1.02658 0.179917,0.77258 0.179917,1.15358 0,0.59267 -0.359834,0.81492 -0.582083,0.17992 -0.804333,0.17992 -0.137583,0 -0.677333,-0.0106 -0.41275,-0.0212 -0.709084,0 -0.423333,0.0212 -0.878416,0.10584 -0.127,0.0212 -0.22225,0 -0.34925,-0.0847 -0.624417,-0.5715 -0.275167,-0.49742 -0.53975,-0.59267 -0.08467,-0.0318 -0.08467,-0.127 0,-0.11642 0.08467,-0.21167 0.22225,-0.254 0.22225,-0.74083 0,-0.29633 -0.127,-0.46567 -0.05292,-0.0741 -0.05292,-0.13758 0,-0.127 0.148167,-0.127 0.306917,0 0.719667,-0.34925 0.359833,-0.34925 0.719666,-0.68792 0.07408,-0.0635 0.169334,-0.0635 0.211666,0 0.402166,0.20109 0.09525,0.127 0.1905,0.254 0.148167,0.15875 0.338667,0.254 0.01058,0.0106 -0.07408,0.15875 -0.05292,0.0741 -0.306917,0 -0.07408,-0.0318 -0.34925,-0.21167 -0.232833,-0.15875 -0.391583,-0.15875 -0.148167,0 -0.296334,0.10583 -0.381,0.34925 -0.381,1.16417 0,0.49742 0.15875,0.87842 0.328084,0.77258 1.11125,0.93133 0.169334,0.0318 0.28575,0.0318 0.243417,0 0.592667,-0.1905 0.6985,-0.381 0.6985,-1.74625 0,-0.66675 -0.08467,-1.00542 -0.15875,-0.59266 -0.613833,-0.84666 -0.709083,-0.40217 -1.629833,-1.21709 -0.22225,-0.20108 -0.423334,-0.254 -0.116416,-0.0318 -0.465666,-0.0318 -0.09525,-0.0106 -0.15875,-0.0212 -0.169334,-0.0635 -0.169334,-0.15875 0,-0.14817 0.169334,-0.23284 0.66675,-0.21166 0.66675,-1.12183 0,-0.29633 -0.07408,-0.64558 -0.05292,-0.21167 -0.296333,-0.381 -0.243417,-0.16934 -0.560917,-0.21167 l -0.03175,-0.0212 q 0.08467,-0.254 0.296334,-0.23283 0.889,0.254 1.30175,0.254 0.28575,0 0.53975,-0.0635 0.328083,-0.0423 0.613833,-0.0952 0.6985,-0.13758 1.132417,-0.3175 0.201083,-0.0635 0.201083,0.30692 0,0.22225 -0.127,0.381 -0.15875,0.16933 -0.3175,0.33866 -0.211667,0.24342 -0.211667,0.34925 0,0.0635 0.0635,0.0952 0.116417,0.0423 0.28575,0.0423 0.306917,0 0.624417,-0.14817 z"
                 style="fill:#e32927;fill-opacity:1;stroke:#000000;stroke-width:0.12429447;stroke-linecap:round;stroke-linejoin:round;stroke-miterlimit:4;stroke-dasharray:none;stroke-opacity:1"
                 id="path43"
                 inkscape:connector-curvature="0" />
              <path
                 d="m 70.243678,125.52248 q -0.01058,0.0212 -0.02117,0.0423 -0.1905,0.46566 -0.338666,0.60325 -0.211667,0.1905 -0.66675,0.1905 -0.22225,0 -0.656167,-0.0529 -0.423333,-0.0423 -0.645583,-0.0423 -0.169334,0 -0.465667,0.0635 -0.296333,0.0741 -0.28575,0.0741 -0.0635,0 -0.0635,-0.0423 0,-0.0212 0.02117,-0.0318 0.148166,-0.10584 0.4445,-0.35984 0.762,-0.80433 0.762,-2.74108 0,-0.24342 -0.02117,-0.74083 -0.01058,-0.49742 -0.01058,-0.74084 0,-0.79375 -0.423334,-1.05833 -0.03175,-0.0212 -0.34925,-0.10583 -0.264583,-0.0635 -0.264583,-0.127 0,-0.16934 0.3175,-0.23284 0.381,-0.0847 0.465667,-0.15875 0.232833,-0.23283 0.232833,-0.78316 0,-0.61384 -0.03175,-0.75142 -0.08467,-0.35983 -0.4445,-0.5715 -0.03175,-0.0212 -0.306917,-0.0952 -0.232833,-0.0529 -0.232833,-0.10583 0,-0.0953 0.105833,-0.15875 0.116417,-0.0741 0.22225,-0.0741 0.148167,0 0.4445,0.0847 0.306917,0.0741 0.47625,0.0741 0.28575,0 0.740834,-0.11641 0.465666,-0.127 0.624416,-0.127 0.338667,0 0.338667,0.381 0,0.0212 -0.02117,0.0212 -0.04233,0 -0.15875,-0.0318 -0.116416,-0.0318 -0.179916,-0.0318 -0.497417,0 -0.79375,0.28575 -0.28575,0.27517 -0.28575,0.77259 0,0.29633 0.05292,0.635 0.05292,0.32808 0.328084,0.51858 0.127,0.0953 0.486833,0.23283 0.254,0.0952 0.254,0.1905 0,0.0635 -0.370417,0.1905 -0.370416,0.127 -0.4445,0.40217 -0.201083,0.75142 -0.201083,1.75683 0,1.47109 0.5715,2.23309 0.359833,0.48683 0.762,0.48683 0.03175,0 0.03175,0.0423 z"
                 style="fill:#e32927;fill-opacity:1;stroke:#000000;stroke-width:0.12429447;stroke-linecap:round;stroke-linejoin:round;stroke-miterlimit:4;stroke-dasharray:none;stroke-opacity:1"
                 id="path45"
                 inkscape:connector-curvature="0" />
              <path
                 d="m 76.851647,125.94582 q -0.08467,0.127 -0.169333,0.24341 -0.08467,0.127 -0.243417,0.0953 -0.381,-0.0741 -0.709083,-0.0741 -0.6985,0 -1.3335,0.35983 -0.105834,0.0529 -0.22225,0.0529 -0.105834,0.0106 -0.105834,-0.0318 0,-0.0317 0.04233,-0.0529 0.47625,-0.26458 0.66675,-0.87841 0.137583,-0.56092 0.137583,-1.12184 0,-2.05316 -1.651,-3.73591 -0.28575,-0.27517 -0.465667,-0.27517 -0.0635,0 -0.127,0.0423 -0.275166,0.23284 -0.338666,0.67734 -0.03175,0.39158 -0.0635,0.79375 0.03175,1.37583 0.105833,1.87325 0.127,0.98425 0.53975,1.56633 0.296333,0.41275 0.751417,0.46567 0.03175,0 0.04233,0.0318 0.01058,0.0423 -0.01058,0.0635 -0.07408,0.10583 -0.15875,0.22225 -0.08467,0.11641 -0.232834,0.11641 -0.232833,0 -0.624416,-0.0952 -0.381,-0.0953 -0.592667,-0.0953 -0.211667,0 -0.41275,0.0635 -0.3175,0.15875 -0.92075,0.39159 -0.02117,-0.0212 -0.04233,-0.0317 0.01058,-0.0529 0.0635,-0.0741 0.645583,-0.28575 0.878416,-1.06891 0.105834,-0.35984 0.169334,-1.32292 0.07408,-1.2065 -0.08467,-3.16442 -0.03175,-0.34925 -0.497417,-0.45508 -0.148166,-0.0318 -0.148166,-0.14817 0,-0.127 0.148166,-0.1905 0.465667,-0.22225 0.465667,-1.02658 0,-0.0529 -0.03175,-0.66675 -0.137583,-0.46567 -0.370417,-0.58208 -0.04233,-0.0212 -0.105833,-0.0212 -0.01058,0 -0.296333,0.0847 -0.03175,0 -0.04233,-0.0317 0.03175,-0.0318 0.116417,-0.23284 0.0635,-0.13758 0.116417,-0.127 0.201083,0.0423 0.4445,0.0423 0.254,0 0.762,-0.0847 0.508,-0.0847 0.762,-0.0847 0.127,0 0.232833,0.0212 0.148167,0.0106 0.201083,0.22225 0.03175,0.127 -0.02117,0.16933 -0.105834,-0.0317 -0.243417,-0.0317 -0.560917,0 -0.687917,0.4445 -0.05292,0.22225 -0.05292,0.41275 0,0.79375 0.9525,1.7145 0.433916,0.41275 0.878416,0.83609 0.518584,0.48683 0.783167,0.83608 0.08467,-0.16933 0.08467,-0.40217 0,-0.11641 -0.02117,-0.30691 -0.04233,-0.26459 -0.04233,-0.32809 -0.03175,-0.27516 -0.28575,-0.39158 -0.211667,-0.0635 -0.402167,-0.11642 -0.1905,-0.0635 -0.1905,-0.15875 0,-0.10583 0.137583,-0.1905 0.211667,-0.0635 0.41275,-0.11641 0.28575,-0.11642 0.370417,-0.47625 0.01058,-0.0847 0.03175,-0.35984 0.02117,-0.21166 0.02117,-0.32808 0,-0.49742 -0.370417,-0.81492 -0.09525,-0.0635 -0.232833,-0.0635 -0.116417,0 -0.328084,0.0635 -0.03175,0.0212 -0.05292,-0.0212 -0.01058,-0.0318 0.01058,-0.0741 0.1905,-0.381 0.381,-0.381 0.09525,0 0.306917,0.0529 0.211666,0.0529 0.328083,0.0529 0.22225,0 0.518583,-0.0847 0.306917,-0.0953 0.4445,-0.0953 0.105834,0 0.201084,0.0212 0.22225,0.0741 0.1905,0.30691 -0.01058,0.0212 -0.07408,0.0423 -0.04233,-0.0106 -0.105833,-0.0106 -0.381,0 -0.550333,0.22225 -0.169334,0.21167 -0.1905,0.49742 0,0.0212 0,0.58208 0,0.45509 0.07408,0.64559 0.137583,0.3175 0.53975,0.3175 0.09525,0 0.179917,0.0847 0.08467,0.0847 0.08467,0.16934 0,0.10583 -0.137583,0.10583 -0.328083,0.0317 -0.381,0.0635 -0.28575,0.127 -0.328083,0.56092 -0.07408,0.62441 -0.07408,1.74625 0,1.78858 0.1905,2.38125 0.211667,0.635 0.973667,0.635 z"
                 style="fill:#e32927;fill-opacity:1;stroke:#000000;stroke-width:0.12429447;stroke-linecap:round;stroke-linejoin:round;stroke-miterlimit:4;stroke-dasharray:none;stroke-opacity:1"
                 id="path47"
                 inkscape:connector-curvature="0" />
              <path
                 d="m 81.871619,118.74915 q 0.07408,-0.0318 0.105833,-0.0318 0.05292,0 -0.05292,0.27517 -0.15875,0.39158 -0.15875,0.70908 0,0.32808 0.09525,0.42333 0.05292,0.11642 -0.137584,0.11642 -0.105833,0 -0.1905,-0.11642 -0.08467,-0.127 -0.08467,-0.29633 0,-0.11642 0.09525,-0.27517 0.09525,-0.16933 0.09525,-0.23283 0,-0.11642 -0.179917,-0.21167 -0.05292,-0.0212 -0.137583,-0.0212 -0.116417,0 -0.41275,0.0635 -0.28575,0.0635 -0.41275,0.0635 -0.232834,0 -0.232834,-0.20109 0,-0.20108 0.201084,-0.47625 0.211666,-0.27516 0.211666,-0.381 0,-0.0423 -0.02117,-0.0847 -0.0635,-0.15875 -0.3175,-0.15875 -0.264584,0 -0.709084,0.15875 -0.529166,0.1905 -0.6985,0.46566 -0.116416,0.20109 -0.116416,0.67734 0,0.48683 0.254,0.73025 0.08467,0.0847 0.34925,0.10583 0.1905,0.0212 0.1905,0.16933 0,0.0952 -0.05292,0.1905 -0.05292,0.0952 -0.05292,0.127 0,0.0741 0.105834,0.16934 0.0635,0.0635 0.338666,0.27516 0.359834,0.26459 0.73025,0.52917 0.423334,0.27517 0.98425,0.51858 0.232834,0.10584 0.232834,0.34925 0,0.0741 -0.04233,0.32809 -0.03175,0.24341 -0.03175,0.41275 0,0.24341 0.179917,1.02658 0.179917,0.77258 0.179917,1.15358 0,0.59267 -0.359834,0.81492 -0.582083,0.17992 -0.804333,0.17992 -0.137583,0 -0.677333,-0.0106 -0.41275,-0.0212 -0.709084,0 -0.423333,0.0212 -0.878416,0.10584 -0.127,0.0212 -0.22225,0 -0.34925,-0.0847 -0.624417,-0.5715 -0.275167,-0.49742 -0.53975,-0.59267 -0.08467,-0.0318 -0.08467,-0.127 0,-0.11642 0.08467,-0.21167 0.22225,-0.254 0.22225,-0.74083 0,-0.29633 -0.127,-0.46567 -0.05292,-0.0741 -0.05292,-0.13758 0,-0.127 0.148167,-0.127 0.306917,0 0.719667,-0.34925 0.359833,-0.34925 0.719666,-0.68792 0.07408,-0.0635 0.169334,-0.0635 0.211666,0 0.402166,0.20109 0.09525,0.127 0.1905,0.254 0.148167,0.15875 0.338667,0.254 0.01058,0.0106 -0.07408,0.15875 -0.05292,0.0741 -0.306917,0 -0.07408,-0.0318 -0.34925,-0.21167 -0.232833,-0.15875 -0.391583,-0.15875 -0.148167,0 -0.296334,0.10583 -0.381,0.34925 -0.381,1.16417 0,0.49742 0.15875,0.87842 0.328084,0.77258 1.11125,0.93133 0.169334,0.0318 0.28575,0.0318 0.243417,0 0.592667,-0.1905 0.6985,-0.381 0.6985,-1.74625 0,-0.66675 -0.08467,-1.00542 -0.15875,-0.59266 -0.613833,-0.84666 -0.709083,-0.40217 -1.629833,-1.21709 -0.22225,-0.20108 -0.423334,-0.254 -0.116416,-0.0318 -0.465666,-0.0318 -0.09525,-0.0106 -0.15875,-0.0212 -0.169334,-0.0635 -0.169334,-0.15875 0,-0.14817 0.169334,-0.23284 0.66675,-0.21166 0.66675,-1.12183 0,-0.29633 -0.07408,-0.64558 -0.05292,-0.21167 -0.296333,-0.381 -0.243417,-0.16934 -0.560917,-0.21167 l -0.03175,-0.0212 q 0.08467,-0.254 0.296334,-0.23283 0.889,0.254 1.30175,0.254 0.28575,0 0.53975,-0.0635 0.328083,-0.0423 0.613833,-0.0952 0.6985,-0.13758 1.132417,-0.3175 0.201083,-0.0635 0.201083,0.30692 0,0.22225 -0.127,0.381 -0.15875,0.16933 -0.3175,0.33866 -0.211667,0.24342 -0.211667,0.34925 0,0.0635 0.0635,0.0952 0.116417,0.0423 0.28575,0.0423 0.306917,0 0.624417,-0.14817 z"
                 style="fill:#e32927;fill-opacity:1;stroke:#000000;stroke-width:0.12429447;stroke-linecap:round;stroke-linejoin:round;stroke-miterlimit:4;stroke-dasharray:none;stroke-opacity:1"
                 id="path49"
                 inkscape:connector-curvature="0" />
            </g>
            <g
               aria-label="Brewing Company"
               style="font-style:normal;font-variant:normal;font-weight:normal;font-stretch:normal;font-size:10.58333302px;line-height:1.25;font-family:RickGriffin;-inkscape-font-specification:RickGriffin;letter-spacing:0px;word-spacing:0px;fill:#000000;fill-opacity:1;stroke:#000000;stroke-width:0.14752586;stroke-linecap:round;stroke-linejoin:round;stroke-miterlimit:4;stroke-dasharray:none;stroke-opacity:1"
               id="text62"
               transform="matrix(1.9130355,0,0,1.9130355,-45.499053,-195.24006)">
              <g
                 style="fill:#000000;fill-opacity:1;stroke:#000000;stroke-width:0.14752586;stroke-linecap:round;stroke-linejoin:round;stroke-miterlimit:4;stroke-dasharray:none;stroke-opacity:1"
                 id="g4629">
                <path
                   inkscape:connector-curvature="0"
                   id="path64"
                   style="fill:#000000;fill-opacity:1;stroke:#000000;stroke-width:0.14752586;stroke-linecap:round;stroke-linejoin:round;stroke-miterlimit:4;stroke-dasharray:none;stroke-opacity:1"
                   d="m 45.391457,191.80289 q 0.08467,0.15875 0.08467,0.33866 0,0.4445 -0.34925,0.59267 -0.01058,0.0106 -0.381,0.21167 -0.211666,0.11641 -0.370416,0.11641 -0.105834,0 -0.22225,-0.0423 -0.169334,-0.0741 -0.275167,-0.33867 -0.05292,-0.14816 -0.28575,-0.16933 -0.582083,-0.0529 -1.0795,-0.0529 -1.820333,0 -2.76225,0.80434 -0.0635,0.0423 -0.116417,0.0423 -0.08467,0 -0.08467,-0.0635 0,-0.0529 0.0635,-0.11642 0.878416,-0.87841 1.0795,-2.6035 0.09525,-1.56633 0.179916,-3.13266 0.02117,-0.24342 -0.211666,-0.32809 -0.105834,-0.0212 -0.211667,-0.0423 -0.15875,-0.0423 -0.15875,-0.10583 0,-0.0212 0.02117,-0.0952 0.02117,-0.0847 0.34925,-0.24342 0.243416,-0.13758 0.243416,-0.53975 0,-0.22225 -0.0635,-0.53975 -0.116416,-0.43392 -0.22225,-0.635 -0.179916,-0.35983 -0.465666,-0.46567 -0.275167,-0.0741 -0.381,-0.0423 0.02117,-0.0106 -0.02117,-0.0529 0.201083,-0.28575 0.338667,-0.28575 0.04233,0 0.09525,0.0212 0.402166,0.15875 0.529166,0.1905 0.179917,0.0423 0.518584,0.0423 0.338666,0 1.121833,-0.127 0.783167,-0.127 1.153583,-0.127 0.508,0 0.8255,0.16934 0.148167,0.0953 0.105834,0.24341 -0.22225,1.35467 -0.677334,1.88384 -0.0635,0.0741 -0.169333,0.20108 -0.0635,0.0847 -0.0635,0.14817 0,0.14816 0.211667,0.14816 0.127,0 0.391583,-0.0529 0.275167,-0.0635 0.41275,-0.0635 0.201083,0 0.338667,0.0953 0.137583,0.0952 0.127,0.17991 -0.169334,1.143 -0.169334,2.0955 0,1.70392 0.550334,2.74109 z m -1.7145,-5.89492 q 0.08467,-0.1905 0.08467,-0.47625 0,-0.49742 -0.232833,-0.68792 -0.3175,-0.26458 -0.878417,-0.26458 -0.306916,0 -0.624416,0.0847 -0.518584,0.21166 -0.518584,1.05833 0,0.10583 0.01058,0.29633 0.01058,0.17992 0.01058,0.26459 0,0.26458 0.296333,0.41275 0.243417,0.127 0.560917,0.127 0.359833,0 0.73025,-0.22225 0.381,-0.23284 0.560917,-0.59267 z m 0.624416,4.45558 q 0.04233,-0.75141 0.04233,-1.18533 0,-1.23825 -0.3175,-1.74625 -0.3175,-0.39158 -1.132417,-0.39158 -0.518583,0 -0.867833,0.23283 -0.455084,0.32808 -0.560917,1.09008 -0.04233,0.254 -0.04233,1.4605 0,0.86784 0.08467,1.22767 0.148167,0.60325 0.635,0.97367 0.243417,0.15875 0.687917,0.15875 0.41275,0 0.6985,-0.10584 0.455083,-0.21166 0.613833,-0.74083 0.05292,-0.15875 0.15875,-0.97367 z" />
                <path
                   inkscape:connector-curvature="0"
                   id="path66"
                   style="fill:#000000;fill-opacity:1;stroke:#000000;stroke-width:0.14752586;stroke-linecap:round;stroke-linejoin:round;stroke-miterlimit:4;stroke-dasharray:none;stroke-opacity:1"
                   d="m 49.887719,189.27347 q -0.02117,0.11642 -0.1905,0.17992 -0.28575,0.10583 -0.529166,0.0212 -0.1905,-0.0529 -0.1905,-0.16933 0,-0.0529 0.0635,-0.0529 0.264583,0 0.359833,-0.0635 0.179917,-0.127 0.243417,-0.4445 0.03175,-0.11641 -0.02117,-0.48683 -0.09525,-0.61383 -0.624417,-0.80433 -0.105833,-0.0423 -0.22225,-0.0423 -0.275166,0 -0.560916,0.21167 -0.264584,0.24342 -0.423334,0.71967 -0.105833,0.32808 -0.105833,1.15358 0,2.11667 1.132417,2.70933 0.04233,0.0106 0.04233,0.0635 -0.01058,0.0635 -0.05292,0.10584 -0.127,0.0847 -0.232833,0.29633 -0.09525,0.20108 -0.201083,0.20108 -0.22225,0 -0.645584,-0.11641 -0.41275,-0.11642 -0.66675,-0.11642 -0.137583,0 -0.296333,0.0741 -0.15875,0.0741 -0.3175,0.15875 -0.328083,0.13759 -0.402167,0.11642 -0.07408,0.0106 -0.08467,-0.0423 -0.02117,-0.0423 0.04233,-0.0635 0.5715,-0.15875 0.910167,-1.11125 0.116416,-0.39159 0.201083,-1.02659 0.105833,-0.92075 0.137583,-1.05833 0.02117,-0.33867 0.02117,-0.65617 0,-0.99483 -0.264583,-1.524 -0.22225,-0.381 -0.560917,-0.381 -0.0635,0 -0.211667,0.0212 -0.137583,0.0212 -0.1905,0.0212 -0.05292,0 -0.05292,-0.0529 0.02117,-0.28575 0.381,-0.4445 0.148166,-0.0529 0.306916,-0.0106 0.169334,0.0423 0.296334,-0.0106 0.04233,-0.0212 0.07408,-0.0212 0.127,0 0.211667,0.22225 0.0635,0.14816 0.211666,0.14816 0.08467,0 0.1905,-0.0529 0.402167,-0.1905 0.66675,-0.1905 0.148167,0 0.381,0.10583 0.243417,0.10583 0.34925,0.10583 0.08467,0 0.148167,-0.0317 0.179917,-0.10583 0.296333,-0.10583 0.127,0 0.127,0.16933 0,0.29634 0.105834,0.67734 0.127,0.508 0.148166,0.64558 0.08467,0.52917 0,0.9525 z" />
                <path
                   inkscape:connector-curvature="0"
                   id="path68"
                   style="fill:#000000;fill-opacity:1;stroke:#000000;stroke-width:0.14752586;stroke-linecap:round;stroke-linejoin:round;stroke-miterlimit:4;stroke-dasharray:none;stroke-opacity:1"
                   d="m 54.757211,192.25797 q -0.09525,0.33867 -0.402167,0.56092 -0.243417,0.16933 -0.47625,0.1905 -0.169333,0.0212 -0.306917,-0.1905 -0.127,-0.21167 -0.328083,-0.21167 -0.127,0 -0.338667,-0.0106 -0.211666,-0.0106 -0.306916,-0.0106 -0.60325,0 -0.931334,0.42334 -0.01058,0.0318 -0.0635,0.0318 -0.423333,-0.10584 -0.73025,-0.508 -0.306916,-0.41275 -0.41275,-0.93134 -0.05292,-0.254 -0.05292,-0.61383 0,-1.64042 0.751416,-3.14325 0.05292,-0.0952 0.05292,-0.20108 0,-0.22225 -0.243417,-0.41275 -0.211666,-0.15875 -0.486833,-0.20109 -0.05292,-0.0106 -0.04233,-0.0741 0.0635,-0.24342 0.254,-0.22225 0.423333,0.13758 1.291166,0.13758 h 0.09525 q 0.1905,-0.0106 0.85725,-0.13758 0.550334,-0.0953 0.85725,-0.0953 0.4445,0 0.73025,0.16933 0.127,0.0847 0.09525,0.24342 -0.148166,0.93133 -0.635,1.73567 -0.22225,0.35983 -0.677333,0.62441 -0.455083,0.26459 -0.899583,0.26459 -0.656167,0 -0.85725,0.21166 -0.105834,0.10584 -0.169334,0.51859 -0.02117,0.20108 0,0.35983 0.137584,0.635 0.243417,0.83608 0.22225,0.46567 0.719667,0.60325 0.296333,0.0529 0.486833,0.0529 0.677333,0 1.100667,-0.52917 0.15875,-0.27516 0.15875,-0.508 0,-0.127 -0.07408,-0.381 -0.04233,-0.0423 -0.09525,-0.16933 -0.04233,-0.10583 0.04233,-0.21167 0.08467,-0.11641 0.201083,-0.14816 0.1905,-0.0741 0.47625,0.0212 0.148167,0.0423 0.148167,0.11642 0,0.0423 -0.08467,0.0423 -0.243417,0 -0.306917,0.0106 -0.169333,0.0423 -0.169333,0.21166 0,0.70909 0.497417,1.41817 0.04233,0.0635 0.03175,0.127 z m -1.005417,-3.88408 q 0.137583,-0.30692 0.137583,-0.53975 0,-0.23284 -0.148166,-0.4445 -0.137584,-0.22225 -0.719667,-0.22225 -0.232833,0 -0.455083,0.0423 -0.53975,0.13758 -0.762,0.59267 -0.201084,0.381 -0.201084,0.762 0,0.23283 0.105834,0.381 0.137583,0.1905 0.370416,0.23283 0.07408,0.0106 0.455084,0.0106 0.296333,0 0.66675,-0.21166 0.402166,-0.254 0.550333,-0.60325 z" />
                <path
                   inkscape:connector-curvature="0"
                   id="path70"
                   style="fill:#000000;fill-opacity:1;stroke:#000000;stroke-width:0.14752586;stroke-linecap:round;stroke-linejoin:round;stroke-miterlimit:4;stroke-dasharray:none;stroke-opacity:1"
                   d="m 62.162898,186.7123 q -0.0635,0.14817 -0.07408,0.28575 -0.02117,0.0529 -0.07408,0.0529 -0.486833,0 -0.762,1.30175 -0.508,2.40242 -0.508,2.97392 0,0.68791 0.306917,0.89958 0.137583,0.0741 0.243417,0.0741 0.03175,0.0106 0.02117,0.0529 -0.179916,0.508 -0.613833,0.508 -0.08467,0 -0.169333,-0.0318 -0.592667,-0.20108 -0.804334,-0.20108 -0.232833,0 -0.8255,0.28575 -0.09525,0.0423 -0.127,0.0106 -0.04233,-0.0318 0,-0.0741 0.433917,-0.42334 0.433917,-0.93134 0,-0.14816 -0.15875,-1.17475 -0.105833,-0.73025 -0.370417,-2.10608 -0.497416,2.30717 -0.497416,2.93158 0,0.40217 0.137583,0.508 0.105833,0.0847 0.1905,0.0847 0.09525,0 0.04233,0.0952 -0.179916,0.47625 -0.5715,0.47625 -0.09525,0 -0.1905,-0.0317 -0.34925,-0.11642 -0.613833,-0.11642 -0.28575,0 -0.592667,0.13759 -0.09525,0.0423 -0.656166,0.35983 -0.08467,0.0423 -0.127,0.0106 -0.04233,-0.0423 0,-0.0847 0.47625,-0.508 0.592666,-0.70909 0.169334,-0.28575 0.169334,-0.6985 0,-0.27516 -0.07408,-0.85725 -0.03175,-0.32808 -0.22225,-1.23825 -0.1905,-0.9525 -0.28575,-1.24883 -0.09525,-0.33867 -0.1905,-0.66675 -0.137583,-0.381 -0.338666,-0.40217 -0.03175,0 -0.243417,0.0635 l -0.02117,-0.0212 q 0.127,-0.26459 0.169334,-0.29634 0.05292,-0.0423 0.116416,-0.0317 0.402167,0.0212 0.359834,0.0212 0.1905,0 0.465666,-0.0317 0.09525,-0.0212 0.423334,-0.11642 0.254,-0.0847 0.433916,-0.0847 0.03175,0 0.03175,0.0529 0,0.26459 -0.09525,0.26459 -0.60325,0 -0.60325,0.71966 0,0.21167 0.04233,0.52917 0.05292,0.39158 0.275166,1.42875 0.211667,0.96308 0.28575,1.22767 0.148167,0.48683 0.15875,0.51858 0.07408,0.16933 0.1905,0.16933 0.116417,0 0.264584,-0.41275 0.15875,-0.42333 0.328083,-1.28058 0.116417,-0.64558 0.243417,-1.30175 0.127,-0.65617 0.127,-0.93133 0,-0.32809 -0.148167,-0.41275 -0.148167,-0.0847 -0.423333,-0.0106 -0.03175,0 -0.03175,-0.0423 0.05292,-0.3175 0.201083,-0.3175 0.0635,0 0.211667,0.0212 0.148166,0.0106 0.22225,0.0106 0.105833,0 0.359833,-0.0212 l 0.02117,-0.0106 q 0.201083,-0.0423 0.338666,-0.11642 0.296334,-0.14816 0.296334,-0.15875 0.05292,-0.0212 0.07408,0.0212 0.02117,0.0318 0.01058,0.0741 -0.07408,0.14817 -0.08467,0.28575 -0.02117,0.0635 -0.0635,0.0529 -0.232834,-0.10583 -0.402167,0.10583 -0.0635,0.10584 -0.0635,0.30692 0,0.11642 0.09525,0.79375 0.05292,0.42333 0.254,1.42875 0.201083,0.99483 0.264583,1.22767 0.148167,0.48683 0.15875,0.51858 0.07408,0.16933 0.1905,0.16933 0.116417,0 0.264584,-0.41275 0.148166,-0.41275 0.296333,-1.28058 0.211667,-1.25942 0.22225,-1.29117 0.137583,-0.66675 0.137583,-0.94191 0,-0.32809 -0.148166,-0.41275 -0.148167,-0.0847 -0.433917,-0.0106 -0.03175,0 -0.03175,-0.0423 0.05292,-0.3175 0.201083,-0.3175 0.582084,0 0.931334,-0.0741 0.243416,-0.0423 0.762,-0.20109 0.04233,-0.0212 0.0635,0.0212 0.03175,0.0318 0.01058,0.0741 z" />
                <path
                   inkscape:connector-curvature="0"
                   id="path72"
                   style="fill:#000000;fill-opacity:1;stroke:#000000;stroke-width:0.14752586;stroke-linecap:round;stroke-linejoin:round;stroke-miterlimit:4;stroke-dasharray:none;stroke-opacity:1"
                   d="m 64.412847,185.05072 q 0,0.762 -0.47625,0.762 -0.211666,0 -0.34925,-0.20108 -0.09525,-0.15875 -0.09525,-0.30692 0,-0.80433 0.518584,-0.80433 0.402166,0 0.402166,0.55033 z m 0.846667,7.28133 q 0,0.0212 -0.01058,0.0423 -0.179917,0.32808 -0.381,0.41275 -0.137584,0.0635 -0.550334,0.0635 -0.1905,0 -0.486833,-0.0317 -0.296333,-0.0318 -0.497417,-0.0318 -0.148166,0 -0.41275,0.0635 -0.264583,0.0741 -0.254,0.0741 -0.0635,0 -0.0635,-0.0423 0,-0.0212 0.02117,-0.0317 0.137583,-0.10584 0.391583,-0.35984 0.6985,-0.80433 0.6985,-2.74108 0,-0.24342 0.01058,-0.74083 0.01058,-0.49742 0.01058,-0.74084 0,-0.56091 -0.03175,-0.66675 -0.0635,-0.27516 -0.402167,-0.48683 -0.22225,-0.0529 -0.486833,-0.14817 -0.02117,-0.0212 -0.02117,-0.0741 0.03175,-0.23283 0.296334,-0.23283 0.137583,0 0.455083,0.0847 0.3175,0.0741 0.465667,0.0741 0.232833,0 0.306916,-0.0212 0.0635,-0.0317 0.148167,0.0423 0.03175,0.0212 0.0635,0.14817 0.03175,0.127 0.02117,0.14817 0,0.0318 -0.08467,0.127 -0.22225,0.20108 -0.22225,1.10066 0,0.0635 -0.03175,0.45509 -0.03175,0.34925 -0.01058,0.46566 0,1.67217 0.34925,2.50825 0.07408,0.20109 0.275166,0.34925 0.211667,0.14817 0.41275,0.14817 0.02117,0 0.02117,0.0423 z" />
                <path
                   inkscape:connector-curvature="0"
                   id="path74"
                   style="fill:#000000;fill-opacity:1;stroke:#000000;stroke-width:0.14752586;stroke-linecap:round;stroke-linejoin:round;stroke-miterlimit:4;stroke-dasharray:none;stroke-opacity:1"
                   d="m 70.790298,192.51197 q -0.0635,0.11642 -0.148166,0.22225 -0.07408,0.10583 -0.22225,0.0741 -0.338667,-0.0741 -0.560917,-0.0741 -0.264583,0 -0.47625,0.10583 -0.0635,0.0318 -0.423333,0.254 -0.105834,0.0529 -0.201084,0.0529 -0.09525,0.0106 -0.09525,-0.0318 0,-0.0317 0.04233,-0.0529 0.338666,-0.21166 0.497416,-0.59266 0.28575,-0.67734 0.28575,-1.79917 0,-1.35467 -0.02117,-1.68275 -0.0635,-0.92075 -0.328084,-1.397 -0.264583,-0.47625 -0.804333,-0.47625 -0.359833,0 -0.677333,0.254 -0.423334,0.32808 -0.508,1.03717 -0.03175,0.24341 -0.03175,1.41816 0,1.43934 0.402166,2.2225 0.275167,0.43392 0.582084,0.46567 0.03175,0 0.04233,0.0423 0.01058,0.0423 0,0.0635 -0.07408,0.0953 -0.148167,0.1905 -0.07408,0.0952 -0.211666,0.0952 -0.22225,0 -0.518584,-0.0952 -0.296333,-0.0952 -0.455083,-0.0952 -0.169333,0 -0.359833,0.0635 -0.243417,0.15875 -0.73025,0.39159 -0.02117,-0.0212 -0.03175,-0.0317 0,-0.0529 0.05292,-0.0741 0.5715,-0.27516 0.751416,-1.23825 0.04233,-0.22225 0.116417,-1.50283 0.01058,-0.3175 0.05292,-1.62983 0.02117,-0.97367 -0.07408,-1.28059 -0.08467,-0.3175 -0.402166,-0.3175 -0.0635,0 -0.201084,0.0423 -0.127,0.0318 -0.179916,0.0318 -0.04233,0 -0.04233,-0.0529 0,-0.1905 0.338667,-0.41275 0.137583,-0.0847 0.391583,-0.0529 0.264584,0.0423 0.391584,0 0.03175,-0.0212 0.07408,-0.0212 0.127,0 0.211667,0.22225 0.0635,0.14816 0.201083,0.14816 0.08467,0 0.201083,-0.0529 0.306917,-0.14817 0.5715,-0.1905 0.201083,-0.0317 0.455083,0.0106 0.3175,0.0529 0.423334,0.0529 0.179916,0 0.423333,-0.0741 0.243417,-0.0741 0.306917,-0.0741 0.04233,0 0.07408,0.0106 0.28575,0.127 0.264583,0.4445 -0.05292,0.42334 -0.09525,1.25942 -0.02117,1.85208 0,2.286 0.02117,0.49742 0.148167,0.99483 0.179917,0.60325 0.624417,0.8255 z" />
                <path
                   inkscape:connector-curvature="0"
                   id="path76"
                   style="fill:#000000;fill-opacity:1;stroke:#000000;stroke-width:0.14752586;stroke-linecap:round;stroke-linejoin:round;stroke-miterlimit:4;stroke-dasharray:none;stroke-opacity:1"
                   d="m 76.015985,193.09405 q 0,0.29634 -0.211667,0.49742 -0.3175,0.28575 -0.359833,0.34925 -0.264584,0.45508 -0.47625,0.67733 -0.5715,0.60325 -0.677334,1.10067 -0.02117,0.10583 -0.05292,0.1905 -0.02117,0.0847 -0.15875,0.0847 -0.22225,0 -0.370417,-0.0423 -0.137583,-0.0423 -0.211667,-0.21166 -0.137583,-0.28575 -0.53975,-0.47625 -0.359833,-0.15875 -0.709083,-0.15875 -0.1905,0 -0.550333,0.21166 -0.359834,0.22225 -0.963084,0.22225 -0.1905,0 -0.1905,-0.0847 0,-0.0423 0.08467,-0.0529 0.645583,-0.10583 0.878417,-0.40217 0.243416,-0.29633 0.3175,-0.35983 0.179916,-0.15875 0.423333,-0.15875 0.127,0 0.201083,0.0741 0.137584,0.14817 0.5715,0.28575 0.402167,0.11642 0.624417,0.11642 0.4445,0 0.814917,-0.45508 0.370416,-0.45509 0.370416,-0.94192 0,-0.43392 -0.328083,-0.65617 -0.359833,-0.20108 -0.899583,-0.20108 -0.518584,0 -0.804334,0.127 -0.15875,0.0953 -0.1905,0.0953 -0.4445,0 -0.79375,-0.46567 -0.296333,-0.39158 -0.391583,-0.87841 -0.05292,-0.254 -0.05292,-0.61384 0,-1.66158 0.751417,-3.16441 0.05292,-0.10584 0.05292,-0.21167 0,-0.22225 -0.243417,-0.39158 -0.201083,-0.14817 -0.465667,-0.20109 -0.07408,0 -0.07408,-0.0847 0.07408,-0.254 0.264583,-0.23284 0.47625,0.15875 1.524,0.14817 0.22225,0 0.508,0.0212 1.640417,-0.13759 1.947334,-0.23284 0.264583,-0.0318 0.34925,0.254 0.02117,0.0423 -0.04233,0.0635 -0.338666,0.0529 -0.560916,0.30692 -0.22225,0.254 -0.264584,0.60325 -0.09525,1.22767 0.05292,2.68817 0.09525,0.94191 0.264583,1.40758 0.232834,0.61383 0.518584,0.94192 0.0635,0.0741 0.0635,0.21166 z m -1.36525,-2.86808 q 0,-1.35467 -0.211667,-2.05317 -0.28575,-0.9525 -0.941917,-0.9525 -0.783166,0 -1.100666,1.34409 -0.148167,0.64558 -0.148167,1.40758 0,0.43392 0.04233,0.77258 0.09525,0.65617 0.264584,0.98425 0.22225,0.42334 0.687916,0.55034 0.15875,0.0423 0.296334,0.0423 0.359833,0 0.635,-0.254 0.47625,-0.60325 0.47625,-1.8415 z" />
                <path
                   inkscape:connector-curvature="0"
                   id="path78"
                   style="fill:#000000;fill-opacity:1;stroke:#000000;stroke-width:0.14752586;stroke-linecap:round;stroke-linejoin:round;stroke-miterlimit:4;stroke-dasharray:none;stroke-opacity:1"
                   d="m 84.283553,192.28972 q 0,0.32808 -0.370417,0.51858 -0.328083,0.13759 -0.656166,0.27517 -0.179917,0.0106 -0.359834,-0.23283 -0.169333,-0.24342 -0.381,-0.24342 -0.910166,0 -1.121833,0.0317 -0.5715,0.0847 -0.867833,0.4445 -0.04233,0.0212 -0.105834,0.0635 -0.762,-0.0953 -1.2065,-1.43933 -0.09525,-0.30692 -0.09525,-0.762 0,-1.397 0.677334,-3.38667 0.02117,-0.0529 0.02117,-0.11642 0,-0.26458 -0.402166,-0.48683 -0.09525,-0.0953 -0.01058,-0.127 0.804334,-0.26458 0.804334,-1.41817 0,-0.23283 -0.05292,-0.43391 -0.04233,-0.21167 -0.28575,-0.381 -0.243417,-0.16934 -0.560917,-0.21167 l -0.02117,-0.0212 q 0.07408,-0.254 0.28575,-0.23283 0.6985,0.20108 1.23825,0.20108 0.3175,0 0.613833,-0.0529 0.433917,-0.0635 0.783167,-0.127 0.836083,-0.13759 1.058333,-0.24342 0.08467,-0.0318 0.137583,0.0635 0.0635,0.0953 0.0635,0.254 0,0.22225 -0.127,0.37042 -0.15875,0.16933 -0.3175,0.33866 -0.201083,0.24342 -0.201083,0.34925 0,0.0635 0.05292,0.0953 0.116416,0.0423 0.28575,0.0423 0.306916,0 0.635,-0.14817 0.0635,-0.0317 0.09525,-0.0317 0.05292,0 -0.05292,0.27517 -0.15875,0.39158 -0.15875,0.70908 0,0.13758 0.05292,0.34925 0.04233,0.16933 0.02117,0.16933 -0.105833,0.0529 -0.254,-0.0847 -0.137583,-0.14817 -0.137583,-0.30692 0,-0.0741 0.09525,-0.23283 0.09525,-0.16934 0.09525,-0.254 0,-0.13759 -0.179917,-0.23284 -0.05292,-0.0212 -0.137583,-0.0212 -0.116417,0 -0.41275,0.0635 -0.28575,0.0635 -0.41275,0.0635 -0.232833,0 -0.232833,-0.20109 0,-0.15875 0.264583,-0.4445 0.264583,-0.29633 0.264583,-0.41275 0,-0.0423 -0.01058,-0.0741 -0.08467,-0.16933 -0.486833,-0.16933 -0.381,0 -0.772584,0.13758 -0.497416,0.1905 -0.677333,0.635 -0.08467,0.20108 -0.179917,0.889 0.04233,0.55033 0.645584,0.6985 0.08467,0.0212 0.08467,0.0847 0,0.0847 -0.105833,0.127 -0.550333,0.26458 -0.740833,0.5715 -0.243417,0.41275 -0.243417,1.41816 0,1.35467 0.0635,1.74625 0.148167,0.66675 0.34925,0.98425 0.264583,0.43392 0.772583,0.56092 0.211667,0.0318 0.391584,0.0318 0.85725,0 1.576916,-0.75142 0.264584,-0.40216 0.264584,-0.64558 0,-0.20108 -0.169334,-0.33867 -0.201083,-0.13758 -0.211666,-0.15875 -0.01058,-0.0318 -0.0635,-0.0953 -0.07408,-0.127 -0.07408,-0.29633 0,-0.42333 0.328084,-0.78317 0.0635,-0.0847 0.105833,0 -0.07408,0.53975 0,0.762 0.07408,0.24342 0.28575,0.381 0.22225,0.13759 0.4445,0.27517 -0.201083,0.67733 -0.201083,0.98425 0,0.381 0.201083,0.635 z" />
                <path
                   inkscape:connector-curvature="0"
                   id="path80"
                   style="fill:#000000;fill-opacity:1;stroke:#000000;stroke-width:0.14752586;stroke-linecap:round;stroke-linejoin:round;stroke-miterlimit:4;stroke-dasharray:none;stroke-opacity:1"
                   d="m 89.002394,190.40589 q -0.243416,0.58208 -0.243416,0.98425 0,0.13758 0.03175,0.22225 0.158749,0.35983 0.137583,0.43391 -0.05292,0.20109 -0.275167,0.508 -0.211666,0.29634 -0.370416,0.34925 -0.105834,0.0423 -0.137584,0 -0.211666,-0.23283 -0.8255,-0.23283 -0.687916,0 -1.016,0.14817 -0.169333,0.0952 -0.1905,0.0952 -0.116416,0 -0.169333,-0.0106 -0.762,-0.20108 -0.973667,-1.32291 -0.0635,-0.28575 -0.0635,-0.68792 0,-1.67217 0.709084,-3.10092 0.0635,-0.127 0.0635,-0.24341 0,-0.39159 -0.582084,-0.48684 -0.08467,-0.0106 -0.0635,-0.10583 0.0635,-0.22225 0.306917,-0.1905 0.07408,0.0106 0.402167,0.10583 0.1905,0.0529 0.486833,0.0529 0.306917,0 0.613833,-0.0529 0.22225,-0.0423 0.4445,-0.0847 0.550334,0 1.375834,-0.0953 0.243416,-0.0212 0.317499,0.23283 0.01058,0.0212 -0.03175,0.0529 -0.169333,0.0212 -0.370416,0.13758 -0.28575,0.15875 -0.28575,0.39158 0,0.0847 0.04233,0.17992 0.4445,0.96308 0.66675,2.159 0.05292,0.41275 0,0.56092 z m -0.751416,-0.17992 q 0,-1.04775 -0.306917,-2.05317 -0.275167,-0.9525 -0.994833,-0.9525 -0.783167,0 -1.100667,1.34409 -0.148167,0.64558 -0.148167,1.40758 0,0.43392 0.04233,0.77258 0.179916,1.32292 1.005416,1.53459 0.148167,0.0423 0.3175,0.0423 0.433917,0 0.709084,-0.254 0.47625,-0.60325 0.47625,-1.8415 z" />
                <path
                   inkscape:connector-curvature="0"
                   id="path82"
                   style="fill:#000000;fill-opacity:1;stroke:#000000;stroke-width:0.14752586;stroke-linecap:round;stroke-linejoin:round;stroke-miterlimit:4;stroke-dasharray:none;stroke-opacity:1"
                   d="m 96.869118,192.56489 q -0.07408,0.11641 -0.148167,0.21166 -0.07408,0.10584 -0.232833,0.0847 -0.751417,-0.15875 -0.846667,-0.15875 -0.201083,0 -0.508,0.1905 -0.105833,0.0635 -0.201083,0.0635 -0.09525,0 -0.09525,-0.0423 0,-0.0212 0.03175,-0.0529 0.264583,-0.15875 0.402167,-0.49742 0.28575,-0.67733 0.28575,-1.69333 0,-1.35467 -0.02117,-1.68275 -0.0635,-0.92075 -0.328083,-1.397 -0.264584,-0.47625 -0.709084,-0.47625 -0.254,0 -0.518583,0.16933 -0.211667,0.13759 -0.338667,0.60325 -0.04233,0.17992 -0.05292,0.66675 -0.03175,1.12184 0.01058,2.11667 0.02117,0.55033 0.148167,0.99483 0.169333,0.60325 0.624416,0.8255 l 0.03175,0.0212 q -0.201083,0.3175 -0.656166,0.29633 -0.550334,-0.0318 -0.582084,-0.0212 -0.169333,0.0106 -0.497416,0.21166 -0.09525,0.0635 -0.201084,0.0635 -0.09525,0 -0.09525,-0.0423 0,-0.0317 0.04233,-0.0529 0.254,-0.15875 0.391583,-0.49741 0.296333,-0.67734 0.296333,-1.79917 0,-1.35467 -0.03175,-1.68275 -0.0635,-0.92075 -0.328083,-1.397 -0.264583,-0.47625 -0.709083,-0.47625 -0.306917,0 -0.624417,0.254 -0.423333,0.32808 -0.508,1.03717 -0.03175,0.24341 -0.03175,1.41816 0,1.43934 0.402167,2.2225 0.275167,0.43392 0.582083,0.46567 0.03175,0 0.04233,0.0423 0.01058,0.0423 0,0.0635 -0.07408,0.0953 -0.148167,0.1905 -0.07408,0.0952 -0.211667,0.0952 -0.22225,0 -0.518583,-0.0952 -0.296333,-0.0952 -0.455083,-0.0952 -0.169334,0 -0.359834,0.0635 -0.243416,0.15875 -0.73025,0.39159 -0.02117,-0.0212 -0.03175,-0.0317 0,-0.0529 0.05292,-0.0741 0.5715,-0.27516 0.751417,-1.23825 0.0635,-0.29633 0.116416,-1.50283 0.03175,-0.46567 0.05292,-1.62983 0.03175,-0.96309 -0.0635,-1.28059 -0.09525,-0.3175 -0.41275,-0.3175 -0.0635,0 -0.201083,0.0423 -0.127,0.0318 -0.179917,0.0318 -0.04233,0 -0.04233,-0.0529 0,-0.254 0.359833,-0.43392 0.09525,-0.0529 0.211667,-0.0529 0.02117,0 0.264583,0.0423 0.169333,0.0212 0.28575,-0.0212 0.03175,-0.0212 0.07408,-0.0212 0.127,0 0.211667,0.22225 0.0635,0.13758 0.201083,0.13758 0.09525,0 0.211667,-0.0635 0.22225,-0.11642 0.4445,-0.16933 0.22225,-0.0529 0.402167,-0.0423 0.275166,0 0.539749,0.13759 0.264584,0.13758 0.391584,0.23283 0.07408,0.0529 0.1905,0.0529 0.169333,0 0.5715,-0.20109 0.254,-0.127 0.465666,-0.14816 0.15875,-0.0106 0.370417,0.0317 0.211667,0.0317 0.296333,0.0212 0.137584,0 0.370417,-0.0953 0.232833,-0.0952 0.359833,-0.0952 0.08467,0 0.169334,0.0318 0.28575,0.0847 0.254,0.4445 -0.04233,0.42334 -0.09525,1.25942 -0.02117,1.85208 0,2.286 0.02117,0.55033 0.148166,0.99483 0.1905,0.65617 0.624417,0.87842 z" />
                <path
                   inkscape:connector-curvature="0"
                   id="path84"
                   style="fill:#000000;fill-opacity:1;stroke:#000000;stroke-width:0.14752586;stroke-linecap:round;stroke-linejoin:round;stroke-miterlimit:4;stroke-dasharray:none;stroke-opacity:1"
                   d="m 101.28783,189.34755 q 0,-0.98425 -0.32809,-1.49225 -0.32808,-0.51858 -0.89958,-0.51858 -0.275167,0 -0.582084,0.11642 -0.455083,0.37041 -0.613833,0.97366 -0.127,0.4445 -0.127,1.22767 0,1.19592 0.03175,1.43933 0.09525,0.74084 0.508,1.06892 0.306917,0.23283 0.709083,0.23283 0.730254,0 1.047754,-0.58208 0.29633,-0.762 0.29633,-1.5875 0,-0.21167 -0.0212,-0.49742 -0.0212,-0.29633 -0.0212,-0.381 z m 0.68791,-1.89441 q -0.23283,0.87841 -0.23283,2.04258 0,1.74625 0.381,2.3495 0.0847,0.127 0.0529,0.21167 -0.0847,0.23283 -0.13759,0.33866 -0.10583,0.23284 -0.26458,0.37042 -0.11642,0.0952 -0.22225,0.0952 -0.15875,0 -0.89958,-0.0952 -0.16934,-0.0318 -0.62442,-0.0318 -0.15875,0 -0.433917,0.0741 -0.402167,0.10584 -0.508,0.15875 -0.264583,0.127 -0.264583,0.381 0,0.98425 0.169333,1.4605 0.148167,0.42334 0.508,0.635 0.179917,0.0741 0.243417,0.0741 0.03175,0.0106 0.02117,0.0529 -0.15875,0.43392 -0.592666,0.43392 -0.15875,0 -0.34925,-0.0529 -0.254,-0.0952 -0.4445,-0.0952 -0.370417,0 -0.963083,0.45509 -0.02117,0.0212 -0.03175,0 -0.02117,-0.0212 0.01058,-0.0529 0.624417,-0.74083 0.804333,-1.37583 0.116417,-0.4445 0.116417,-1.53459 0,-0.30691 -0.232833,-0.4445 -0.22225,-0.13758 -0.254,-0.24341 -0.02117,-0.0529 -0.02117,-0.0953 0.01058,-0.0847 0.254,-0.16934 0.201083,-0.0741 0.179917,-0.37041 -0.04233,-0.52917 -0.04233,-1.12184 0,-0.27516 0.01058,-0.762 0.01058,-0.48683 0.01058,-0.71966 0,-0.64559 -0.0635,-1.18534 -0.105833,-0.43391 -0.1905,-0.635 -0.169333,-0.35983 -0.423333,-0.47625 -0.243417,-0.0741 -0.34925,-0.0423 0.02117,-0.0106 -0.01058,-0.0529 0.179917,-0.27516 0.296334,-0.27516 0.04233,0 0.09525,0.0212 0.709083,0.30692 1.312333,0.30692 0.3175,0.0212 1.0795,-0.10583 0.814921,-0.127 1.090081,-0.127 0.29634,0 0.59267,0.14816 0.33867,0.16934 0.32808,0.381 z" />
                <path
                   inkscape:connector-curvature="0"
                   id="path86"
                   style="fill:#000000;fill-opacity:1;stroke:#000000;stroke-width:0.14752586;stroke-linecap:round;stroke-linejoin:round;stroke-miterlimit:4;stroke-dasharray:none;stroke-opacity:1"
                   d="m 106.16476,190.42705 q 0.0318,-0.30691 -0.33867,-0.39158 -0.61383,-0.13758 -0.73025,-0.20108 -0.15875,-0.13759 -0.3175,-0.26459 -0.22225,-0.16933 -0.39158,-0.16933 -0.34925,0 -0.61384,0.62442 -0.22225,0.51858 -0.22225,0.92075 0,0.27516 0.0847,0.48683 0.29633,0.77258 1.00542,0.93133 0.15875,0.0212 0.254,0.0212 0.30691,0 0.62441,-0.254 0.49742,-0.48683 0.64559,-1.70392 z m 0,-3.82058 q 0.28575,0 0.60325,0.16933 0.32808,0.15875 0.3175,0.37042 -0.45509,1.69333 -0.45509,2.61408 0,0.62442 0.16934,1.13242 0.14816,0.41275 0.22225,0.59267 0.14816,0.3175 0.34925,0.53975 0.0423,0.0423 0,0.10583 -0.127,0.22225 -0.3175,0.71967 -0.0635,0.13758 -0.16934,0.0847 -0.33866,-0.16933 -0.67733,-0.22225 -0.21167,-0.0423 -0.48683,-0.0423 -0.74084,0 -1.80975,0.29633 -0.0953,0.0212 -0.20109,0 -0.3175,-0.0847 -0.5715,-0.62441 -0.24341,-0.53975 -0.48683,-0.64559 -0.0847,-0.0317 -0.0741,-0.14816 0.0106,-0.10584 0.0741,-0.1905 0.29633,-0.37042 0.29633,-0.97367 0,-0.16933 -0.0423,-0.29633 -0.0635,-0.254 0.0952,-0.254 0.4445,0 1.31233,-0.85725 0.10584,-0.127 0.27517,-0.127 0.16933,0 0.3175,0.11641 0.41275,0.33867 0.74083,0.33867 0.61384,0 0.65617,-0.62442 0.0423,-0.67733 -0.21167,-1.0795 -0.381,-0.56091 -1.397,-0.62441 -0.58208,-0.0317 -0.60325,0.27516 0,0.10584 0.22225,0.34925 0.23284,0.23284 0.22225,0.43392 -0.0106,0.20108 -0.22225,0.1905 -0.127,-0.0106 -0.37041,-0.0847 -0.24342,-0.0847 -0.37042,-0.0952 -0.21167,-0.0106 -0.23283,0.24342 0,0.0952 0.0318,0.24342 0.0423,0.13758 0.0423,0.20108 0.0106,0.10583 -0.0741,0.22225 -0.0847,0.11642 -0.20109,0.11642 -0.127,0 -0.0847,-0.10584 0.0847,-0.22225 0.0953,-0.47625 0.0106,-0.22225 -0.0847,-0.49741 -0.0952,-0.27517 -0.0847,-0.3175 0,-0.0317 0.0212,-0.0212 0.0423,0 0.27517,0.10583 0.24341,0.0952 0.381,0.10584 0.30691,0.0106 0.30691,-0.11642 0.0106,-0.13758 -0.26458,-0.381 -0.27517,-0.254 -0.26458,-0.508 0.0212,-0.3175 0.15875,-0.3175 0.14816,0.0635 0.29633,0.127 0.3175,0.11642 0.51858,0.127 0.30692,0.0212 0.86784,-0.0741 0.60325,-0.11642 0.889,-0.11642 z" />
                <path
                   inkscape:connector-curvature="0"
                   id="path88"
                   style="fill:#000000;fill-opacity:1;stroke:#000000;stroke-width:0.14752586;stroke-linecap:round;stroke-linejoin:round;stroke-miterlimit:4;stroke-dasharray:none;stroke-opacity:1"
                   d="m 112.91692,192.51197 q -0.0635,0.11642 -0.14817,0.22225 -0.0741,0.10583 -0.22225,0.0741 -0.33866,-0.0741 -0.56091,-0.0741 -0.26459,0 -0.47625,0.10583 -0.0635,0.0318 -0.42334,0.254 -0.10583,0.0529 -0.20108,0.0529 -0.0952,0.0106 -0.0952,-0.0318 0,-0.0317 0.0423,-0.0529 0.33867,-0.21166 0.49742,-0.59266 0.28575,-0.67734 0.28575,-1.79917 0,-1.35467 -0.0212,-1.68275 -0.0635,-0.92075 -0.32808,-1.397 -0.26458,-0.47625 -0.80433,-0.47625 -0.35984,0 -0.67734,0.254 -0.42333,0.32808 -0.508,1.03717 -0.0318,0.24341 -0.0318,1.41816 0,1.43934 0.40217,2.2225 0.27517,0.43392 0.58208,0.46567 0.0317,0 0.0423,0.0423 0.0106,0.0423 0,0.0635 -0.0741,0.0953 -0.14817,0.1905 -0.0741,0.0952 -0.21167,0.0952 -0.22225,0 -0.51858,-0.0952 -0.29633,-0.0952 -0.45508,-0.0952 -0.16933,0 -0.35983,0.0635 -0.24342,0.15875 -0.73025,0.39159 -0.0212,-0.0212 -0.0318,-0.0317 0,-0.0529 0.0529,-0.0741 0.5715,-0.27516 0.75142,-1.23825 0.0423,-0.22225 0.11642,-1.50283 0.0106,-0.3175 0.0529,-1.62983 0.0212,-0.97367 -0.0741,-1.28059 -0.0847,-0.3175 -0.40217,-0.3175 -0.0635,0 -0.20108,0.0423 -0.127,0.0318 -0.17992,0.0318 -0.0423,0 -0.0423,-0.0529 0,-0.1905 0.33867,-0.41275 0.13758,-0.0847 0.39158,-0.0529 0.26458,0.0423 0.39158,0 0.0318,-0.0212 0.0741,-0.0212 0.127,0 0.21167,0.22225 0.0635,0.14816 0.20108,0.14816 0.0847,0 0.20109,-0.0529 0.30691,-0.14817 0.5715,-0.1905 0.20108,-0.0317 0.45508,0.0106 0.3175,0.0529 0.42333,0.0529 0.17992,0 0.42334,-0.0741 0.24341,-0.0741 0.30691,-0.0741 0.0423,0 0.0741,0.0106 0.28575,0.127 0.26458,0.4445 -0.0529,0.42334 -0.0952,1.25942 -0.0212,1.85208 0,2.286 0.0212,0.49742 0.14817,0.99483 0.17991,0.60325 0.62441,0.8255 z" />
                <path
                   inkscape:connector-curvature="0"
                   id="path90"
                   style="fill:#000000;fill-opacity:1;stroke:#000000;stroke-width:0.14752586;stroke-linecap:round;stroke-linejoin:round;stroke-miterlimit:4;stroke-dasharray:none;stroke-opacity:1"
                   d="m 117.78277,186.7123 q -0.0635,0.14817 -0.0741,0.28575 -0.0212,0.0529 -0.0741,0.0529 -0.27517,0 -0.43392,0.42333 -0.0952,0.37042 -0.1905,0.73025 -0.15875,0.43392 -0.26458,0.99484 -0.15875,0.8255 -0.16934,0.89958 -0.10583,0.32808 -0.27516,0.94192 -0.0741,0.32808 -0.0741,0.67733 0,0.61383 0.23284,1.38642 0.127,0.41275 0.508,1.37583 0.1905,0.45508 0.23283,0.9525 0,0.41275 -0.46567,0.49742 -0.29633,0.0635 -0.6985,0.0635 -0.34925,0 -0.94191,-0.0529 -0.59267,-0.0423 -0.762,-0.0423 -0.21167,0 -0.28575,0.0317 -0.127,0.0529 -0.26459,0.0529 -0.381,0 -0.47625,-0.26458 -0.0953,-0.30692 -0.0953,-0.635 0,-0.47625 0.22225,-1.13242 0.20109,-0.55033 0.39159,-1.10066 0.1905,-0.62442 0.58208,-0.78317 0.24342,-0.0847 0.40217,0 0.0529,0.0318 0.0212,0.0635 -0.0318,0.0318 -0.0741,0.0318 -0.4445,-0.0529 -0.64558,0.46567 -0.20109,0.508 -0.20109,1.17475 0,0.85725 0.30692,1.29116 0.42333,0.53975 1.03717,0.53975 0.1905,0 0.37041,-0.0529 0.48684,-0.17992 0.48684,-0.97367 0,-0.55033 -0.37042,-1.56633 -0.14817,-0.29634 -0.40217,-1.143 -0.23283,-1.16417 -0.48683,-1.79917 -0.381,-0.86783 -0.77258,-1.75683 -0.21167,-0.5715 -0.26459,-0.68792 -0.20108,-0.41275 -0.41275,-0.43392 -0.0318,0 -0.24341,0.0635 l -0.0212,-0.0212 q 0.0635,-0.14817 0.17992,-0.33867 0.0318,-0.0317 0.10583,-0.0212 0.40217,0.0212 0.35983,0.0212 0.17992,0 0.45509,-0.0317 0.10583,-0.0212 0.43391,-0.11642 0.24342,-0.0847 0.43392,-0.0847 0.0318,0 0.0318,0.0529 0,0.26459 -0.0952,0.26459 -0.49742,0 -0.49742,0.42333 0,0.24342 0.16934,0.8255 0.0847,0.29633 0.40216,0.94192 0.26459,0.5715 0.35984,1.04775 0.0635,0.29633 0.0952,0.34925 0.0318,0.0423 0.16933,0.0423 0.0847,0 0.127,-0.0952 0.0529,-0.14817 0.0953,-0.29633 0.15875,-0.43392 0.22225,-0.75142 0.0847,-0.41275 0.16933,-0.81492 0.20109,-0.9525 0.20109,-1.06891 0,-0.254 -0.15875,-0.33867 -0.14817,-0.0953 -0.43392,-0.0212 -0.0318,0 -0.0318,-0.0423 0.0529,-0.3175 0.20108,-0.3175 0.46567,0 0.81492,-0.0741 0.24342,-0.0423 0.762,-0.20109 0.0423,-0.0212 0.0635,0.0212 0.0318,0.0318 0.0106,0.0741 z" />
              </g>
            </g>
            <g
               transform="matrix(7.1459143,0,0,7.1459143,-204.41277,-526.27619)"
               id="text934"
               style="font-style:normal;font-variant:normal;font-weight:normal;font-stretch:normal;font-size:7.12845993px;line-height:1.25;font-family:RickGriffin;-inkscape-font-specification:RickGriffin;letter-spacing:0px;word-spacing:0px;fill:#e32927;fill-opacity:1;stroke:#000000;stroke-width:0.0848316;stroke-linejoin:round;stroke-miterlimit:4;stroke-dasharray:none;stroke-opacity:1"
               aria-label="DEADLY">
              <path
                 inkscape:connector-curvature="0"
                 id="path936"
                 style="font-size:7.12845993px;fill:#e32927;fill-opacity:1;stroke:#000000;stroke-width:0.0848316;stroke-linejoin:round;stroke-miterlimit:4;stroke-dasharray:none;stroke-opacity:1"
                 d="m 34.914392,84.737536 q 0.09267,0.07841 -0.01426,0.199597 -0.320781,0.356423 -0.320781,0.748488 0,0.491864 0.171083,0.83403 0.03564,0.06416 -0.02851,0.06416 -0.13544,0.07841 -0.392065,0.42058 -0.235239,0.306523 -0.441964,0.377808 -0.04277,0.0071 -0.114056,0.02139 -0.769873,-0.0998 -1.375793,-0.0998 -0.933828,0 -1.489848,0.228111 -0.01426,0.0071 -0.02139,-0.0071 -0.05703,0 -0.02851,-0.0499 0,-0.0071 0.01426,-0.01426 0.349295,-0.18534 0.577405,-0.805516 0.171083,-0.477607 0.171083,-0.819773 0,-0.08554 0.02851,-0.506121 0.02851,-0.420579 0.02851,-0.698589 0,-0.648689 -0.135441,-1.040755 -0.02851,-0.08554 -0.178211,-0.08554 -0.178212,0.0071 -0.220983,-0.02139 -0.06416,-0.04277 0,-0.06416 0.220983,-0.0998 0.242368,-0.114055 0.149698,-0.08554 0.192469,-0.206726 0.128312,-0.449093 0.128312,-0.748488 0,-0.342166 -0.163955,-0.50612 -0.114055,-0.05703 -0.37068,-0.07129 -0.0071,-0.02139 -0.01426,-0.0499 0.06416,-0.18534 0.23524,-0.18534 0.06416,0 0.13544,0.02851 0.228111,0.07128 0.484736,0.07128 0.213853,0.0071 0.677203,-0.0499 0.46335,-0.06416 0.677204,-0.05703 0.142569,0 0.242368,0.192469 0.07128,0.156826 0.178211,0.613047 0.114055,0.449093 0.213854,0.655819 0.149698,0.32078 0.399194,0.420579 0.07841,0.0499 0,0.07128 -0.09267,0 -0.178212,0.07841 -0.08554,0.07841 -0.08554,0.171083 0,0.441965 0.777002,1.005113 z m -0.769874,0.420579 q 0,-1.069269 -0.449093,-1.475591 -0.149698,-0.128312 -0.335037,-0.163954 -0.0499,-0.0071 -0.0499,-0.04277 0,-0.02851 0.0499,-0.05703 0.178211,-0.128312 0.178211,-0.498992 0,-0.349295 -0.128312,-0.598791 -0.149698,-0.32078 -0.220983,-0.399193 -0.163954,-0.192469 -0.470478,-0.192469 -0.135441,0 -0.285138,0.114056 -0.171083,0.121183 -0.213854,0.306523 -0.08554,0.434836 -0.08554,0.627305 0,0.513249 0.384937,0.605919 0.05703,0.01426 0.06416,0.05703 0,0.03564 -0.04277,0.04277 -0.163955,0.01426 -0.27801,0.171083 -0.114056,0.149698 -0.135441,0.335038 -0.02851,0.349295 -0.02851,0.712846 0,1.233224 0.299395,1.881913 0.18534,0.384937 0.634433,0.377809 0.228111,0 0.513249,-0.149698 0.399194,-0.228111 0.527507,-0.691461 0.07128,-0.285138 0.07128,-0.962342 z" />
              <path
                 inkscape:connector-curvature="0"
                 id="path938"
                 style="font-size:7.12845993px;fill:#e32927;fill-opacity:1;stroke:#000000;stroke-width:0.0848316;stroke-linejoin:round;stroke-miterlimit:4;stroke-dasharray:none;stroke-opacity:1"
                 d="m 38.760976,87.225369 q 0,0.08554 -0.02851,0.0998 -0.135441,0.07841 -0.327909,0.07841 -0.128313,0 -0.406322,-0.04277 -0.27801,-0.03564 -0.441965,-0.03564 -0.9267,0 -1.660931,0.07841 -0.05703,0.0071 -0.342166,0.05703 -0.285139,0.05703 -0.306524,0.05703 -0.05703,0 -0.05703,-0.04277 0,-0.02139 0.114056,-0.05703 0.121183,-0.02851 0.13544,-0.04277 0.299396,-0.192468 0.342166,-0.541763 0.0998,-0.883929 0.0998,-1.860528 0,-0.684332 -0.0499,-1.069269 -0.02139,-0.192468 -0.156826,-0.313652 -0.135441,-0.121184 -0.320781,-0.121184 -0.07129,0 -0.07129,-0.03564 0,-0.06416 0.07841,-0.06416 0.18534,0 0.335038,-0.135441 0.156826,-0.135441 0.178211,-0.313652 0.04277,-0.37068 0.04277,-0.506121 0,-0.634433 -0.634433,-0.634433 -0.08554,0 -0.08554,-0.07841 0,-0.149697 0.299395,-0.149697 0.171083,0 0.520378,0.06416 0.349294,0.06416 0.527506,0.06416 0.32078,0 0.962342,-0.05703 0.64869,-0.06416 0.96947,-0.06416 0.0499,0 0.0499,0.0499 0,0.02139 -0.02139,0.0499 -0.349294,0.384936 -0.434836,0.926699 v 0.03564 q -0.0071,0.06416 0.18534,0.06416 0.07841,0 0.228111,-0.02139 0.156826,-0.02851 0.235239,-0.02851 0.02139,0 0.02139,0.02851 0,0.07841 -0.05703,0.242368 -0.05703,0.156826 -0.05703,0.320781 -0.0071,0.0071 -0.01426,0.0071 -0.0998,0 -0.0998,-0.149697 0,-0.02851 0.0071,-0.07841 0.01426,-0.05703 0.01426,-0.08554 0,-0.04277 -0.02139,-0.08554 -0.04277,-0.02851 -0.07841,-0.02138 -0.620176,0.07128 -0.627305,0.07128 -0.04277,0 -0.04277,-0.03564 0,-0.0998 0.06416,-0.306523 0.06416,-0.213854 0.06416,-0.320781 0,-0.349295 -0.356423,-0.349295 -0.613048,0 -0.891058,0.192469 -0.335038,0.235239 -0.335038,0.812644 0,0.498992 0.51325,0.498992 0.192468,0 0.556019,-0.07128 0.37068,-0.07129 0.55602,-0.07129 0.18534,0 0.18534,0.206726 0,0.306523 -0.199597,0.541763 -0.0499,0.05703 -0.13544,0.0998 -0.07841,0.03564 -0.156826,0.07841 -0.07841,0.08554 -0.18534,0.178212 -0.02851,-0.01426 -0.02851,-0.07128 0,-0.121184 0.18534,-0.228111 0.192468,-0.106927 0.192468,-0.306524 0,-0.22811 -0.377808,-0.22811 -0.933828,0 -1.026498,0.37068 -0.114056,0.484735 -0.114056,1.055012 0,1.040755 0.427708,1.782115 0.121184,0.206725 0.420579,0.327909 0.256624,0.106927 0.534634,0.106927 0.213854,0 0.413451,-0.163955 0.199597,-0.171083 0.199597,-0.384937 0,-0.249496 -0.106927,-0.541763 -0.128312,-0.363551 -0.327909,-0.420579 -0.249496,-0.06416 -0.249496,-0.128312 0,-0.02851 0.0499,-0.06416 0.335038,-0.213854 0.349295,-0.228111 0.121183,-0.0998 0.242367,-0.356423 0.02139,-0.0499 0.03564,-0.0499 0.02851,0 0.02851,0.06416 0,0.06416 -0.06416,0.27801 -0.06416,0.206725 -0.06416,0.320781 0,0.256624 0.09267,0.392065 0.03564,0.05703 0.171083,0.156826 0.08554,0.06416 0.08554,0.149698 -0.0071,0.156826 -0.0071,0.156826 0,0.263753 0.128312,0.50612 0.128313,0.23524 0.128313,0.392066 z" />
              <path
                 inkscape:connector-curvature="0"
                 id="path940"
                 style="font-size:7.12845993px;fill:#e32927;fill-opacity:1;stroke:#000000;stroke-width:0.0848316;stroke-linejoin:round;stroke-miterlimit:4;stroke-dasharray:none;stroke-opacity:1"
                 d="m 43.073137,86.790533 q 0,0.02851 0.0071,0.13544 0.01426,0.106927 0.01426,0.171083 0,0.256625 -0.220982,0.285139 -0.128313,0.01426 -0.342166,-0.04277 -0.213854,-0.06416 -0.306524,-0.06416 -0.106927,0 -0.206725,0.05703 -0.14257,0.08554 -0.27801,0.171083 -0.163955,0.09267 -0.285139,0.09267 -0.03564,0 -0.02851,-0.03564 0.0071,-0.02851 0.02851,-0.04277 0.106927,-0.04277 0.313652,-0.163955 0.320781,-0.249496 0.399194,-0.712846 0.02139,-0.156826 0.02139,-0.798387 0,-0.598791 -0.384937,-1.104912 -0.384937,-0.50612 -0.962342,-0.74136 -0.08554,-0.03564 -0.163955,-0.03564 -0.192468,0 -0.235239,0.213854 -0.07128,0.299395 -0.07128,0.734231 0,1.01937 0.228111,1.710831 0.08554,0.242367 0.270881,0.392065 0.01426,0.01426 0.01426,0.03564 0.0071,0.02139 -0.01426,0.02139 -0.149697,0 -0.256624,0.156826 -0.106927,0.156826 -0.192468,0.178211 -0.06416,-0.0071 -0.356423,-0.06416 -0.220983,-0.04277 -0.356423,-0.04277 -0.342167,0 -0.534635,0.256625 -0.02139,-0.0071 -0.08554,0.01426 -0.06416,0.02851 -0.08554,0.02851 -0.03564,0 -0.03564,-0.04277 0.299395,-0.0998 0.427707,-0.477607 0.07128,-0.292267 0.142569,-0.584534 0.178212,-0.584533 0.349295,-1.176195 0.18534,-0.670076 0.192468,-1.240353 0,-0.213853 -0.07841,-0.384936 -0.106927,-0.220983 -0.299395,-0.220983 -0.128312,0 -0.263753,0.121184 -0.263753,0.27801 -0.235239,0.769874 -0.02139,-0.0071 -0.02851,0.02138 -0.121184,-0.163954 -0.121184,-0.527506 0,-0.363551 0.121184,-0.59879 0.07128,-0.14257 0.178212,-0.14257 0.06416,0 0.178211,0.07129 0.149698,0.08554 0.171083,0.09267 0.106927,0.03564 0.228111,0.03564 0.192468,0 0.285138,-0.106927 0.235239,-0.285138 0.235239,-0.712846 0,-0.313652 -0.13544,-0.556019 -0.106927,-0.192469 -0.356423,-0.135441 -0.02139,-0.01426 -0.02139,-0.0499 0.09267,-0.128313 0.220982,-0.128313 0.07841,0 0.242368,0.07129 0.171083,0.07128 0.256625,0.07128 0.04277,0 0.07841,-0.01426 0.22811,-0.07128 0.449093,-0.14257 0.299395,-0.09267 0.50612,-0.09267 0.171083,0 0.306524,0.05703 0.0499,0.02138 0.02851,0.07128 -0.0499,0.213853 -0.0499,0.434836 0,0.64869 0.342166,1.019369 0.09267,0.09267 0.299395,0.156827 0.206726,0.05703 0.256625,0.13544 0.05703,0.106927 0.01426,0.106927 -0.121184,0 -0.242368,0.09267 -0.121184,0.08554 -0.171083,0.206726 -0.128312,0.306523 -0.128312,0.620176 0,0.434836 0.285138,1.055012 0.02851,0.05703 0.149698,0.13544 0.09267,0.05703 0.09267,0.163955 -0.0499,0.356423 -0.0499,0.520378 0,0.356423 0.249496,0.498992 z m -1.304509,-2.96544 q -0.02139,-0.563148 -0.156826,-1.311636 -0.07128,-0.613048 -0.242367,-0.641562 -0.128313,-0.02138 -0.235239,0.04277 -0.220983,0.142569 -0.377809,0.520378 -0.156826,0.377808 -0.156826,0.719974 0,0.0998 0.01426,0.18534 0.0499,0.163955 0.285138,0.256625 0.18534,0.07128 0.377809,0.13544 0.07841,0.02851 0.256624,0.135441 0.128313,0.07129 0.178212,0.05703 0.05703,-0.02139 0.05703,-0.0998 z" />
              <path
                 inkscape:connector-curvature="0"
                 id="path942"
                 style="font-size:7.12845993px;fill:#e32927;fill-opacity:1;stroke:#000000;stroke-width:0.0848316;stroke-linejoin:round;stroke-miterlimit:4;stroke-dasharray:none;stroke-opacity:1"
                 d="m 47.375274,84.737536 q 0.09267,0.07841 -0.01426,0.199597 -0.320781,0.356423 -0.320781,0.748488 0,0.491864 0.171083,0.83403 0.03564,0.06416 -0.02851,0.06416 -0.135441,0.07841 -0.392066,0.42058 -0.235239,0.306523 -0.441964,0.377808 -0.04277,0.0071 -0.114056,0.02139 -0.769873,-0.0998 -1.375792,-0.0998 -0.933829,0 -1.489848,0.228111 -0.01426,0.0071 -0.02139,-0.0071 -0.05703,0 -0.02851,-0.0499 0,-0.0071 0.01426,-0.01426 0.349295,-0.18534 0.577405,-0.805516 0.171083,-0.477607 0.171083,-0.819773 0,-0.08554 0.02851,-0.506121 0.02851,-0.420579 0.02851,-0.698589 0,-0.648689 -0.135441,-1.040755 -0.02851,-0.08554 -0.178211,-0.08554 -0.178212,0.0071 -0.220982,-0.02139 -0.06416,-0.04277 0,-0.06416 0.220982,-0.0998 0.242367,-0.114055 0.149698,-0.08554 0.192469,-0.206726 0.128312,-0.449093 0.128312,-0.748488 0,-0.342166 -0.163955,-0.50612 -0.114055,-0.05703 -0.370679,-0.07129 -0.0071,-0.02139 -0.01426,-0.0499 0.06416,-0.18534 0.235239,-0.18534 0.06416,0 0.135441,0.02851 0.22811,0.07128 0.484735,0.07128 0.213854,0.0071 0.677203,-0.0499 0.46335,-0.06416 0.677204,-0.05703 0.142569,0 0.242368,0.192469 0.07128,0.156826 0.178211,0.613047 0.114056,0.449093 0.213854,0.655819 0.149698,0.32078 0.399194,0.420579 0.07841,0.0499 0,0.07128 -0.09267,0 -0.178212,0.07841 -0.08554,0.07841 -0.08554,0.171083 0,0.441965 0.777002,1.005113 z M 46.6054,85.158115 q 0,-1.069269 -0.449093,-1.475591 -0.149697,-0.128312 -0.335037,-0.163954 -0.0499,-0.0071 -0.0499,-0.04277 0,-0.02851 0.0499,-0.05703 0.178211,-0.128312 0.178211,-0.498992 0,-0.349295 -0.128312,-0.598791 -0.149698,-0.32078 -0.220982,-0.399193 -0.163955,-0.192469 -0.470479,-0.192469 -0.13544,0 -0.285138,0.114056 -0.171083,0.121183 -0.213854,0.306523 -0.08554,0.434836 -0.08554,0.627305 0,0.513249 0.384936,0.605919 0.05703,0.01426 0.06416,0.05703 0,0.03564 -0.04277,0.04277 -0.163955,0.01426 -0.27801,0.171083 -0.114055,0.149698 -0.135441,0.335038 -0.02851,0.349295 -0.02851,0.712846 0,1.233224 0.299396,1.881913 0.18534,0.384937 0.634433,0.377809 0.22811,0 0.513249,-0.149698 0.399193,-0.228111 0.527506,-0.691461 0.07128,-0.285138 0.07128,-0.962342 z" />
              <path
                 inkscape:connector-curvature="0"
                 id="path944"
                 style="font-size:7.12845993px;fill:#e32927;fill-opacity:1;stroke:#000000;stroke-width:0.0848316;stroke-linejoin:round;stroke-miterlimit:4;stroke-dasharray:none;stroke-opacity:1"
                 d="m 51.464226,87.517636 q -0.01426,0.02851 -0.0499,0.02851 -1.233224,-0.149697 -1.903299,-0.149697 -0.762745,0 -1.190453,0.149697 -0.249496,0.121184 -0.684332,0.270882 -0.09267,0.01426 -0.09267,-0.02851 0,-0.01426 0.02851,-0.02851 0.55602,-0.285138 0.691461,-1.275994 0.156826,-1.218967 0.149697,-1.910427 -0.0071,-0.306524 -0.09267,-0.705718 -0.06416,-0.249496 -0.399194,-0.292267 -0.163954,-0.02138 -0.163954,-0.142569 0,-0.06416 0.114055,-0.09267 0.213854,-0.0499 0.377809,-0.263753 0.171083,-0.220982 0.171083,-0.413451 0,-0.406322 -0.0071,-0.470478 -0.04277,-0.285138 -0.263753,-0.399194 -0.156826,-0.06416 -0.327909,0.07129 -0.03564,0.03564 -0.06416,-0.03564 -0.01426,-0.05703 0.06416,-0.228111 0.02139,-0.04277 0.07841,-0.04277 0.0998,0.02139 0.199597,0.02139 0.178211,0 0.534634,-0.07129 0.356423,-0.07841 0.548892,-0.07841 0.149697,0 0.285138,0.03564 0.04277,0.0071 0.08554,0.09267 0.04277,0.08554 0.04277,0.142569 0,0.04277 -0.0499,0.04277 -0.235239,0.04277 -0.32078,0.07129 -0.178212,0.05703 -0.249496,0.18534 -0.163955,0.313652 -0.163955,0.605919 0,0.213854 0.08554,0.441964 0.09267,0.228111 0.306524,0.263753 0.135441,0.02851 0.135441,0.128313 0,0.07128 -0.07841,0.09267 -0.313652,0.0998 -0.420579,0.299395 -0.06416,0.135441 -0.07841,0.506121 0,0.605919 0.03564,0.997984 0.08554,0.841158 0.213854,1.133425 0.228111,0.506121 0.8768,0.755617 0.106927,0.0499 0.32791,0.0499 0.220982,0 0.299395,-0.0499 0.199597,-0.135441 0.256624,-0.342166 0.03564,-0.128313 0.03564,-0.456222 -0.0071,-0.18534 -0.18534,-0.491863 -0.18534,-0.335038 -0.342166,-0.335038 -0.285139,0 -0.363552,-0.07841 -0.03564,-0.02139 0,-0.07841 0.220982,-0.384937 0.563149,-0.755617 0.220982,-0.235239 0.534634,-0.456221 0.03564,-0.02851 0.05703,-0.01426 0.199597,0.08554 0.377808,0.270881 -0.0071,0.02851 -0.0499,0.03564 -0.106927,-0.08554 -0.327909,-0.08554 -0.206726,0 -0.356423,0.135441 -0.08554,0.07841 -0.199597,0.256624 -0.114056,0.213854 -0.114056,0.356423 0,0.106927 0.05703,0.192469 0.114056,0.192468 0.342166,0.22811 0.142569,0.01426 0.285139,0.02851 0.03564,0.02139 0.02138,0.07841 -0.01426,0.06416 -0.07128,0.220983 -0.0499,0.128312 -0.0499,0.192468 0,0.0499 0.02851,0.09267 0.527506,0.670075 0.527506,1.005113 0,0.156826 -0.07841,0.292267 z" />
              <path
                 inkscape:connector-curvature="0"
                 id="path946"
                 style="font-size:7.12845993px;fill:#e32927;fill-opacity:1;stroke:#000000;stroke-width:0.0848316;stroke-linejoin:round;stroke-miterlimit:4;stroke-dasharray:none;stroke-opacity:1"
                 d="m 55.749655,81.900409 q 0,0.05703 -0.05703,0.03564 -0.121184,-0.0499 -0.249496,-0.0499 -0.377809,0 -0.520378,0.27801 -0.27801,0.548892 -0.27801,0.755617 0,0.09267 0.02138,0.178211 0.04277,0.14257 0.171083,0.156827 0.106927,0 0.213854,0.0071 0.04277,0.02139 0.02139,0.07129 -0.02139,0.09267 -0.05703,0.149697 -0.07129,0.106927 -0.18534,0.106927 -0.527506,0 -0.527506,0.527506 0,0.491864 0.270881,1.104912 0.242368,0.520377 0.484736,1.040755 0.163954,0.399193 0.192468,0.719974 0,0.406322 -0.335038,0.46335 -0.185339,0.02851 -0.434836,0.02851 -0.342166,0 -0.940956,-0.07128 -0.591662,-0.07128 -0.734232,-0.07128 -0.128312,0 -0.178211,0.02851 -0.09267,0.03564 -0.178212,0.03564 -0.163954,0 -0.22811,-0.156826 -0.05703,-0.206726 -0.05703,-0.392066 0,-0.27801 0.156826,-0.648689 0.228111,-0.534635 0.270882,-0.677204 0.13544,-0.420579 0.392065,-0.527506 0.163954,-0.05703 0.270881,0 0.04277,0.02138 0.02139,0.04277 -0.02139,0.02139 -0.05703,0.02139 -0.292267,-0.03564 -0.434836,0.313652 -0.135441,0.342166 -0.135441,0.712846 0,0.477607 0.206726,0.769874 0.285138,0.37068 0.698589,0.37068 0.128312,0 0.256624,-0.04277 0.228111,-0.07129 0.413451,-0.342166 0.192468,-0.270882 0.192468,-0.584534 0,-0.684332 -0.199597,-1.197581 -0.242367,-0.677204 -0.762745,-1.126297 -0.142569,-0.121184 -0.392065,-0.22811 -0.299395,-0.121184 -0.570277,-0.121184 -0.01426,0 -0.0499,-0.02139 -0.02851,-0.02851 -0.08554,-0.163954 -0.02138,-0.0998 0.206726,-0.128312 0.270881,-0.03564 0.327909,-0.09267 0.114055,-0.128313 0,-0.349295 -0.477607,-1.055012 -1.133425,-1.055012 -0.07841,0 -0.05703,-0.07129 0.06416,-0.149697 0.249496,-0.149697 0.08554,0 0.27801,0.04277 0.192469,0.04277 0.270882,0.03564 0.142569,-0.01426 0.434836,-0.106927 0.270881,-0.07841 0.399193,-0.07841 0.192469,0 0.32791,0.121184 0.02851,0.02139 0.02851,0.0998 0.0071,0.07841 -0.02138,0.08554 -0.01426,0.01426 -0.0499,0 -0.142569,-0.0499 -0.249496,-0.0071 -0.213854,0.07841 -0.263753,0.263753 -0.02139,0.121184 -0.02139,0.242368 0,0.677203 0.627305,1.033626 0.06416,0.02851 0.128312,0.02851 0.263753,0 0.449093,-0.46335 0.156826,-0.406322 0.156826,-0.605919 0,-0.256624 -0.178211,-0.399193 -0.128313,-0.08554 -0.270882,-0.07129 -0.02139,0.0071 -0.02851,-0.01426 -0.0071,-0.02138 0,-0.04277 0.0499,-0.163954 0.213854,-0.163954 0.07129,0 0.228111,0.04277 0.163954,0.03564 0.235239,0.03564 0.106927,0 0.356423,-0.05703 0.249496,-0.05703 0.363551,-0.05703 0.228111,0 0.342167,0.156826 0.03564,0.04277 0.03564,0.07841 z" />
            </g>
          </g>
        </g>
      </g>
    </g>
    <g
       id="g992">
      <g
         id="g1018">
        <g
           transform="matrix(0.08323056,0,0,0.08323056,100.89505,155.91197)"
           id="layer1-2"
           inkscape:label="Layer 1"
           style="stroke:#000000;stroke-width:6.05618;stroke-linecap:round;stroke-linejoin:round;stroke-miterlimit:4;stroke-dasharray:none;stroke-opacity:1">
          <g
             style="fill:none;fill-opacity:1;stroke:#000000;stroke-width:6.05618;stroke-linecap:round;stroke-linejoin:round;stroke-miterlimit:4;stroke-dasharray:none;stroke-opacity:1"
             transform="translate(-40.065476,2.2678571)"
             id="g867">
            <g
               id="g5010"
               style="stroke:#000000;stroke-opacity:1">
              <path
                 style="fill:none;fill-opacity:1;stroke:#000000;stroke-width:6.05618;stroke-linecap:round;stroke-linejoin:round;stroke-miterlimit:4;stroke-dasharray:none;stroke-opacity:1"
                 d="M 138.51595,148.5 A 33.515953,33.515953 0 0 1 105,182.01595 33.515953,33.515953 0 0 1 71.484047,148.5 33.515953,33.515953 0 0 1 105,114.98405 33.515953,33.515953 0 0 1 138.51595,148.5 Z"
                 id="path848"
                 inkscape:connector-curvature="0" />
              <path
                 style="fill:none;fill-opacity:1;stroke:#000000;stroke-width:6.05618;stroke-linecap:round;stroke-linejoin:round;stroke-miterlimit:4;stroke-dasharray:none;stroke-opacity:1"
                 d="M 114.72358,171.03357 A 9.7235875,9.7235875 0 0 1 105,180.75715 9.7235875,9.7235875 0 0 1 95.276415,171.03357 9.7235875,9.7235875 0 0 1 105,161.30998 a 9.7235875,9.7235875 0 0 1 9.72358,9.72359 z"
                 id="path848-3"
                 inkscape:connector-curvature="0" />
            </g>
          </g>
        </g>
        <g
           aria-label="sloth"
           style="font-style:normal;font-variant:normal;font-weight:500;font-stretch:normal;font-size:21.16666603px;line-height:0;font-family:slowdance;-inkscape-font-specification:'slowdance Medium';letter-spacing:0px;word-spacing:0px;fill:#000000;fill-opacity:1;stroke:#000000;stroke-width:0.4500865;stroke-linecap:round;stroke-linejoin:round;stroke-miterlimit:4;stroke-dasharray:none;stroke-opacity:1"
           id="text120"
           transform="matrix(0.36159957,0,0,0.36159957,57.579896,73.696622)">
          <g
             id="g138"
             transform="matrix(2.1798375,0,0,2.1798375,-113.40075,-257.26503)"
             style="fill:#000000;fill-opacity:1;stroke:#000000;stroke-width:0.20647709;stroke-linecap:round;stroke-linejoin:round;stroke-miterlimit:4;stroke-dasharray:none;stroke-opacity:1">
            <path
               sodipodi:nodetypes="ccccccccccccccccccccccccccccccccccccccccccccccscscscccccccccc"
               inkscape:connector-curvature="0"
               id="path122"
               style="font-style:normal;font-variant:normal;font-weight:500;font-stretch:normal;font-size:21.16666603px;line-height:0;font-family:slowdance;-inkscape-font-specification:'slowdance Medium';fill:#000000;fill-opacity:1;stroke:#000000;stroke-width:0.20647709;stroke-linecap:round;stroke-linejoin:round;stroke-miterlimit:4;stroke-dasharray:none;stroke-opacity:1"
               d="m 92.973262,229.57097 c -1.157111,0.83255 -1.594556,1.59455 -1.312333,2.286 0.05645,0.15522 0.119947,0.26105 0.1905,0.3175 0.07055,0.0565 0.176389,0.0988 0.3175,0.127 0.183444,0.0282 0.373944,-0.0635 0.5715,-0.27517 0.155222,-0.16933 0.282222,-0.37394 0.381,-0.61383 0.141111,-0.35278 0.162277,-0.74084 0.0635,-1.16417 -0.04233,-0.21167 -0.112889,-0.43744 -0.211667,-0.67733 z m -5.249333,-1.92617 c 0.338667,0.0423 0.797278,-0.0282 1.375833,-0.21166 0.395111,-0.127 0.973667,-0.34572 1.735667,-0.65617 0.02822,-0.0141 0.0635,-0.0282 0.105833,-0.0423 1.030111,-0.43745 1.756834,-0.71261 2.180167,-0.8255 0.762,-0.21167 1.291167,-0.1905 1.5875,0.0635 0.169333,0.14111 0.282222,0.32455 0.338666,0.55033 0.07056,0.21167 0.07056,0.40922 0,0.59267 -0.08467,0.21167 -0.211667,0.31044 -0.381,0.29633 -0.183444,0 -0.359833,-0.127 -0.529166,-0.381 -0.155223,-0.19755 -0.352778,-0.31044 -0.592667,-0.33867 -0.225778,-0.0282 -0.451556,0.0353 -0.677333,0.1905 -0.310445,0.21167 -0.437445,0.50095 -0.381,0.86784 0.02822,0.15522 0.09172,0.34572 0.1905,0.5715 0.04233,0.0847 0.09172,0.1905 0.148166,0.3175 0.01411,0.0423 0.0635,0.14817 0.148167,0.3175 l 0.02117,0.0212 c 0.02822,0.0565 0.05644,0.11997 0.08467,0.1905 0.197556,-0.14111 0.416278,-0.28222 0.656167,-0.42333 0.776111,-0.42333 1.566333,-0.74789 2.370666,-0.97367 0.804333,-0.23989 1.703937,-0.25673 1.952287,-0.25407 0.04337,0.19265 0.155125,0.228 0.04634,0.28241 0.01655,0.0497 -1.201349,-6e-5 -1.97746,0.22569 -0.762,0.22578 -1.516944,0.54328 -2.264833,0.9525 -0.239889,0.14111 -0.465666,0.28223 -0.677333,0.42334 0.127,0.28222 0.218722,0.54327 0.275166,0.78316 0.09878,0.47978 0.07055,0.92428 -0.08467,1.3335 -0.112889,0.26811 -0.261056,0.50095 -0.4445,0.6985 -0.268111,0.28223 -0.536223,0.40217 -0.804334,0.35984 -0.197555,-0.0423 -0.345722,-0.10583 -0.4445,-0.1905 -0.09878,-0.0988 -0.190499,-0.23989 -0.275166,-0.42334 -0.225778,-0.53622 -0.08467,-1.11477 0.423333,-1.73566 0.254,-0.31045 0.592667,-0.61384 1.016,-0.91017 -0.02822,-0.0705 -0.0635,-0.14816 -0.105833,-0.23283 -0.08467,-0.18345 -0.134056,-0.29634 -0.148167,-0.33867 -0.07055,-0.127 -0.127,-0.23283 -0.169333,-0.3175 -0.09878,-0.254 -0.162278,-0.46567 -0.1905,-0.635 -0.08467,-0.47978 0.07761,-0.86078 0.486833,-1.143 0.282222,-0.18345 0.578555,-0.254 0.889,-0.21167 0.310445,0.0423 0.557389,0.1905 0.740833,0.4445 0.127,0.18345 0.232833,0.27517 0.3175,0.27517 0.05645,0 0.09878,-0.0423 0.127,-0.127 0.04233,-0.127 0.04233,-0.27517 0,-0.4445 -0.04233,-0.16933 -0.127,-0.30339 -0.254,-0.40217 -0.225777,-0.19755 -0.677333,-0.20462 -1.354666,-0.0212 -0.409223,0.11289 -1.121834,0.381 -2.137834,0.80433 -0.01411,0.0141 -0.03528,0.0282 -0.0635,0.0423 h -0.04233 c -0.776111,0.32456 -1.361722,0.55034 -1.756833,0.67734 -0.620889,0.19755 -1.114778,0.27516 -1.481667,0.23283 -0.08467,-0.0141 -0.119944,-0.0635 -0.105833,-0.14817 0,-0.0847 0.04233,-0.127 0.127,-0.127 z" />
            <path
               sodipodi:nodetypes="ccccccccccccccccccccccccccssscccccccccccsccccccccccccsscc"
               inkscape:connector-curvature="0"
               id="path124"
               style="font-style:normal;font-variant:normal;font-weight:500;font-stretch:normal;font-size:21.16666603px;line-height:0;font-family:slowdance;-inkscape-font-specification:'slowdance Medium';fill:#000000;fill-opacity:1;stroke:#000000;stroke-width:0.20647709;stroke-linecap:round;stroke-linejoin:round;stroke-miterlimit:4;stroke-dasharray:none;stroke-opacity:1"
               d="m 98.058222,227.5178 c 1.114778,0 2.039058,-0.35983 2.772838,-1.0795 0.56444,-0.55033 1.03716,-1.35467 1.41816,-2.413 0.14111,-0.35277 0.28928,-0.80433 0.4445,-1.35466 0.0141,-0.0423 0.0424,-0.14817 0.0847,-0.3175 0.0565,-0.18345 0.0917,-0.28223 0.10583,-0.29634 0.0706,-0.22577 0.12701,-0.40922 0.16934,-0.55033 0.11289,-0.36689 0.22577,-0.635 0.33866,-0.80433 0.15523,-0.23989 0.33867,-0.35278 0.55034,-0.33867 0.19755,0.0282 0.3175,0.14814 0.35983,0.35983 0.0141,0.127 3e-5,0.29633 -0.0423,0.508 -0.0282,0.0988 -0.0635,0.20461 -0.10584,0.3175 -0.0141,0.0565 -0.0353,0.11997 -0.0635,0.1905 0,0.0141 -0.007,0.0424 -0.0212,0.0847 -0.0141,0.0282 -0.0282,0.0423 -0.0423,0.0423 -0.23989,0.66323 -0.51505,1.64395 -0.8255,2.94217 -0.31044,1.29822 -0.57855,2.58939 -0.80433,3.8735 -0.22578,1.42522 -0.35278,2.56822 -0.381,3.429 -0.0141,0.46567 0.007,0.8255 0.0635,1.0795 0.0423,0.22578 0.10583,0.34572 0.1905,0.35983 0.0282,0 0.0635,-0.0282 0.10583,-0.0847 0.0565,-0.0706 0.11291,-0.17639 0.16934,-0.3175 0.0141,-0.0141 0.0424,-0.0917 0.0847,-0.23284 0.0565,-0.127 0.0918,-0.19755 0.10584,-0.21166 0.381,-0.762 0.67733,-1.32645 0.889,-1.69334 0.62089,-1.11477 1.25589,-1.96144 1.905,-2.54 0.86077,-0.79022 1.9368,-0.90938 2.93869,-0.90938 0.0988,0 0.14816,0.0494 0.14816,0.14817 0,0.0988 -0.0494,0.14816 -0.14816,0.14816 -0.93133,0 -1.94386,0.0909 -2.74819,0.82472 -0.62089,0.56445 -1.24178,1.38289 -1.86267,2.45533 -0.19755,0.381 -0.48683,0.94545 -0.86783,1.69334 -0.0141,0.0141 -0.0494,0.0847 -0.10584,0.21166 -0.0423,0.127 -0.0706,0.20461 -0.0847,0.23284 -0.0706,0.15522 -0.14112,0.28222 -0.21167,0.381 -0.11289,0.14111 -0.23989,0.19755 -0.381,0.16933 -0.35278,-0.0565 -0.51506,-0.62797 -0.48683,-1.7145 0.0282,-0.87489 0.16225,-2.032 0.40216,-3.47133 0.21167,-1.29823 0.47272,-2.59645 0.78317,-3.89467 0.32455,-1.31233 0.61383,-2.30011 0.86783,-2.96333 l 0.0212,-0.0635 c 0.0141,-0.0423 0.0212,-0.0706 0.0212,-0.0847 0.0282,-0.0705 0.0494,-0.13405 0.0635,-0.1905 0.0423,-0.0988 0.0776,-0.1905 0.10583,-0.27517 0.0282,-0.18344 0.0353,-0.31749 0.0212,-0.40216 -0.0141,-0.0706 -0.0424,-0.10584 -0.0847,-0.10584 -0.0988,-0.0141 -0.19756,0.0564 -0.29633,0.21167 -0.0988,0.14111 -0.19756,0.381 -0.29634,0.71967 -0.0423,0.14111 -0.0988,0.32455 -0.16933,0.55033 0,0.0141 -0.0282,0.11291 -0.0847,0.29633 -0.0565,0.16933 -0.0917,0.27517 -0.10583,0.3175 -0.15522,0.55033 -0.30339,1.00895 -0.4445,1.37584 -0.40922,1.08655 -0.91016,1.92616 -1.50283,2.51883 -0.79023,0.77611 -1.778005,1.16417 -2.963338,1.16417 -0.08467,0 -0.127,-0.0494 -0.127,-0.14817 0,-0.0988 0.04233,-0.14817 0.127,-0.14817 z" />
            <path
               sodipodi:nodetypes="cccccccccccccccccccccccccccccccccccccccccccccccccccscccccccccccccccccccccsssccccccccccccccccccccccccccsscc"
               inkscape:connector-curvature="0"
               id="path126"
               style="font-style:normal;font-variant:normal;font-weight:500;font-stretch:normal;font-size:21.16666603px;line-height:0;font-family:slowdance;-inkscape-font-specification:'slowdance Medium';fill:#000000;fill-opacity:1;stroke:#000000;stroke-width:0.20647709;stroke-linecap:round;stroke-linejoin:round;stroke-miterlimit:4;stroke-dasharray:none;stroke-opacity:1"
               d="m 114.6347,228.74547 h -0.254 c -0.57855,-0.0565 -0.99483,-0.43747 -1.24883,-1.143 -0.0565,-0.14111 -0.0988,-0.28928 -0.127,-0.4445 -0.47978,0.11289 -0.84667,0.40216 -1.10067,0.86783 -0.33867,0.64911 -0.42333,1.41111 -0.254,2.286 0.11289,0.57856 0.29633,0.93134 0.55033,1.05834 0.19756,0.0847 0.45156,0.0212 0.762,-0.1905 0.26811,-0.16933 0.54328,-0.43745 0.8255,-0.80434 0.28223,-0.36689 0.49389,-0.71966 0.635,-1.05833 0.0706,-0.16933 0.14112,-0.35983 0.21167,-0.5715 z m 0.0847,-0.29633 c 0.0141,-0.0282 0.0282,-0.0564 0.0423,-0.0847 0.0141,-0.0423 0.0212,-0.0776 0.0212,-0.10583 0.0847,-0.23989 0.14817,-0.43745 0.1905,-0.59267 0.16933,-0.46567 0.28222,-1.02306 0.33866,-1.67217 0.0423,-0.36689 0.0282,-0.71261 -0.0423,-1.03716 -0.0706,-0.42333 -0.20461,-0.71967 -0.40217,-0.889 -0.39511,-0.31045 -0.74788,-0.30338 -1.05833,0.0212 -0.29633,0.32456 -0.48683,0.83962 -0.5715,1.54517 -0.0282,0.15522 -0.0423,0.32455 -0.0423,0.508 0.19755,-0.0565 0.381,-0.0776 0.55033,-0.0635 0.45155,0.0282 0.76905,0.26103 0.9525,0.6985 0.0847,0.19755 0.0353,0.33161 -0.14817,0.40217 -0.0988,0.0282 -0.23283,0.0353 -0.40216,0.0212 -0.0706,-0.0141 -0.14112,-0.0282 -0.21167,-0.0423 h -0.0847 c -0.0282,-0.0141 -0.0564,-0.0212 -0.0847,-0.0212 l -0.0423,-0.0212 c -0.15522,-0.0141 -0.30339,-0.0141 -0.4445,0 0.0423,0.14111 0.0847,0.27516 0.127,0.40216 0.21167,0.57856 0.55033,0.88901 1.016,0.93134 0.0988,0.0141 0.19756,0.0141 0.29634,0 z m -0.27517,-1.54517 c -0.21167,-0.47978 -0.62794,-0.64206 -1.24883,-0.48683 0.0141,0.14111 0.0282,0.27516 0.0423,0.40216 0.16933,-0.0141 0.33867,-0.007 0.508,0.0212 0.0141,0 0.0353,0.007 0.0635,0.0212 0.0423,0 0.0776,0.007 0.10583,0.0212 h 0.0635 c 0.0706,0.0141 0.13406,0.0212 0.1905,0.0212 0.127,0.0141 0.21872,0.0141 0.27517,0 z m -5.969,0.65617 c 0.14111,0 0.34572,0.007 0.61383,0.0212 h 0.0212 c 0.31045,0.0282 0.54328,0.0353 0.6985,0.0212 0.23989,0 0.45861,-0.0353 0.65617,-0.10583 0.0847,-0.0282 0.24694,-0.11287 0.48683,-0.254 v -0.0212 c 0.0141,0 0.0353,-0.007 0.0635,-0.0212 0.0282,-0.0141 0.0564,-0.0282 0.0847,-0.0423 0.0282,-0.0141 0.0564,-0.0282 0.0847,-0.0423 0.0423,-0.0282 0.0776,-0.0494 0.10584,-0.0635 0.0423,-0.0282 0.0776,-0.0494 0.10583,-0.0635 0.0423,-0.0282 0.0776,-0.0494 0.10583,-0.0635 0.0282,-0.0282 0.0564,-0.0494 0.0847,-0.0635 0.0282,-0.0141 0.0564,-0.0282 0.0847,-0.0423 0.29633,-0.18344 0.56444,-0.32455 0.80433,-0.42333 0.15522,-0.0706 0.30339,-0.13405 0.4445,-0.1905 0,-0.19755 0.007,-0.40216 0.0212,-0.61383 0.0988,-0.762 0.32455,-1.32645 0.67733,-1.69334 0.40922,-0.46567 0.88194,-0.47977 1.41817,-0.0423 0.254,0.19755 0.43039,0.54328 0.52916,1.03717 0.0565,0.36689 0.0706,0.74789 0.0423,1.143 -0.0565,0.66322 -0.17641,1.24177 -0.35984,1.73566 -0.0565,0.14111 -0.11997,0.33161 -0.1905,0.5715 0,0.0141 -0.007,0.0353 -0.0212,0.0635 0.0847,-0.0282 0.17639,-0.0564 0.27516,-0.0847 0.15523,-0.0423 0.33162,-0.0988 0.52917,-0.16934 l 0.5715,-0.21166 c 0.43745,-0.15523 0.80434,-0.27517 1.10067,-0.35984 0.43744,-0.11289 0.91281,-0.0546 1.29381,-0.0546 0.0988,0 0.14817,0.0494 0.14817,0.14817 0,0.0988 -0.0494,0.14816 -0.14817,0.14816 -0.35278,0 -0.79992,-0.0653 -1.20915,0.0335 -0.29633,0.0847 -0.66322,0.20461 -1.10066,0.35983 -0.28223,0.11289 -0.46567,0.18345 -0.55034,0.21167 -0.21167,0.0705 -0.39511,0.127 -0.55033,0.16933 -0.15522,0.0565 -0.30339,0.0918 -0.4445,0.10584 -0.0988,0.29633 -0.18345,0.53622 -0.254,0.71966 -0.16933,0.36689 -0.40217,0.74789 -0.6985,1.143 -0.29633,0.381 -0.59267,0.67028 -0.889,0.86784 -0.39511,0.26811 -0.74084,0.33161 -1.03717,0.1905 -0.33867,-0.16933 -0.5715,-0.58561 -0.6985,-1.24884 -0.18344,-0.94544 -0.0917,-1.77094 0.27517,-2.4765 0.29633,-0.56444 0.73378,-0.91016 1.31233,-1.03716 -0.0282,-0.11289 -0.0423,-0.22578 -0.0423,-0.33867 -0.0988,0.0282 -0.20461,0.0705 -0.3175,0.127 -0.22578,0.0988 -0.49389,0.23989 -0.80433,0.42333 -0.0141,0.0141 -0.0424,0.0353 -0.0847,0.0635 -0.0423,0.0141 -0.0847,0.0353 -0.127,0.0635 -0.0423,0.0141 -0.0917,0.0353 -0.14817,0.0635 -0.0423,0.0282 -0.0847,0.0564 -0.127,0.0847 -0.0423,0.0282 -0.0776,0.0564 -0.10583,0.0847 -0.0282,0.0141 -0.0564,0.0282 -0.0847,0.0423 l -0.0212,0.0212 c -0.254,0.14111 -0.43745,0.23283 -0.55034,0.27516 -0.21167,0.0706 -0.45861,0.11289 -0.74083,0.127 -0.16933,0 -0.40922,-0.007 -0.71967,-0.0212 h -0.0212 c -0.254,-0.0141 -0.45156,-0.0212 -0.59267,-0.0212 -0.0847,0 -0.127,-0.0494 -0.127,-0.14817 0,-0.0988 0.0423,-0.14816 0.127,-0.14816 z" />
            <path
               sodipodi:nodetypes="ccccccccccccccccccccccccccccccccccccccccccccccccccccccccccccccccccccccssccccccccccccc"
               inkscape:connector-curvature="0"
               id="path128"
               style="font-style:normal;font-variant:normal;font-weight:500;font-stretch:normal;font-size:21.16666603px;line-height:0;font-family:slowdance;-inkscape-font-specification:'slowdance Medium';fill:#000000;fill-opacity:1;stroke:#000000;stroke-width:0.20647709;stroke-linecap:round;stroke-linejoin:round;stroke-miterlimit:4;stroke-dasharray:none;stroke-opacity:1"
               d="m 124.24833,225.65514 h 0.42334 c 0.43744,-1.96145 0.82549,-3.56306 1.16416,-4.80484 0,-0.0141 0.007,-0.0353 0.0212,-0.0635 v -0.0635 c 0.0141,-0.0565 0.0282,-0.10585 0.0423,-0.14816 v -0.0635 c -0.0141,0.0282 -0.0282,0.0494 -0.0423,0.0635 -0.0847,0.15522 -0.18344,0.38805 -0.29633,0.6985 -0.21167,0.53622 -0.45861,1.25589 -0.74084,2.159 -0.0423,0.15522 -0.127,0.49389 -0.254,1.016 -0.127,0.52211 -0.23283,0.92427 -0.3175,1.2065 z m -2.56116,0.1905 c 0.21167,0 0.60678,-0.0282 1.18533,-0.0847 0.35278,-0.0423 0.635,-0.0706 0.84667,-0.0847 h 0.21166 c 0.0988,-0.31044 0.21167,-0.74083 0.33867,-1.29116 0.14111,-0.53623 0.23284,-0.88195 0.27517,-1.03717 0.28222,-0.91722 0.52916,-1.64394 0.74083,-2.18017 0.127,-0.32455 0.23283,-0.56444 0.3175,-0.71966 0.0565,-0.0988 0.10586,-0.16934 0.14817,-0.21167 0.0847,-0.0988 0.17639,-0.12701 0.27516,-0.0847 0.0847,0.0423 0.13406,0.11995 0.14817,0.23284 0.0141,0.0565 0.0141,0.13408 0,0.23283 0,0.0423 -0.0141,0.0988 -0.0423,0.16933 0,0.0141 -0.007,0.0494 -0.0212,0.10584 v 0.0212 c -0.32455,1.22767 -0.70555,2.81517 -1.143,4.7625 0.40922,0.0282 0.762,0.0988 1.05833,0.21167 0.0847,0.0282 0.10583,0.0917 0.0635,0.1905 -0.0282,0.0847 -0.0846,0.10583 -0.16933,0.0635 -0.28222,-0.0988 -0.62089,-0.16228 -1.016,-0.1905 -0.11289,0.49389 -0.21166,0.95955 -0.29633,1.397 -0.35278,1.59455 -0.59973,2.87161 -0.74084,3.83117 -0.0705,0.55033 -0.11289,0.98072 -0.127,1.29116 0,0.16933 0.007,0.29633 0.0212,0.381 0,0.0847 0.007,0.127 0.0212,0.127 0.0141,0.0141 0.0353,0.0141 0.0635,0 0.0565,-0.0423 0.12702,-0.11289 0.21166,-0.21166 0.0988,-0.0847 0.19756,-0.20461 0.29634,-0.35984 0.0705,-0.11289 0.14816,-0.23989 0.23283,-0.381 0.0141,-0.0565 0.0353,-0.10585 0.0635,-0.14816 0.0141,-0.0141 0.0212,-0.0282 0.0212,-0.0423 0.0282,-0.0282 0.0423,-0.0494 0.0423,-0.0635 0.33867,-0.60677 0.60678,-1.06538 0.80433,-1.37583 0.33867,-0.53622 0.66322,-0.99483 0.97367,-1.37583 0.86078,-0.97367 1.90459,-1.37517 2.92059,-1.50217 0.0847,-0.0141 0.13405,0.0282 0.14816,0.127 0.0141,0.0847 -0.007,0.15457 -0.10548,0.16868 -0.93133,0.127 -1.92611,0.47976 -2.73044,1.39699 -0.32455,0.36689 -0.64911,0.81139 -0.97366,1.3335 -0.19756,0.31044 -0.45862,0.76905 -0.78317,1.37583 l -0.0423,0.0635 c 0,0.0141 -0.007,0.0212 -0.0212,0.0212 -0.0282,0.0565 -0.0564,0.10585 -0.0847,0.14816 -0.0847,0.15523 -0.16228,0.28928 -0.23283,0.40217 -0.11289,0.16933 -0.21166,0.30339 -0.29633,0.40217 -0.11289,0.127 -0.21873,0.21872 -0.3175,0.27516 -0.14111,0.0706 -0.26811,0.0635 -0.381,-0.0212 -0.18345,-0.16933 -0.18345,-0.86078 0,-2.07434 0.14111,-0.95955 0.38099,-2.24366 0.71966,-3.85233 0.0988,-0.42333 0.19756,-0.86783 0.29634,-1.3335 h -0.4445 c -0.18345,0.62089 -0.381,1.12889 -0.59267,1.524 -0.28222,0.55033 -0.59266,0.91017 -0.93133,1.0795 -0.22578,0.0988 -0.54328,0.10585 -0.9525,0.0212 -0.23989,-0.0565 -0.61384,-0.16936 -1.12184,-0.33867 0,-0.0141 -0.007,-0.0212 -0.0212,-0.0212 -0.39511,-0.14111 -0.68439,-0.23283 -0.86784,-0.27516 -0.28222,-0.0847 -0.76207,-0.11873 -0.94551,-0.11873 -0.0988,0 -0.1461,-0.0599 -0.1461,-0.14457 0,-0.0988 0.0494,-0.14817 0.14816,-0.14817 0.19756,-0.0141 0.70357,0.0375 1.02812,0.1363 0.18345,0.0423 0.47272,0.13406 0.86783,0.27517 0.0141,0.0141 0.0282,0.0212 0.0423,0.0212 0.49389,0.16933 0.85372,0.28222 1.0795,0.33867 0.33867,0.0705 0.59267,0.0635 0.762,-0.0212 0.49389,-0.22577 0.93839,-0.99483 1.3335,-2.30716 h -0.10584 c -0.19755,0.0141 -0.47977,0.0353 -0.84666,0.0635 -0.57856,0.0565 -0.97367,0.0917 -1.18534,0.10583 -0.0988,0 -0.15522,-0.0423 -0.16933,-0.127 0,-0.0988 0.0494,-0.15522 0.14817,-0.16933 z" />
            <path
               id="path130"
               style="font-style:normal;font-variant:normal;font-weight:500;font-stretch:normal;font-size:21.16666603px;line-height:0;font-family:slowdance;-inkscape-font-specification:'slowdance Medium';fill:#000000;fill-opacity:1;stroke:#000000;stroke-width:0.20647709;stroke-linecap:round;stroke-linejoin:round;stroke-miterlimit:4;stroke-dasharray:none;stroke-opacity:1"
               d="m 132.54567,226.64997 q 1.05833,-0.4445 1.92616,-1.05833 2.64584,-1.8415 2.7305,-4.3815 0.0212,-0.5715 -0.0635,-0.9525 -0.10583,-0.52917 -0.40216,-0.80434 -0.27517,-0.254 -0.65617,-0.35983 -0.381,-0.127 -0.6985,-0.0635 -0.635,0.14817 -1.35467,1.9685 -0.71966,1.79917 -1.29116,4.6355 -0.10584,0.508 -0.1905,1.016 z m -0.35984,0.46567 q -1.397,0.52916 -2.7305,0.6985 -0.14816,0 -0.16933,-0.127 -0.0212,-0.14817 0.127,-0.16934 1.397,-0.16933 2.81517,-0.71966 0.10583,-0.61384 0.23283,-1.22767 0.55033,-2.70933 1.22767,-4.5085 0.80433,-2.11667 1.62983,-2.30717 0.381,-0.0847 0.8255,0.0635 0.4445,0.127 0.78317,0.42334 0.35983,0.33866 0.48683,0.9525 0.10583,0.42333 0.0847,1.03716 -0.10584,2.667 -2.8575,4.59317 -0.9525,0.67733 -2.159,1.16417 -0.27517,1.73566 -0.381,3.13266 -0.0847,0.9525 -0.0423,1.54517 0.0212,0.29633 0.0635,0.46567 0.0212,0.0635 0.0423,0.0847 0,-0.0212 0,-0.0423 0.0847,-0.23283 0.14816,-0.65617 0.0423,-0.254 0.0847,-0.55033 l 0.0423,-0.3175 q 0.1905,-1.37583 0.5715,-2.32833 0.59267,-1.43934 1.651,-1.67217 0.3175,-0.0847 0.508,0.21167 0.14817,0.21166 0.21167,0.635 0.0847,0.65616 0,1.88383 -0.0423,0.48683 -0.10583,1.12183 0,0.0847 -0.0212,0.29634 -0.0212,0.21166 -0.0423,0.40216 -0.0212,0.16934 -0.0212,0.1905 -0.0423,0.40217 -0.0423,0.508 0,0.1905 0.0212,0.29634 0,0.0423 0.0212,0.0635 0.0212,-0.0423 0.0847,-0.127 0.0212,-0.0212 0.10583,-0.14817 0.0847,-0.14817 0.14817,-0.27517 0.0847,-0.127 0.10583,-0.127 0.635,-1.016 1.18533,-1.73566 1.43934,-1.88384 2.64584,-2.37067 0.21166,-0.0847 0.42333,-0.127 0.14817,-0.0423 0.16933,0.10583 0.0423,0.14817 -0.10583,0.16934 -0.1905,0.0423 -0.381,0.10583 -1.12183,0.46567 -2.51883,2.30717 -0.55034,0.6985 -1.18534,1.69333 l -0.0847,0.14817 q -0.0847,0.127 -0.16934,0.254 -0.0847,0.127 -0.10583,0.16933 -0.0847,0.10583 -0.10583,0.16933 -0.0423,0.0212 -0.0635,0.0423 -0.0423,0.0635 -0.10584,0.0635 -0.254,0 -0.33866,-0.3175 -0.0423,-0.127 -0.0423,-0.35984 0,-0.127 0.0423,-0.55033 0,-0.0212 0.0212,-0.1905 0.0212,-0.1905 0.0423,-0.381 0.0212,-0.21167 0.0423,-0.3175 0.0635,-0.61383 0.0847,-1.10067 0.0847,-1.2065 0,-1.82033 -0.0423,-0.35983 -0.14817,-0.52917 -0.0847,-0.127 -0.21167,-0.0847 -0.91016,0.21166 -1.43933,1.524 -0.381,0.889 -0.55033,2.2225 -0.0423,0.21166 -0.0423,0.33866 -0.0423,0.3175 -0.0847,0.5715 -0.0847,0.4445 -0.16934,0.67734 -0.0423,0.16933 -0.10583,0.23283 -0.127,0.16933 -0.29633,0.0635 -0.381,-0.29633 -0.23284,-2.45533 0.10584,-1.3335 0.381,-2.9845 z"
               inkscape:connector-curvature="0" />
          </g>
        </g>
      </g>
    </g>
  </g>
</svg>
