<?xml version="1.0" encoding="UTF-8" standalone="no"?>
<!-- Created with Inkscape (http://www.inkscape.org/) -->

<svg
   xmlns:dc="http://purl.org/dc/elements/1.1/"
   xmlns:cc="http://creativecommons.org/ns#"
   xmlns:rdf="http://www.w3.org/1999/02/22-rdf-syntax-ns#"
   xmlns:svg="http://www.w3.org/2000/svg"
   xmlns="http://www.w3.org/2000/svg"
   xmlns:sodipodi="http://sodipodi.sourceforge.net/DTD/sodipodi-0.dtd"
   xmlns:inkscape="http://www.inkscape.org/namespaces/inkscape"
   width="79.184738mm"
   height="108.41711mm"
   viewBox="0 0 79.184738 108.41711"
   version="1.1"
   id="svg1707"
   inkscape:version="0.92.2 (unknown)"
   sodipodi:docname="spiga.svg">
  <defs
     id="defs1701" />
  <sodipodi:namedview
     id="base"
     pagecolor="#ffffff"
     bordercolor="#666666"
     borderopacity="1.0"
     inkscape:pageopacity="0.0"
     inkscape:pageshadow="2"
     inkscape:zoom="0.98994949"
     inkscape:cx="19.091476"
     inkscape:cy="164.8704"
     inkscape:document-units="mm"
     inkscape:current-layer="layer1"
     showgrid="false"
     inkscape:window-width="1920"
     inkscape:window-height="956"
     inkscape:window-x="0"
     inkscape:window-y="30"
     inkscape:window-maximized="1" />
  <metadata
     id="metadata1704">
    <rdf:RDF>
      <cc:Work
         rdf:about="">
        <dc:format>image/svg+xml</dc:format>
        <dc:type
           rdf:resource="http://purl.org/dc/dcmitype/StillImage" />
        <dc:title></dc:title>
      </cc:Work>
    </rdf:RDF>
  </metadata>
  <g
     inkscape:label="Layer 1"
     inkscape:groupmode="layer"
     id="layer1"
     transform="translate(-64.585247,-68.475427)">
    <path
       style="fill:#000000;stroke-width:0.26458332"
       d="m 104.64594,176.21827 c -0.18083,-0.46657 -0.22585,-1.58826 -0.12018,-2.99491 0.0929,-1.23693 0.0478,-3.30602 -0.10015,-4.59798 l -0.26909,-2.34901 -3.00152,-4.53015 c -1.65084,-2.49159 -3.41062,-5.22559 -3.91064,-6.07556 -0.97459,-1.65671 -3.89666,-4.74895 -5.73548,-6.0695 -0.61923,-0.4447 -1.08128,-0.85314 -1.02676,-0.90766 0.16187,-0.16187 2.71615,0.87641 3.98417,1.61952 1.88278,1.10339 3.61274,3.00713 5.26923,5.79857 0.84849,1.42983 1.587,2.5554 1.64114,2.50127 0.0858,-0.0858 -0.44243,-1.52199 -3.09274,-8.40825 -1.00606,-2.61402 -3.26318,-6.65522 -6.57607,-11.77396 -5.131984,-7.9294 -7.197021,-10.41586 -12.768265,-15.37395 -3.163035,-2.81493 -4.034733,-3.43472 -6.684993,-4.75314 -1.676215,-0.83387 -2.998577,-1.56521 -2.938581,-1.6252 0.190041,-0.19004 3.393581,0.47622 4.728313,0.98337 2.014566,0.76548 6.335279,3.81849 8.630349,6.09819 2.17421,2.15965 5.569367,5.99787 8.530427,9.64365 1.86894,2.30109 3.90527,5.49804 5.93297,9.31448 0.71165,1.33943 1.33372,2.3955 1.38239,2.34683 0.0487,-0.0487 -0.43582,-1.80213 -1.07664,-3.89658 -1.7558,-5.73863 -2.31392,-6.65443 -4.81274,-7.89702 -1.4536,-0.72284 -2.77812,-1.90272 -2.77812,-2.47474 0,-0.0793 0.42958,0.0354 0.95464,0.25478 0.52505,0.21938 1.00737,0.34613 1.07183,0.28167 0.0645,-0.0645 -0.2435,-0.24294 -0.68436,-0.39663 -0.75633,-0.26365 -1.86813,-1.65754 -1.87029,-2.3448 -5.3e-4,-0.20472 0.3215,-0.27382 0.92505,-0.19844 0.50932,0.0636 1.34543,0.16813 1.85801,0.23228 0.54339,0.068 0.86783,0.0128 0.77814,-0.1323 -0.0846,-0.1369 -0.48239,-0.24891 -0.88395,-0.24891 -0.40156,0 -1.3454,-0.18272 -2.09742,-0.40605 -1.19629,-0.35525 -1.49437,-0.59518 -2.3832,-1.91823 -1.565122,-2.32973 -1.547033,-2.28401 -0.818682,-2.0693 0.350176,0.10322 1.409992,0.29265 2.355142,0.42093 1.46934,0.19945 1.83828,0.36402 2.5451,1.13529 0.45466,0.49612 1.0732,1.56099 1.37453,2.36637 0.30134,0.80539 0.7927,1.86592 1.09193,2.35673 0.70288,1.15291 0.68907,1.23715 -0.18158,1.10767 -0.68821,-0.10235 -0.67747,-0.0801 0.19844,0.41049 l 0.92604,0.5187 0.14387,-1.16226 c 0.0955,-0.77124 0.38809,-1.41717 0.86981,-1.91998 0.39927,-0.41675 0.8563,-1.22281 1.01561,-1.79123 0.24794,-0.88463 0.32005,-0.95728 0.50065,-0.50434 0.40173,1.00753 0.25139,3.39279 -0.32055,5.08602 l -0.56874,1.68374 0.57622,2.17137 c 0.31692,1.19426 1.15853,4.01684 1.87025,6.27242 0.71171,2.25557 1.80699,5.94651 2.43395,8.20208 l 1.13992,4.10104 0.19041,-1.32292 c 0.85445,-5.93678 1.85985,-20.797 1.54002,-22.76214 -0.27789,-1.70736 -0.49022,-2.13093 -1.58767,-3.16702 -0.91399,-0.86289 -1.85062,-2.48783 -1.85062,-3.21058 0,-0.39807 0.0728,-0.38557 0.59531,0.10214 0.32742,0.30562 0.93467,0.63993 1.34944,0.74291 0.41477,0.10299 1.14779,0.58092 1.62895,1.06207 l 0.87482,0.87482 0.1766,-0.71172 c 0.0971,-0.39145 0.43567,-0.99882 0.75231,-1.3497 0.62311,-0.69052 0.11635,-0.50891 -0.75298,0.26985 -0.51908,0.465 -0.5835,0.45606 -2.17499,-0.30197 -1.75431,-0.83556 -2.44946,-1.71927 -2.44946,-3.11385 v -0.76752 l 1.53632,0.73174 c 1.81943,0.8666 2.08562,1.14802 2.38115,2.51753 0.22058,1.0222 0.22696,1.01023 0.42949,-0.80677 0.19103,-1.71376 0.2833,-1.9161 1.30275,-2.85691 0.60344,-0.55689 1.34782,-1.24497 1.65418,-1.52905 0.76243,-0.70703 0.89923,-0.65435 0.89172,0.34336 -0.0125,1.66839 -0.54216,3.23059 -1.39739,4.1219 l -0.8451,0.88076 0.74745,-0.33695 c 0.4111,-0.18533 0.94089,-0.70073 1.17732,-1.14535 0.35393,-0.66558 0.44825,-0.72181 0.53392,-0.31833 0.20346,0.95813 -0.51162,2.8991 -1.5131,4.10709 -1.7707,2.1358 -1.77529,2.15639 -2.13077,9.55807 -0.14328,2.98318 -0.32367,6.49552 -0.40087,7.80521 l -0.14038,2.38125 0.53766,-2.11667 c 0.29572,-1.16417 0.76329,-2.83104 1.03906,-3.70417 0.27577,-0.87312 1.04462,-3.67109 1.70857,-6.2177 0.66395,-2.54662 1.74516,-6.41615 2.4027,-8.59896 1.87212,-6.2148 1.90928,-6.52672 1.06787,-8.9645 -0.56877,-1.64787 -0.67305,-2.30952 -0.52902,-3.35669 0.21616,-1.57169 0.53324,-1.86733 0.76421,-0.71252 0.0933,0.46658 0.54894,1.23965 1.0125,1.71792 0.58806,0.60672 0.88643,1.21213 0.98703,2.00273 l 0.14419,1.13312 1.05833,-0.62779 1.05833,-0.62779 -0.85989,0.14708 c -0.97749,0.1672 -0.99672,0.13403 -0.49011,-0.84564 0.66367,-1.2834 1.3622,-1.69578 3.19355,-1.88533 0.95058,-0.0984 1.72833,-0.0775 1.72833,0.0464 0,0.39163 -0.74198,1.67877 -1.17481,2.03799 -0.22877,0.18986 -0.80217,0.44579 -1.27422,0.56873 -0.83325,0.217 -0.83513,0.22059 -0.0645,0.12327 0.43656,-0.0551 1.0914,-0.19176 1.45521,-0.30361 l 0.66145,-0.20338 -0.69099,0.90624 c -0.38004,0.49844 -1.03489,1.08152 -1.45521,1.29575 -3.11158,1.58589 -3.67458,2.43261 -5.29178,7.95852 -0.63853,2.18187 -1.15986,4.05364 -1.15849,4.1595 0.003,0.22484 0.85343,-1.27034 3.13497,-5.51109 0.9048,-1.68176 2.31397,-3.94395 3.1315,-5.02709 2.54916,-3.37736 7.61747,-9.2869 9.7826,-11.40631 2.62492,-2.56949 6.6059,-5.26602 8.8358,-5.98498 1.84078,-0.5935 3.95223,-0.9905 3.95223,-0.7431 0,0.0843 -1.30769,0.80916 -2.90598,1.61074 -2.49313,1.25035 -3.42345,1.92138 -6.54844,4.72333 -5.16622,4.63218 -7.66998,7.75744 -12.85683,16.04829 -2.98972,4.77887 -5.27211,9.01715 -6.19823,11.50977 -1.2027,3.23701 -2.97594,8.29415 -2.97594,8.48714 0,0.1292 0.77126,-1.07271 1.71391,-2.67091 2.40637,-4.07985 4.49719,-5.90636 8.20797,-7.17041 l 1.05833,-0.36052 -0.66146,0.54175 c -4.09865,3.35686 -5.26316,4.80443 -8.07398,10.03649 -1.13358,2.11005 -2.46776,4.47664 -2.96484,5.25908 -0.96446,1.51811 -1.64719,4.55756 -1.65656,7.37478 -0.008,2.44636 0.42763,1.49386 1.02889,-2.24896 0.52894,-3.29264 0.72248,-3.91937 2.03864,-6.6015 1.25966,-2.56701 1.74435,-3.25121 3.62281,-5.11408 1.19272,-1.18283 2.39131,-2.27215 2.66353,-2.42073 0.55444,-0.3026 0.59093,-0.38579 -0.77515,1.76704 -2.56053,4.03518 -4.08467,8.19363 -5.01034,13.67021 -0.67939,4.01951 -2.07254,10.62896 -3.08589,14.6402 -0.37927,1.5013 -0.50858,2.73204 -0.44477,4.23334 0.086,2.02465 0.0641,2.12034 -0.50493,2.20116 -0.44681,0.0635 -0.66686,-0.1012 -0.88401,-0.66146 z M 94.2503,129.40779 c -0.57943,-1.70054 -0.54377,-3.23522 0.0977,-4.20631 0.88954,-1.34652 1.01699,-1.57019 1.20616,-2.11666 0.16116,-0.46557 0.2301,-0.41858 0.57359,0.39095 0.21473,0.50606 0.4544,1.54011 0.53261,2.29788 0.12343,1.19596 0.0415,1.54117 -0.62065,2.61626 -0.41956,0.68119 -0.89739,1.47189 -1.06184,1.75713 -0.26939,0.46724 -0.34147,0.39402 -0.72761,-0.73925 z m -2.00974,-4.16223 c -0.80704,-1.67594 -0.84768,-1.88464 -0.55635,-2.85703 0.17286,-0.57695 0.68162,-1.57014 1.13057,-2.20708 0.44896,-0.63693 0.82223,-1.49439 0.8295,-1.90547 0.007,-0.41108 -0.49164,-2.53335 -1.10869,-4.71616 -1.08508,-3.83849 -1.68061,-7.07193 -1.14516,-6.21771 0.13683,0.21828 0.33418,0.98751 0.43856,1.70939 0.10437,0.72189 0.40923,1.91251 0.67745,2.64584 0.83005,2.26938 2.3887,7.99717 2.55247,9.37994 0.16387,1.38366 -0.27452,2.90203 -1.22453,4.24124 -0.26403,0.37219 -0.53476,0.91484 -0.60162,1.20588 -0.0905,0.39405 -0.34386,0.0675 -0.9922,-1.27884 z m -1.42874,-0.917 c -0.10799,-0.17474 -0.52489,-0.3177 -0.92646,-0.3177 -1.53468,0 -3.585062,-0.83105 -4.551661,-1.84485 -0.947102,-0.99336 -3.702061,-4.81952 -5.625198,-7.81244 -0.561037,-0.87313 -1.44711,-2.0318 -1.969052,-2.57483 -0.521942,-0.54304 -0.870302,-1.06602 -0.774133,-1.16219 0.288612,-0.28861 0.911845,0.38327 3.017541,3.25307 1.102887,1.5031 2.045345,2.73291 2.09435,2.73291 0.128648,0 -1.167769,-2.16393 -2.853229,-4.7625 -1.600145,-2.46704 -2.904337,-4.16211 -5.445531,-7.07761 -1.737628,-1.99357 -1.833046,-2.52513 -0.195128,-1.08702 0.81362,0.71437 3.984948,4.50272 5.50803,6.57968 l 0.483185,0.6589 -0.373264,-0.66145 c -1.451416,-2.57205 -2.124985,-3.6232 -3.871088,-6.0411 -1.168291,-1.61779 -3.056319,-3.74808 -4.624904,-5.218359 -1.457868,-1.36651 -2.59127,-2.54396 -2.51867,-2.61656 0.275298,-0.2753 2.821377,1.70956 4.601536,3.58724 1.960339,2.067729 3.423633,4.048429 5.548696,7.510649 1.659555,2.7038 2.739267,4.10104 3.169068,4.10104 0.186856,0 -0.03151,-0.39864 -0.485253,-0.88587 -0.453745,-0.48723 -1.68924,-2.31894 -2.745543,-4.07046 -1.056304,-1.75152 -2.657549,-4.22069 -3.558322,-5.48704 -1.618704,-2.275649 -6.24419,-7.194589 -8.808626,-9.367479 l -1.322917,-1.12093 1.159396,0.61017 c 3.18392,1.67561 7.185088,5.93593 11.168226,11.891569 2.148952,3.21315 2.83699,4.04923 3.59175,4.36459 0.51348,0.21455 1.130275,0.33789 1.370656,0.27409 0.402507,-0.10683 0.402161,-0.11843 -0.0044,-0.1467 -0.612383,-0.0426 -1.448473,-1.52832 -1.616326,-2.87223 -0.283895,-2.273 -6.760452,-11.837969 -12.548258,-18.532019 -2.257383,-2.61083 -2.1027,-3.05926 0.202436,-0.58685 2.883649,3.09289 7.032715,8.4488 10.248247,13.22916 2.090978,3.108549 3.250351,4.577969 4.026308,5.103059 1.123564,0.76032 2.09669,2.41859 2.107599,3.59149 0.0054,0.57542 -0.07255,0.61178 -0.986376,0.46036 l -0.992188,-0.1644 0.724242,0.40622 c 0.40251,0.22577 0.795911,0.72649 0.885574,1.12715 0.08873,0.3965 0.259242,1.10787 0.37891,1.58081 0.204338,0.80757 0.174601,0.86092 -0.488699,0.87667 l -0.706277,0.0168 0.656018,0.26175 c 0.36081,0.14395 0.879844,0.46383 1.153409,0.71083 0.552284,0.49865 2.140173,3.4918 1.852428,3.4918 -0.100222,0 0.06804,0.26789 0.373917,0.59531 0.305881,0.32742 0.877971,1.33945 1.271331,2.24896 0.39336,0.9095 0.81698,1.65364 0.94138,1.65364 0.30795,0 1.87564,3.1443 1.75225,3.51446 -0.0699,0.20973 -0.15584,0.20339 -0.29499,-0.0217 z m -3.34011,-4.4614 c -2.022544,-0.31458 -3.128227,-0.73268 -3.956924,-1.49624 l -0.914211,-0.84235 0.678985,0.92604 c 0.783641,1.06878 1.970243,1.56653 3.662978,1.53653 0.654842,-0.0116 0.892972,-0.0674 0.529172,-0.12398 z m -0.926047,-3.7938 c -0.08994,-0.14552 -0.424385,-0.25622 -0.743219,-0.24599 -0.558896,0.0179 -0.56071,0.0268 -0.05053,0.24599 0.728262,0.31294 0.987161,0.31294 0.79375,0 z m -2.439056,-0.57142 c -0.852229,-0.19102 -1.405996,-0.57533 -2.342011,-1.62532 l -1.225872,-1.37514 0.718781,1.19063 c 0.98977,1.63951 1.645433,2.10921 2.906908,2.08245 l 1.058334,-0.0224 -1.11614,-0.25017 z m 6.038413,5.61818 c -0.45168,-0.97992 -0.82123,-1.96845 -0.82123,-2.19673 0,-0.22827 0.35719,-1.09407 0.79375,-1.92399 0.43656,-0.82992 0.79375,-1.80281 0.79375,-2.16198 0,-0.35917 -0.52727,-2.10763 -1.17171,-3.88546 -1.8918,-5.21896 -3.296396,-11.547349 -2.56294,-11.547349 0.16228,0 0.29507,0.2446 0.29507,0.54357 0,1.259009 1.66302,7.351859 2.933,10.745669 2.69379,7.19871 2.70504,7.23815 2.37781,8.33036 -0.16262,0.54278 -0.63781,1.63728 -1.05598,2.43223 l -0.7603,1.44535 z m 14.27632,0.926 c -0.17804,-0.21452 -0.84939,-0.64451 -1.49189,-0.95554 -0.6425,-0.31103 -1.39848,-0.85829 -1.67996,-1.21614 -0.5495,-0.69857 -1.48167,-4.28846 -1.1846,-4.56203 0.0986,-0.0908 0.23373,-0.0123 0.30031,0.17444 0.0666,0.18674 0.81209,0.68837 1.65669,1.11472 2.05269,1.03619 2.56576,1.74542 2.79218,3.85972 0.19861,1.8546 0.11412,2.19555 -0.39273,1.58483 z m 0.64535,-2.40089 c -0.0844,-0.7276 -0.14289,-1.79916 -0.12999,-2.38125 0.0129,-0.58208 -0.0552,-1.91894 -0.15134,-2.9708 -0.15393,-1.68419 -0.10492,-2.03159 0.4106,-2.91042 l 0.5854,-0.99794 -0.68816,0.64143 -0.68816,0.64143 v -2.04789 c 0,-2.25254 0.1662,-2.71259 1.53124,-4.23856 l 0.92569,-1.03483 -0.15865,-3.46309 c -0.0873,-1.904689 -0.47195,-5.963389 -0.85486,-9.019329 -0.65631,-5.23797 -0.73259,-8.19921 -0.24362,-9.45885 0.40157,-1.03451 0.52107,-0.27716 0.5429,3.44073 0.0157,2.68226 0.25687,5.63777 0.77162,9.45771 0.47233,3.50514 0.75689,6.825979 0.77085,8.995829 0.0198,3.08139 -0.04,3.5577 -0.57403,4.57382 -0.55421,1.05445 -0.56036,1.11508 -0.0873,0.86193 0.79397,-0.42492 1.02715,-1.66668 1.1698,-6.2295 0.16159,-5.168849 1.07006,-10.715619 1.75504,-10.715619 0.11876,0 0.11683,0.44648 -0.004,0.99218 -0.6258,2.81925 -1.07589,7.435229 -1.25321,12.852659 l -0.19769,6.03964 -1.64985,1.57005 c -0.90742,0.86354 -1.64985,1.71026 -1.64985,1.88161 0,0.17135 0.2362,0.058 0.52489,-0.25185 0.28869,-0.30987 1.04571,-0.92174 1.68227,-1.3597 1.45395,-1.00035 1.68105,-1.61282 1.87463,-5.05584 0.20959,-3.72774 0.67353,-7.21625 1.00283,-7.54063 0.18135,-0.17864 0.2193,0.0362 0.11684,0.66146 -0.0835,0.50932 -0.2723,2.89057 -0.41962,5.29167 -0.54425,8.8705 -0.65282,9.28087 -3.04295,11.50128 l -1.71754,1.59559 -0.15345,-1.32292 z m -17.17526,-2.57968 c -0.39098,-0.90951 -0.820428,-1.83224 -0.954334,-2.05052 -0.133906,-0.21829 -0.693476,-1.11125 -1.24349,-1.98438 -0.956948,-1.51912 -1.001878,-1.69295 -1.043023,-4.03556 l -0.043,-2.44806 -3.769378,-6.1509 c -5.189088,-8.467589 -7.76479,-13.434929 -7.223729,-13.931229 0.09424,-0.0864 0.217331,-0.0298 0.273544,0.12582 0.364502,1.00926 13.3191,22.655679 13.3191,22.255489 0,-0.24737 -2.946702,-6.01932 -5.292905,-10.367639 -1.959214,-3.6311 -3.096691,-6.70506 -2.767203,-7.47817 0.149279,-0.35027 0.250537,-0.21594 0.426476,0.5658 0.335115,1.48899 1.939979,4.80415 5.56131,11.487989 4.146312,7.65279 4.974882,9.55435 4.981102,11.43167 0.005,1.3443 -0.91338,4.21663 -1.35129,4.22882 -0.0893,0.002 -0.4822,-0.73963 -0.87318,-1.64913 z m -0.15828,-4.29004 c 0.42247,-1.26954 0.4983,-1.83212 0.2942,-2.18282 -0.2329,-0.40017 -0.2762,-0.34598 -0.28302,0.35417 -0.004,0.45465 -0.18663,1.33282 -0.40492,1.9515 -0.404425,1.14627 -0.483959,1.5875 -0.286151,1.5875 0.0609,0 0.366841,-0.76966 0.679891,-1.71035 z m 16.57533,4.75077 c -0.0842,-0.21954 -0.48393,-0.5418 -0.8882,-0.71614 -3.02847,-1.30598 -3.66792,-2.45178 -5.5054,-9.86491 -0.68533,-2.76489 -1.41041,-5.34859 -1.61128,-5.74154 -0.42148,-0.82451 -0.48449,-1.639439 -0.10882,-1.407259 0.30477,0.18836 1.2826,3.218649 2.4186,7.495189 0.45191,1.70126 0.95079,3.25207 1.10862,3.44624 0.15782,0.19418 1.09439,0.75966 2.08126,1.25664 2.10769,1.06142 2.5509,1.73326 2.78298,4.21861 0.15366,1.64545 0.0457,2.156 -0.27776,1.31317 z m 10.17123,-1.9336 c -0.0113,-0.19161 -0.31447,-0.7338 -0.67377,-1.20486 -1.44038,-1.88843 -1.63567,-3.70187 -0.65904,-6.11967 l 0.32062,-0.79375 0.21763,0.76219 c 0.11969,0.4192 0.44701,1.01451 0.72736,1.32291 0.80752,0.88831 1.10659,1.64006 1.08453,2.72615 -0.0193,0.95157 -0.97342,4.05303 -1.01733,3.30703 z m 1.567,-2.16464 c 0,-0.54366 1.27636,-2.78407 1.93715,-3.40031 0.46347,-0.43223 1.13664,-0.67866 2.209,-0.80868 0.84832,-0.10284 1.81028,-0.3333 2.1377,-0.51211 0.32742,-0.17881 0.5942,-0.23163 0.59283,-0.11737 -0.004,0.3528 -1.50344,2.82084 -2.08721,3.43598 -0.5653,0.59568 -2.05762,1.13328 -3.15322,1.13592 -0.33699,7.9e-4 -0.843,0.12472 -1.12448,0.27536 -0.35754,0.19136 -0.51177,0.18871 -0.51177,-0.009 z m -13.85565,-1.68749 c -2.10415,-1.30563 -2.37712,-1.71319 -2.94596,-4.39844 -1.24633,-5.88342 -1.55344,-7.18759 -2.13398,-9.062199 -0.3493,-1.12791 -1.06275,-3.19255 -1.58544,-4.58809 -0.52269,-1.39555 -0.88959,-2.59813 -0.81532,-2.67239 0.24126,-0.24126 1.69126,2.92478 2.63575,5.75513 0.507,1.51929 1.24008,4.185929 1.62908,5.925869 0.38899,1.73995 0.82045,3.37504 0.9588,3.63354 0.13834,0.25851 0.89164,0.77282 1.67398,1.14293 1.7857,0.84477 2.30015,1.6245 2.47029,3.74405 0.0741,0.92257 0.0886,1.67059 0.0323,1.66226 -0.0563,-0.008 -0.92007,-0.52253 -1.91948,-1.14266 z m 12.84166,-2.00475 c -1.36279,-2.75713 -1.35986,-2.84908 0.27876,-8.74369 0.58657,-2.110049 1.31937,-4.937509 1.62846,-6.283229 0.30909,-1.34573 0.65667,-2.44706 0.7724,-2.4474 0.29194,-7.9e-4 0.033,1.3778 -1.06846,5.68792 -1.39608,5.463209 -1.39847,5.653329 -0.0956,7.593649 1.31559,1.95925 1.38292,2.90386 0.35747,5.01535 l -0.72678,1.4965 z m 3.12723,-0.92947 c 0.42919,-1.12885 1.3078,-2.74445 1.58603,-2.9164 0.14698,-0.0908 0.67482,-1.04731 1.17296,-2.12547 0.64141,-1.38824 1.16291,-2.12499 1.78705,-2.52464 0.68251,-0.43703 0.74459,-0.53358 0.27516,-0.42796 -0.52113,0.11726 -0.58186,0.0559 -0.43285,-0.43699 0.40208,-1.330119 1.81253,-3.083309 2.75883,-3.429239 0.25803,-0.0943 0.18685,-0.15238 -0.20348,-0.16597 -0.64369,-0.0224 -0.64326,0.009 -0.0328,-2.43691 0.25345,-1.01546 0.62529,-1.25589 2.80096,-1.81108 1.31281,-0.33501 1.42551,-0.46867 4.84056,-5.7412 2.04788,-3.16172 3.21037,-4.62968 5.46908,-6.90616 2.76465,-2.78641 5.25246,-4.77448 5.57323,-4.4537 0.0848,0.0847 -0.1915,0.4102 -0.6139,0.72322 -1.39495,1.03375 -6.82834,6.68318 -8.23994,8.56757 -0.76258,1.018 -2.54432,3.79662 -3.95942,6.17469 -1.4151,2.37807 -2.91366,4.61049 -3.33014,4.96094 -0.42426,0.35699 -0.59555,0.63716 -0.38955,0.63716 0.61102,0 1.62436,-1.29322 3.62811,-4.63021 2.38977,-3.97986 4.32883,-6.53242 6.51815,-8.58042 1.54698,-1.44712 3.285,-2.6446 3.285,-2.26334 0,0.0825 -1.28928,1.42503 -2.86508,2.98336 -2.74918,2.71871 -5.36064,6.23726 -7.60134,10.24165 -0.95815,1.71232 -0.82912,1.57892 1.53542,-1.5875 1.9809,-2.65267 4.2765,-5.15937 4.72488,-5.15937 0.13171,0 -0.84309,1.33945 -2.16624,2.97656 -2.44794,3.02881 -4.3919,5.83966 -6.17568,8.92969 -1.22144,2.115889 -1.01925,1.918219 1.55611,-1.52136 1.83496,-2.45073 2.52526,-3.13095 2.52526,-2.4884 0,0.12297 -0.24021,0.44096 -0.53379,0.70666 -0.29359,0.26569 -2.02603,2.70741 -3.84986,5.426049 -1.82384,2.71864 -3.69699,5.30625 -4.16256,5.75026 -0.90416,0.86228 -2.88652,1.65179 -4.14742,1.65179 -0.42289,0 -0.84247,0.11906 -0.93241,0.26458 -0.33938,0.54912 -0.64424,0.25373 -0.4003,-0.38786 z m 5.03051,-3.97447 c 1.37315,-0.18722 2.23236,-0.6777 2.67082,-1.52465 0.27263,-0.52664 0.21816,-0.51093 -0.47221,0.13614 -0.54338,0.5093 -1.32521,0.84545 -2.57422,1.10677 -0.98661,0.20643 -1.87102,0.4525 -1.96534,0.54683 -0.0943,0.0943 0.1259,0.10979 0.48941,0.0344 0.3635,-0.0754 1.1967,-0.21018 1.85154,-0.29946 z m 3.35313,-4.73878 c 0.41135,-0.348949 0.96959,-1.033559 1.24052,-1.521359 0.45476,-0.81874 0.41409,-0.79861 -0.52916,0.26204 -0.76328,0.85827 -1.35647,1.238639 -2.3447,1.503499 l -1.32292,0.35455 1.10418,0.0179 c 0.79874,0.0129 1.31107,-0.15765 1.85208,-0.61659 z m -23.21136,7.89304 c -0.18912,-0.22787 -0.70971,-0.59899 -1.15688,-0.8247 -1.96489,-0.99179 -2.54282,-2.23031 -3.58494,-7.682549 -1.03676,-5.42417 -2.08013,-8.76843 -3.86308,-12.38204 -0.93465,-1.89433 -1.69878,-3.5612 -1.69806,-3.70416 0.002,-0.42868 1.26306,1.21778 2.24423,2.93051 1.12538,1.96443 2.53394,6.19287 3.29999,9.90643 1.06989,5.186449 1.29509,5.790089 2.36475,6.338729 1.21063,0.62095 2.10978,1.58203 2.39164,2.55638 0.16761,0.57942 0.21262,0.34513 0.1877,-0.97713 -0.0279,-1.47775 0.097,-1.9951 0.8305,-3.44013 l 0.86328,-1.700799 -0.80016,-5.55571 c -1.50966,-10.48198 -1.99642,-15.45289 -1.63218,-16.66822 0.33672,-1.12348 0.42188,-0.72162 1.09345,5.15938 0.32403,2.83765 1.05099,8.37406 1.61545,12.30312 1.39608,9.717659 1.39978,9.644009 -0.60278,11.997319 -0.82083,0.96461 -0.92959,1.00167 -1.09155,0.37195 -0.0655,-0.25466 -0.076,0.043 -0.0235,0.66146 0.10577,1.24381 0.0628,1.31348 -0.43789,0.71016 z m 14.56775,-0.44557 c 5.3e-4,-0.1819 -0.42607,-1.17382 -0.94828,-2.20426 -1.11863,-2.20735 -1.13913,-2.04856 1.0046,-7.783759 1.34729,-3.60448 2.94155,-9.39441 3.27138,-11.8808 0.0984,-0.7416 0.28259,-1.34837 0.40937,-1.34837 0.72819,0 -0.38993,5.64201 -2.16214,10.91015 -0.72134,2.14428 -1.31153,4.25235 -1.31153,4.6846 0,0.432249 0.2945,1.219899 0.65446,1.750319 1.0704,1.57732 1.10764,2.49672 0.18134,4.47618 -0.78394,1.67525 -1.10165,2.07872 -1.0992,1.39594 z m 1.73993,-5.10272 c -0.99554,-1.74644 -1.00918,-3.545259 -0.0461,-6.075929 0.38767,-1.01865 2.24435,-4.79268 4.12596,-8.38674 3.51575,-6.71545 4.49446,-8.79972 5.31773,-11.32472 l 0.47447,-1.45521 0.0142,1.1455 c 0.0187,1.50846 -0.88998,3.73998 -3.62778,8.90867 -2.40061,4.53211 -4.36006,8.62259 -4.20482,8.77782 0.0523,0.0523 0.49234,-0.65111 0.97778,-1.5632 0.48544,-0.9121 1.85005,-3.26571 3.03246,-5.23024 1.18242,-1.96454 3.73437,-6.40508 5.67101,-9.86787 1.93664,-3.46279 3.57817,-6.23897 3.64786,-6.16929 0.33159,0.33159 -1.7284,4.89398 -3.95579,8.76111 -1.62401,2.81957 -4.74783,8.17709 -5.29722,9.08504 l -0.53427,0.88295 1.36575,-1.0337 c 1.06294,-0.80451 1.97956,-1.98662 4.13428,-5.33175 3.20454,-4.97493 6.46526,-9.36924 9.45291,-12.7392 2.334,-2.63267 3.32001,-3.23431 1.39527,-0.85136 -7.15763,8.86158 -12.23357,16.5791 -12.96416,19.71088 -0.45602,1.95478 -0.95781,2.72747 -1.90541,2.93412 -0.41004,0.0894 -1.01342,0.23886 -1.34084,0.3321 -0.52434,0.14931 -0.59531,0.0733 -0.59531,-0.63787 0,-0.44406 0.11611,-1.11279 0.25803,-1.48607 0.35732,-0.9398 0.10924,-0.85098 -0.40599,0.14537 -0.32206,0.6228 -0.38316,1.19435 -0.25015,2.3403 0.21658,1.86611 -0.111,3.15561 -1.2677,4.99013 l -0.88711,1.40695 -0.55616,-1.84999 c -0.3059,-1.01749 -0.50408,-2.12701 -0.4404,-2.46561 0.0928,-0.49345 0.0584,-0.47166 -0.17308,0.10983 -0.23221,0.58319 -0.1809,1.03739 0.26164,2.31616 0.70098,2.02553 0.6819,2.437189 -0.20199,4.357239 l -0.72643,1.57802 z m -18.21001,0.004 c -1.12335,-0.76333 -1.50715,-1.7865 -2.32376,-6.194879 -1.29341,-6.9823 -3.32108,-12.66257 -6.26892,-17.56163 -1.07798,-1.79151 -1.01334,-2.24072 0.11376,-0.79043 2.33751,3.00779 4.31592,7.73217 5.90515,14.10126 1.38021,5.53138 1.28952,5.35281 3.69683,7.27932 1.3265,1.061559 1.40738,1.307449 0.81319,2.472149 -0.29757,0.5833 -0.64192,1.12289 -0.76521,1.19909 -0.12329,0.0762 -0.65026,-0.151 -1.17104,-0.50488 z m 1.18645,-3.557499 c -1.48656,-1.33145 -1.58232,-1.6421 -1.09853,-3.5634 0.23606,-0.93747 0.18541,-1.65994 -0.28179,-4.01977 -0.95261,-4.81159 -2.53034,-10.57786 -4.18965,-15.3123 -0.86704,-2.47386 -1.65934,-4.73604 -1.76069,-5.02708 -0.18119,-0.52035 -0.17732,-0.52065 0.23221,-0.0183 0.51885,0.63644 2.73716,6.27902 3.85583,9.80789 0.46131,1.45521 1.40937,4.97763 2.1068,7.8276 1.07643,4.39875 1.41319,5.39277 2.22857,6.57813 0.80387,1.16862 0.95915,1.61806 0.95211,2.75573 -0.005,0.74766 -0.15469,1.55148 -0.33348,1.78627 -0.28792,0.378109 -0.48352,0.28499 -1.71138,-0.81476 z"
       id="path2263"
       inkscape:connector-curvature="0" />
  </g>
</svg>
